<svg id="visual" viewBox="0 0 960 540" width="960" height="540" xmlns="http://www.w3.org/2000/svg" xmlns:xlink="http://www.w3.org/1999/xlink" version="1.1"><g transform="translate(448.40775404889797 268.3809917714222)"><path d="M142.8 -188.8C182.9 -167.4 211.7 -122.8 228.7 -73.6C245.7 -24.4 250.8 29.4 235.2 76.1C219.5 122.8 183.2 162.5 140.6 183.4C98 204.2 49 206.1 -2 208.8C-52.9 211.5 -105.8 215 -132.6 189C-159.3 163 -159.9 107.6 -166.1 60.6C-172.3 13.5 -184.1 -25.1 -180.8 -66C-177.4 -106.9 -159 -150.1 -126.3 -174C-93.7 -197.9 -46.8 -202.5 2.3 -205.6C51.3 -208.7 102.7 -210.3 142.8 -188.8" fill="#6e046f"></path></g></svg>