<svg id="visual" viewBox="0 0 960 540" width="960" height="540" xmlns="http://www.w3.org/2000/svg" xmlns:xlink="http://www.w3.org/1999/xlink" version="1.1"><g transform="translate(511.3879442782727 254.92981055952333)"><path d="M95.7 -139.8C122.5 -112.3 141.5 -82.2 151.3 -49.7C161.2 -17.2 161.9 17.8 158.3 58.4C154.7 98.9 146.7 144.9 119.6 181.1C92.5 217.3 46.2 243.6 6.7 234.5C-32.9 225.3 -65.8 180.6 -94.8 145C-123.8 109.5 -148.9 83 -174.8 46.6C-200.7 10.2 -227.3 -36.2 -222.5 -78.9C-217.7 -121.6 -181.4 -160.7 -139.1 -183.1C-96.8 -205.6 -48.4 -211.3 -7 -201.7C34.5 -192.1 69 -167.3 95.7 -139.8" fill="#6e046f"></path></g></svg>