<svg viewBox="0 -24.34 106.116 106.116" fill="#fff" width="460" height="460"><path d="M106.116 28.775c0-.021-.011-.049-.011-.066v-.051a3.337 3.337 0 00-.157-.793C104.309 19.715 81.398 0 53.168 0 25.324 0 2.424 19.187.211 27.533A3.819 3.819 0 000 28.661c0 .016.006.045.006.063S0 28.757 0 28.778a3.762 3.762 0 00.171.866c1.777 8.193 24.847 27.789 53 27.789 27.95 0 50.7-19.329 52.746-27.627a3.678 3.678 0 00.199-1.031z" fill="#f4f4f4"/><path d="M78.259 28.713a25.2 25.2 0 11-25.2-25.2 25.2 25.2 0 0125.2 25.2z" fill="#27b7ff"/><path d="M66.866 28.713a13.811 13.811 0 11-13.81-13.811 13.807 13.807 0 0113.81 13.811z" fill="#163844"/></svg>