<svg version="1.1" id="Capa_1" xmlns="http://www.w3.org/2000/svg" xmlns:xlink="http://www.w3.org/1999/xlink" x="0px" y="0px"
	 viewBox="0 0 493.216 493.216" style="enable-background:new 0 0 493.216 493.216;" xml:space="preserve" fill="white">
<g>
	<g>
		<path d="M473.708,492.501c3.1-0.8,6.1-2.2,8.7-4.2c5.1-3.8,8.6-9.9,9.3-16.4c0.1-0.8,0.1-1.6,0.1-2.4v-0.6v-0.9v-1.9v-3.7
			l0.1-14.8l0.4-59.4c0.1-39.6,0.1-79.1,0.2-118.6c-0.2-79.1-1.1-158-3.1-236.8c-0.1-2.8-0.2-5.6-0.3-8.3v-1.1v-0.3l-0.1-0.8
			c-0.1-0.6-0.1-1.1-0.2-1.6c-0.4-1.9-0.8-3.2-1.4-4.7c-1.3-2.9-3.2-5.5-5.5-7.5s-5.1-3.5-8.1-4.4c-1.5-0.4-3-0.7-4.5-0.7h-1.1h-0.4
			h-0.5c-5.3,0.3-10.4,0.6-15.3,0.9c-9.7,0.7-18.5,1.7-25.7,2.9c-14.5,2.4-23,5.8-21.3,10.4c1.5,4.1,10.2,7.7,24.3,10.4
			c7,1.3,15.4,2.5,24.9,3.3c1.7,0.1,3.5,0.3,5.3,0.4c0,1.1-0.1,2.1-0.1,3.2c-1.7,82.6-3.6,165.9-3.4,248.7l0.5,100l0.4,50l0.2,25
			v0.3l-196,2.2c-59.7-2.9-119.8-4.6-180-5.6c-14.4-0.2-28.8-0.4-43.2-0.6l0.1-10.6c0.1-30.2,0.2-60.5,0.3-90.8
			c-0.1-60.6-0.2-121.2-0.3-181.8c0-30.3,0-60.6,0-90.9l0.2-40.9l11.9,0.1c10.8,0.1,27.6-3.4,32.9-5.8c10.5-4.9-3.2-9-23.6-12.1
			c-8.4-1.3-17.1-2.5-26-3.6c-2.2-0.3-4.4-0.5-6.7-0.8l-3.4-0.4c-0.4-0.1-1.5-0.1-2.4,0.1s-1.8,0.5-2.6,1.1c-1.6,1-2.8,2.7-3.3,4.6
			c-0.1,0.5-0.2,1-0.2,1.5l-0.1,0.9l-0.2,1.7c-0.2,2.3-0.5,4.6-0.7,6.9c-1.9,18.5-3.5,37.6-4.7,57.3c-2.6,39.3-4,80.6-4.6,122.3
			c-0.8,49.8-1.5,99.9-2.3,150.1l-1.1,75.3l-0.3,18.8l-0.1,9.4v1.2v0.6v1.5c0-0.3,0.1,1.6,0.3,2.8c0.2,1.2,0.4,1.9,0.7,2.9
			c0.6,1.8,1.4,3.6,2.5,5.2c2.1,3.2,4.9,5.8,8.3,7.6c1.7,0.9,3.5,1.6,5.4,2c0.9,0.2,1.9,0.4,2.8,0.5l1.4,0.1h0.9l37.7,0.4
			c100.4,1.1,201,1.3,302-0.3c25,0.4,49.9,0.7,74.9,1.1l29.7,0.3h0.5h1.4C468.308,493.301,472.808,492.901,473.708,492.501z
			 M22.908,469.201C21.808,469.201,20.808,469.101,22.908,469.201L22.908,469.201z M23.108,24.301L23.108,24.301
			C23.108,23.201,23.108,22.101,23.108,24.301z M467.708,469.401C467.808,469.401,467.808,469.401,467.708,469.401
			C467.708,472.801,467.708,471.801,467.708,469.401z M468.008,24.601L468.008,24.601C470.608,24.601,469.908,24.601,468.008,24.601
			z"/>
		<path d="M163.808,371.501c-1.9-0.1-3.9-1.4-6.1-0.9c-1.9,0.4-4.3,2.6-3.9,7.1c0.2,2.2,1.3,4.9,3.7,7.3c2.3,2.4,6,4.4,10.7,4.7
			c2.4,0.2,4.8-0.1,7.5-1.1c0.7-0.3,1.5-0.7,2.2-1.1l1.3-0.7l0.5-0.3l0.3-0.1l0,0l0.6-0.5l0,0h0.1l0.1-0.1l1-0.6
			c2.7-1.7,5.5-3.6,8.4-5.6c5.8-4.1,12.1-9,18.7-14.6c11.7-10,23.5-20,35.2-30l0.4,0.4l17,16l34.1,31.8l8.8,8.1
			c3.4,3.1,8,5.4,12.9,6.4s9.8,0.5,14.3-1c4.5-1.6,8.6-4.3,11.8-7.9c1.6-1.8,3-3.9,4.1-6.1c0.5-1.1,1-2.3,1.4-3.4
			c0.4-1.3,0.8-3,1-4.5l0.2-1.1v-0.4l0.1-0.7v-0.4l0.1-1.6v-0.7v-2.9v-5.8c-0.4-99.9-2.4-199.8-3.7-299.6
			c0.9-13.8,1.7-27.7,2.3-41.6c0.4-8-5.8-14.8-13.7-15.2l-1.5-0.1c-59.1-3.1-118.5-4.3-178.3-4.7c-10.8-0.1-19.7,8.6-19.7,19.5v0.3
			c-0.8,107.6,1,215.8-0.4,323.4c-0.1,8.1,3.4,20.7,5.8,24.7c4.9,7.9,9-2.4,12.1-17.7c10.3-50.6,14.8-112,16-174.4
			c0.9-46.2,1.9-92.4,2.8-138.7c47.5,0.9,95,1.5,142.7,1.7c0.1,32.9,0.4,65.8,1.1,98.8c-0.4,18.7-0.7,37.4-1.1,56.1l-1,89l-0.2,44.5
			v23.5l-33.1-29.1l-8.4-7.3l-4.2-3.6l-2.1-1.8l-1-0.9c-1.9-1.6-0.6-0.5-2.3-1.8c-0.7-0.5-1.3-0.9-2-1.4c-0.7-0.4-1.1-0.6-1.7-1
			c-1.1-0.6-2.3-1.1-3.4-1.5c-2.3-0.8-4.8-1.5-7.2-1.7c-4.9-0.5-10,0.2-14.6,2.1c-2.3,0.9-4.5,2.2-6.4,3.7l-1.4,1.2l-1,0.9l-1,1
			l-4,3.8l-32,30.7c-6,5.8-11.7,11.6-16.6,17c-1.2,1.4-2.4,2.7-3.6,4c-0.6,0.7-1.1,1.3-1.7,2l-0.8,1l-0.4,0.5v0.1
			c0.4-0.3-0.8,0.7,0.8-0.7l0,0l0,0l-0.1,0.1l-0.2,0.2l-0.8,0.9c0.2-0.1,0.6-0.4,0.9-0.4c0.4-0.1,0.6-0.1,0.6-0.1
			c0.1,0,0.2,0.1,0.3,0.1c0.4,0.1,0.8,0.5,0.9,0.8C167.208,370.401,165.608,371.701,163.808,371.501z M328.008,363.401
			c0.1,0.1,0.3,0.2,0.4,0.3l0.2,0.2l-0.3-0.2L328.008,363.401L328.008,363.401z M244.908,330.501L244.908,330.501
			C245.108,330.301,245.108,330.301,244.908,330.501z"/>
	</g>
</g>
</svg>
