<svg class="prefix__variation-svg prefix__fade-enter-done" viewBox="20.179 97 657.97 375.51" xmlns="http://www.w3.org/2000/svg" xmlns:xlink="http://www.w3.org/1999/xlink"><image height="144.958" width="197.321" y="167" x="90.179" preserveAspectRatio="xMinYMin" href="https://fiverr-res.cloudinary.com/image/upload/f_png,q_auto,t_makers_project_variation_preview/v1/secured-attachments/makers_project_variation/preview_file/9a884a5cc5e215114752b2f799947963-1666143756/634f548cb67a995c0c744c53.svg?__cld_token__=exp=1673292943~hmac=a9efcfeea01667763fda54ab63be15693590b45b54e7d0965e65842234bb0499" style="position:absolute"/><svg data-layer-type="text" y="386" viewBox=".47 4.68 263.39 16.51" x="90.179" height="16.51" width="263.39" style="position:absolute"><path d="M10.5 20.97l-1.27-4.19H3.8l-1.25 4.19H.47L5.65 4.9h1.73l5.19 16.07H10.5zM6.51 7.73l-2.18 7.3h4.38l-2.2-7.3zm35.02 8.14h2.04q-.13 2.58-1.45 3.95-1.32 1.37-3.72 1.37-2.42 0-3.84-1.84-1.43-1.83-1.43-4.98v-2.91q0-3.14 1.47-4.96 1.46-1.82 3.99-1.82 2.32 0 3.6 1.4 1.27 1.39 1.38 3.99h-2.04q-.13-1.97-.83-2.81-.69-.84-2.11-.84-1.65 0-2.53 1.29-.89 1.29-.89 3.77v2.95q0 2.44.83 3.74.82 1.3 2.4 1.3t2.27-.78q.7-.79.86-2.82zm19.28 5.1l-2.86-6.5h-2.83v6.5h-2.03V4.9h4.51q2.36 0 3.57 1.23 1.22 1.23 1.22 3.61 0 1.49-.66 2.59-.66 1.11-1.86 1.68l3.11 6.83v.13h-2.17zM55.12 6.64v6.1h2.45q1.27 0 2.03-.82.76-.82.76-2.18 0-3.1-2.81-3.1h-2.43zm24.46 5.17v1.73h-5.69v5.7h6.62v1.73h-8.64V4.9h8.53v1.74h-6.51v5.17h5.69zm19.06 9.16l-1.27-4.19h-5.43l-1.24 4.19h-2.08L93.8 4.9h1.73l5.19 16.07h-2.08zM94.66 7.73l-2.19 7.3h4.38l-2.19-7.3zm22.99-2.83v1.74h-4.22v14.33h-2.02V6.64h-4.22V4.9h10.46zm11.27 0v16.07h-2.02V4.9h2.02zm11.26 0l3.65 12.97 3.68-12.97h2.22l-5 16.07h-1.77L137.97 4.9h2.21zm26.21 6.91v1.73h-5.69v5.7h6.63v1.73h-8.65V4.9h8.53v1.74h-6.51v5.17h5.69zm29.28 5.1q0-1.2-.65-1.84-.65-.64-2.35-1.25-1.7-.61-2.6-1.28-.9-.66-1.35-1.52-.45-.85-.45-1.96 0-1.91 1.28-3.14 1.27-1.24 3.34-1.24 1.41 0 2.51.63 1.11.64 1.7 1.77.6 1.12.6 2.47h-2.03q0-1.49-.72-2.31-.72-.82-2.06-.82-1.23 0-1.9.69-.68.68-.68 1.92 0 1.01.73 1.7.73.68 2.25 1.22 2.38.79 3.4 1.94 1.02 1.14 1.02 3 0 1.95-1.27 3.13-1.27 1.17-3.45 1.17-1.41 0-2.59-.61-1.19-.61-1.87-1.72-.68-1.11-.68-2.55h2.03q0 1.49.84 2.32.83.83 2.27.83 1.33 0 2-.69.68-.68.68-1.86zM216.53 4.9v1.74h-4.22v14.33h-2.02V6.64h-4.22V4.9h10.46zm19.3 6.52v2.93q0 3.29-1.4 5.07-1.4 1.77-3.99 1.77-2.48 0-3.92-1.73-1.44-1.72-1.49-4.88v-3.02q0-3.23 1.42-5.05 1.42-1.83 3.97-1.83 2.54 0 3.96 1.75t1.45 4.99zm-2.02 3.13v-3.02q0-2.55-.83-3.79-.84-1.24-2.56-1.24-1.66 0-2.52 1.26-.85 1.26-.87 3.71v2.88q0 2.46.86 3.75t2.55 1.29q1.7 0 2.52-1.19.82-1.19.85-3.65zm17.19.13h-3.24v6.29h-2.02V4.9h5.12q2.24 0 3.52 1.34 1.28 1.34 1.28 3.57 0 2.32-1.22 3.57-1.22 1.26-3.44 1.3zm-3.24-8.04v6.31h3.1q1.34 0 2.06-.81.72-.8.72-2.31 0-1.44-.74-2.31-.74-.88-2.03-.88h-3.11zm13.57 13.26q0-.53.31-.88.31-.36.94-.36.63 0 .96.36.32.35.32.88 0 .51-.32.85-.33.34-.96.34-.63 0-.94-.34-.31-.34-.31-.85z" data-horizontal-grow="left" fill="#4c048c" font-size="22.605" font-weight="400" font-family="Roboto Condensed" dominant-baseline="hanging" letter-spacing=".3em"/></svg><svg data-layer-type="text" y="323" viewBox="1.96 19.02 517.97 45.97" x="90.179" height="45.97" width="517.97" style="position:absolute"><path d="M1.96 21.6h31.43v6.94H21.97v35.9h-8.59v-35.9H1.96V21.6zm56.83 8.35q3.87 0 6.88 1.69 3 1.68 4.69 4.97 1.69 3.28 1.69 7.88v19.95h-8.59V45.66q0-4.05-2.03-6.23-2.02-2.18-5.52-2.18-3.56 0-5.62 2.18-2.05 2.18-2.05 6.23v18.78h-8.59V19.02h8.59v15.65q1.65-2.21 4.42-3.46 2.76-1.26 6.13-1.26zm53.03 16.75q0 1.84-.25 3.32H86.72q.3 3.68 2.57 5.77 2.27 2.08 5.59 2.08 4.79 0 6.81-4.11h9.27q-1.48 4.91-5.65 8.07t-10.25 3.16q-4.91 0-8.8-2.18-3.9-2.18-6.08-6.17Q78 52.66 78 47.44q0-5.28 2.15-9.27 2.15-3.99 6.01-6.13 3.87-2.15 8.9-2.15 4.85 0 8.69 2.08 3.83 2.09 5.95 5.93 2.12 3.83 2.12 8.8zm-25.04-2.45h16.14q-.06-3.32-2.4-5.31-2.33-2-5.7-2-3.19 0-5.37 1.94-2.18 1.93-2.67 5.37zm73.52-14.3q6.26 0 10.09 3.83 3.84 3.84 3.84 10.71v19.95h-8.59V45.66q0-3.99-2.03-6.11-2.02-2.11-5.52-2.11-3.5 0-5.55 2.11-2.06 2.12-2.06 6.11v18.78h-8.59V45.66q0-3.99-2.03-6.11-2.02-2.11-5.52-2.11-3.56 0-5.62 2.11-2.05 2.12-2.05 6.11v18.78h-8.59v-34h8.59v4.11q1.65-2.15 4.26-3.37 2.61-1.23 5.74-1.23 3.99 0 7.12 1.69 3.13 1.68 4.85 4.81 1.66-2.94 4.82-4.72 3.16-1.78 6.84-1.78zM214 46.7q0 1.84-.25 3.32H188.9q.3 3.68 2.57 5.77 2.28 2.08 5.59 2.08 4.79 0 6.81-4.11h9.27q-1.47 4.91-5.65 8.07-4.17 3.16-10.25 3.16-4.91 0-8.8-2.18-3.9-2.18-6.08-6.17-2.18-3.98-2.18-9.2 0-5.28 2.15-9.27 2.15-3.99 6.01-6.13 3.87-2.15 8.9-2.15 4.85 0 8.69 2.08 3.83 2.09 5.95 5.93 2.12 3.83 2.12 8.8zm-25.04-2.45h16.14q-.06-3.32-2.39-5.31-2.34-2-5.71-2-3.19 0-5.37 1.94-2.18 1.93-2.67 5.37zm31.3-25.23h8.59v45.42h-8.59V19.02zm17.06 0h8.59v45.42h-8.59V19.02zm32.16 45.97q-4.91 0-8.84-2.18-3.93-2.18-6.17-6.17-2.24-3.98-2.24-9.2 0-5.22 2.3-9.21 2.3-3.99 6.29-6.16 3.99-2.18 8.9-2.18t8.9 2.18q3.99 2.17 6.29 6.16t2.3 9.21q0 5.22-2.36 9.2-2.36 3.99-6.38 6.17-4.02 2.18-8.99 2.18zm0-7.49q2.33 0 4.38-1.13 2.06-1.14 3.29-3.41 1.22-2.27 1.22-5.52 0-4.85-2.54-7.46-2.55-2.61-6.23-2.61-3.68 0-6.17 2.61-2.48 2.61-2.48 7.46t2.42 7.46q2.42 2.6 6.11 2.6zm62.96-27.06h8.23l-9.95 34h-9.26l-6.2-23.75-6.2 23.75h-9.33l-10-34h8.71l6.02 25.9 6.5-25.9h9.09l6.38 25.84 6.01-25.84zm10.68 17q0-5.28 2.15-9.24t5.95-6.13q3.81-2.18 8.72-2.18 6.32 0 10.46 3.16 4.14 3.16 5.55 8.87h-9.26q-.74-2.21-2.49-3.47-1.75-1.26-4.33-1.26-3.68 0-5.83 2.67-2.14 2.67-2.14 7.58 0 4.85 2.14 7.52 2.15 2.67 5.83 2.67 5.22 0 6.82-4.67h9.26q-1.41 5.53-5.58 8.78-4.17 3.25-10.43 3.25-4.91 0-8.72-2.18-3.8-2.18-5.95-6.13-2.15-3.96-2.15-9.24zm54.25 17.55q-4.91 0-8.84-2.18-3.92-2.18-6.16-6.17-2.24-3.98-2.24-9.2 0-5.22 2.3-9.21 2.3-3.99 6.29-6.16 3.99-2.18 8.9-2.18t8.9 2.18q3.98 2.17 6.29 6.16 2.3 3.99 2.3 9.21 0 5.22-2.37 9.2-2.36 3.99-6.38 6.17-4.02 2.18-8.99 2.18zm0-7.49q2.33 0 4.39-1.13 2.06-1.14 3.28-3.41 1.23-2.27 1.23-5.52 0-4.85-2.55-7.46-2.54-2.61-6.23-2.61-3.68 0-6.16 2.61-2.49 2.61-2.49 7.46t2.43 7.46q2.42 2.6 6.1 2.6zm21.85-10.18q0-5.16 2.06-9.15 2.05-3.99 5.61-6.13 3.56-2.15 7.92-2.15 3.31 0 6.32 1.44 3.01 1.44 4.79 3.84V19.02h8.71v45.42h-8.71v-5.03q-1.6 2.51-4.48 4.05-2.89 1.53-6.69 1.53-4.3 0-7.86-2.21-3.56-2.21-5.61-6.23-2.06-4.02-2.06-9.23zm26.76.12q0-3.13-1.23-5.37t-3.31-3.44q-2.09-1.19-4.48-1.19-2.4 0-4.42 1.16-2.03 1.17-3.29 3.41-1.25 2.24-1.25 5.31 0 3.06 1.25 5.37 1.26 2.3 3.32 3.53 2.05 1.22 4.39 1.22 2.39 0 4.48-1.19 2.08-1.2 3.31-3.44t1.23-5.37zm48.66-.74q0 1.84-.24 3.32h-24.86q.31 3.68 2.58 5.77 2.27 2.08 5.58 2.08 4.79 0 6.82-4.11h9.26q-1.47 4.91-5.64 8.07-4.18 3.16-10.25 3.16-4.91 0-8.81-2.18-3.89-2.18-6.07-6.17-2.18-3.98-2.18-9.2 0-5.28 2.15-9.27 2.14-3.99 6.01-6.13 3.87-2.15 8.9-2.15 4.85 0 8.68 2.08 3.84 2.09 5.96 5.93 2.11 3.83 2.11 8.8zm-25.04-2.45h16.14q-.06-3.32-2.39-5.31-2.33-2-5.71-2-3.19 0-5.37 1.94-2.17 1.93-2.67 5.37zm39.89-8.53q1.66-2.7 4.33-4.24 2.67-1.53 6.11-1.53v9.02h-2.27q-4.05 0-6.11 1.9-2.06 1.9-2.06 6.63v16.94h-8.59v-34h8.59v5.28z" data-horizontal-grow="left" fill="#4c048c" font-size="61.37" font-weight="600" font-family="Poppins" dominant-baseline="hanging"/></svg></svg>