<svg class="prefix__variation-svg prefix__fade-enter-done" viewBox="76.12 84.44 422.76 345.94" xmlns="http://www.w3.org/2000/svg" xmlns:xlink="http://www.w3.org/1999/xlink"><image height="119.119" width="131.01" y="154.44" x="221.995" preserveAspectRatio="xMinYMin" href="https://fiverr-res.cloudinary.com/image/upload/f_png,q_auto,t_makers_project_variation_preview/v1/secured-attachments/makers_project_variation/preview_file/681bca2bec83fccedc2a1bd8aa68cda7-1665855297/634aedadfcc7af4f90e0e4e3.svg?__cld_token__=exp=1673292642~hmac=3f489b301459d21a87b6c53f7b7f277850d298e04614fd7364a4204da5db58e6" style="position:absolute"/><svg data-layer-type="text" y="342.22" viewBox=".4 4.34 148.28 18.16" x="213.36" height="18.16" width="148.28" style="position:absolute"><path d="M1.82 18.7H.8q-.16 0-.28-.12-.12-.12-.12-.28 0-.1.02-.22L5.38 5.14q.08-.2.22-.32t.42-.12h1.36q.28 0 .42.12.14.12.22.32l4.94 12.94q.04.12.04.22 0 .16-.12.28-.12.12-.28.12h-1.02q-.24 0-.35-.12-.11-.12-.15-.22l-1.1-2.84H3.42l-1.1 2.84q-.02.1-.14.22-.12.12-.36.12zm4.88-12L4 13.8h5.4L6.7 6.7zm18.38 12.2q-1.84 0-3.05-.68-1.21-.68-1.83-1.9-.62-1.22-.68-2.84-.02-.82-.02-1.76 0-.94.02-1.8.06-1.62.68-2.84.62-1.22 1.83-1.9 1.21-.68 3.05-.68 1.38 0 2.42.38t1.73 1.02q.69.64 1.05 1.43.36.79.4 1.63.02.18-.11.3t-.31.12h-1.1q-.18 0-.31-.1t-.19-.36q-.34-1.56-1.27-2.14-.93-.58-2.31-.58-1.62 0-2.56.91t-1 2.91q-.06 1.64 0 3.36.06 2 1 2.91.94.91 2.56.91 1.38 0 2.31-.58.93-.58 1.27-2.14.06-.26.19-.36.13-.1.31-.1h1.1q.18 0 .31.11t.11.29q-.04.84-.4 1.64-.36.8-1.05 1.44-.69.64-1.73 1.02t-2.42.38zm9.46-.2h-.98q-.2 0-.33-.13t-.13-.33V8.78q0-.2.13-.34t.33-.14h.92q.2 0 .34.14t.14.34v.88q.4-.68 1.1-1.02.7-.34 1.7-.34h.78q.2 0 .33.13t.13.33v.82q0 .2-.13.32t-.33.12h-1.2q-1.08 0-1.7.63-.62.63-.62 1.71v5.88q0 .2-.14.33t-.34.13zm10.32.2q-2.08 0-3.3-1.27-1.22-1.27-1.34-3.47-.02-.26-.02-.67 0-.41.02-.67.08-1.42.66-2.49.58-1.07 1.59-1.65 1.01-.58 2.37-.58 1.52 0 2.55.64 1.03.64 1.57 1.82.54 1.18.54 2.76v.34q0 .22-.13.34-.13.12-.33.12h-6.92v.18q.04.82.36 1.53.32.71.93 1.15.61.44 1.43.44.72 0 1.2-.22t.78-.49q.3-.27.4-.43.18-.24.28-.29.1-.05.32-.05h.98q.18 0 .31.11t.11.31q-.02.3-.32.73t-.85.85q-.55.42-1.36.69-.81.27-1.83.27zm-2.74-6.22v.06h5.48v-.06q0-.9-.33-1.6-.33-.7-.95-1.11-.62-.41-1.48-.41t-1.47.41q-.61.41-.93 1.11-.32.7-.32 1.6zM54.8 18.9q-1 0-1.82-.4-.82-.4-1.32-1.08-.5-.68-.5-1.54 0-1.38 1.12-2.2 1.12-.82 2.92-1.08l2.98-.42v-.58q0-.96-.55-1.5t-1.79-.54q-.88 0-1.44.36-.56.36-.78.92-.12.3-.42.3h-.9q-.22 0-.33-.13-.11-.13-.11-.31 0-.3.23-.74t.71-.86q.48-.42 1.23-.71t1.83-.29q1.2 0 2.02.31.82.31 1.29.83.47.52.68 1.18.21.66.21 1.34v6.48q0 .2-.13.33t-.33.13h-.92q-.22 0-.34-.13-.12-.13-.12-.33v-.86q-.26.36-.7.71-.44.35-1.1.58-.66.23-1.62.23zm.42-1.5q.82 0 1.5-.35t1.07-1.09q.39-.74.39-1.86v-.56l-2.32.34q-1.42.2-2.14.67-.72.47-.72 1.19 0 .56.33.93t.84.55q.51.18 1.05.18zm13.16 1.3H67q-1.12 0-1.82-.43t-1.02-1.22q-.32-.79-.32-1.87V9.9h-1.56q-.2 0-.33-.13t-.13-.33v-.68q0-.2.13-.33t.33-.13h1.56V4.96q0-.2.13-.33t.33-.13h.94q.2 0 .33.13t.13.33V8.3h2.48q.22 0 .34.13.12.13.12.33v.68q0 .2-.12.33t-.34.13H65.7v5.14q0 .94.32 1.48t1.14.54h1.22q.2 0 .33.13t.13.33v.72q0 .2-.13.33t-.33.13zm3.8 0h-.96q-.2 0-.33-.13t-.13-.33V8.76q0-.2.13-.33t.33-.13h.96q.2 0 .33.13t.13.33v9.48q0 .2-.13.33t-.33.13zm.14-12.34h-1.26q-.2 0-.33-.13t-.13-.33V4.82q0-.2.13-.34t.33-.14h1.26q.2 0 .34.14t.14.34V5.9q0 .2-.14.33t-.34.13zm7.76 12.34h-.86q-.3 0-.47-.14-.17-.14-.27-.36l-3.7-9.28q-.04-.1-.04-.2 0-.18.12-.3t.3-.12h.96q.22 0 .34.12.12.12.16.22l3.04 7.88 3.04-7.88q.04-.1.15-.22.11-.12.33-.12h.98q.16 0 .29.12.13.12.13.3 0 .1-.04.2l-3.72 9.28q-.08.22-.25.36-.17.14-.49.14zm10.76.2q-2.08 0-3.3-1.27-1.22-1.27-1.34-3.47-.02-.26-.02-.67 0-.41.02-.67.08-1.42.66-2.49.58-1.07 1.59-1.65 1.01-.58 2.37-.58 1.52 0 2.55.64 1.03.64 1.57 1.82.54 1.18.54 2.76v.34q0 .22-.13.34-.13.12-.33.12H88.1v.18q.04.82.36 1.53.32.71.93 1.15.61.44 1.43.44.72 0 1.2-.22t.78-.49q.3-.27.4-.43.18-.24.28-.29.1-.05.32-.05h.98q.18 0 .31.11t.11.31q-.02.3-.32.73t-.85.85q-.55.42-1.36.69-.81.27-1.83.27zm-2.74-6.22v.06h5.48v-.06q0-.9-.33-1.6-.33-.7-.95-1.11-.62-.41-1.48-.41t-1.47.41q-.61.41-.93 1.11-.32.7-.32 1.6zm19.44 6.22q-1.74 0-2.92-.54t-1.81-1.39q-.63-.85-.67-1.79 0-.16.13-.29.13-.13.31-.13h1.02q.24 0 .36.12t.16.28q.12.48.5.95t1.09.78q.71.31 1.83.31 1.72 0 2.53-.61.81-.61.81-1.63 0-.7-.43-1.13-.43-.43-1.31-.77-.88-.34-2.28-.74-1.46-.42-2.42-.92t-1.43-1.24q-.47-.74-.47-1.88 0-1.08.58-1.93.58-.85 1.68-1.35 1.1-.5 2.64-.5 1.24 0 2.17.33.93.33 1.55.88t.94 1.18q.32.63.34 1.23 0 .14-.1.27t-.32.13h-1.06q-.14 0-.29-.08-.15-.08-.23-.3-.12-.82-.92-1.38-.8-.56-2.08-.56-1.3 0-2.11.5-.81.5-.81 1.56 0 .68.38 1.13.38.45 1.2.79t2.14.72q1.6.44 2.62.93 1.02.49 1.51 1.22t.49 1.87q0 1.26-.66 2.15-.66.89-1.85 1.36-1.19.47-2.81.47zm13.12-.2h-1.38q-1.12 0-1.82-.43t-1.02-1.22q-.32-.79-.32-1.87V9.9h-1.56q-.2 0-.33-.13t-.13-.33v-.68q0-.2.13-.33t.33-.13h1.56V4.96q0-.2.13-.33t.33-.13h.94q.2 0 .33.13t.13.33V8.3h2.48q.22 0 .34.13.12.13.12.33v.68q0 .2-.12.33t-.34.13h-2.48v5.14q0 .94.32 1.48t1.14.54h1.22q.2 0 .33.13t.13.33v.72q0 .2-.13.33t-.33.13zm6.64.2q-1.52 0-2.54-.58t-1.56-1.61q-.54-1.03-.6-2.35-.02-.34-.02-.87t.02-.85q.06-1.34.61-2.36.55-1.02 1.57-1.6 1.02-.58 2.52-.58t2.52.58q1.02.58 1.57 1.6t.61 2.36q.02.32.02.85t-.02.87q-.06 1.32-.6 2.35t-1.56 1.61q-1.02.58-2.54.58zm0-1.54q1.24 0 1.98-.79t.8-2.31q.02-.3.02-.76t-.02-.76q-.06-1.52-.8-2.31t-1.98-.79q-1.24 0-1.99.79t-.79 2.31q-.02.3-.02.76t.02.76q.04 1.52.79 2.31t1.99.79zm8.68 5.14H135q-.2 0-.33-.13t-.13-.33V8.76q0-.2.13-.33t.33-.13h.92q.2 0 .33.13t.13.33v.88q.48-.66 1.28-1.1.8-.44 2-.44 1.12 0 1.91.38.79.38 1.3 1.04t.77 1.5q.26.84.3 1.8.02.32.02.68 0 .36-.02.68-.04.94-.3 1.79-.26.85-.77 1.5t-1.3 1.04q-.79.39-1.91.39-1.16 0-1.95-.43t-1.29-1.07v4.64q0 .2-.12.33t-.32.13zm3.26-5.22q1.04 0 1.63-.45.59-.45.85-1.18t.3-1.57q.02-.58 0-1.16-.04-.84-.3-1.57-.26-.73-.85-1.18-.59-.45-1.63-.45-.98 0-1.59.46-.61.46-.9 1.17-.29.71-.33 1.45-.02.32-.02.76t.02.78q.02.7.33 1.38.31.68.93 1.12.62.44 1.56.44zm8.96 1.42h-1.44q-.2 0-.33-.13t-.13-.33V16.8q0-.2.13-.33t.33-.13h1.44q.2 0 .34.13t.14.33v1.44q0 .2-.14.33t-.34.13z" data-horizontal-grow="center" font-size="20" font-weight="400" font-family="Rubik" dominant-baseline="hanging"/></svg><svg data-layer-type="text" y="299.44" viewBox=".32 8.18 282.76 29.98" x="146.12" height="29.98" width="282.76" style="position:absolute"><path d="M4.96 14.76H.52q-.12-.6-.16-1.18-.04-.58-.04-1.04 0-.48.04-1.07.04-.59.16-1.19h19.12q.14.44.21 1 .07.56.07 1.08 0 1.32-.7 1.86t-2.18.54h-1.88q-.4 0-1.18-.02-.78-.02-1.22-.02H7.38q-.42 0-1.21.02t-1.21.02zM7.38 37.6V17.68q0-.82.01-1.47t.01-1.49v-2.2h5.32v2.2q0 .84.02 1.49t.02 1.47V37.6q-.68.12-1.4.16-.72.04-1.28.04-.6 0-1.32-.04-.72-.04-1.38-.16zM27.9 11.4v26.2q-1.08.2-2.6.2-1.34 0-2.52-.2V8.44l.26-.26h2.02q1.58 0 2.21.73.63.73.63 2.49zm11.28 12.84v8.74q0 1.1.18 2.08t.64 1.72q-.58.46-1.44.79t-1.84.33q-1.54 0-2.16-.84-.62-.84-.62-2.44v-9.3q0-1.68-.43-2.45-.43-.77-1.67-.77-.78 0-1.77.41t-1.91 1.22q-.92.81-1.54 2.03v-4.74q1.36-1.46 3.15-2.54 1.79-1.08 3.95-1.08 1.84 0 3.05.89 1.21.89 1.81 2.43.6 1.54.6 3.52zm20.46 5.1H46.58v-3.66h8.58v-.5q0-1.14-.33-2.1-.33-.96-1.04-1.54-.71-.58-1.91-.58-1.74 0-2.53 1.45-.79 1.45-.79 4.19v1.58q0 1.62.31 2.96.31 1.34 1.2 2.13.89.79 2.59.79 1.44 0 2.79-.39t2.59-.97q.6.6.99 1.5t.51 1.7q-1.48 1.06-3.53 1.66-2.05.6-4.17.6-2.52 0-4.18-.86-1.66-.86-2.63-2.33-.97-1.47-1.37-3.34-.4-1.87-.4-3.87 0-3 .92-5.4.92-2.4 2.84-3.79 1.92-1.39 4.9-1.39 2.62 0 4.43 1.13 1.81 1.13 2.76 3.05.95 1.92.95 4.32 0 1.16-.1 1.95t-.32 1.71zm5.08-11.82h1.96q1.54 0 2.27 1.01t.73 2.75V37.6q-.54.1-1.23.15-.69.05-1.37.05-.66 0-1.36-.05-.7-.05-1.26-.15V17.8l.26-.28zm10.5 20.08V25.32q0-1.84-.59-2.54t-1.49-.7q-.92.02-1.96.66t-1.91 1.63q-.87.99-1.31 2.11v-4.74q.92-1.14 2.05-2.14 1.13-1 2.42-1.61 1.29-.61 2.69-.61 1.74 0 2.93.82 1.19.82 1.8 2.24.61 1.42.61 3.2V37.6q-.56.1-1.25.15-.69.05-1.35.05-.68 0-1.37-.05-.69-.05-1.27-.15zM86 34.62v-9.34q0-1.84-.61-2.52-.61-.68-1.51-.68-.86 0-1.88.64t-1.93 1.67q-.91 1.03-1.47 2.25v-5.22q.94-1.08 2.14-2 1.2-.92 2.55-1.48 1.35-.56 2.71-.56 1.76 0 2.92.84t1.74 2.26q.58 1.42.58 3.22v9.28q0 1.1.18 2.08t.64 1.72q-.56.46-1.42.79-.86.33-1.84.33-1.56 0-2.18-.84-.62-.84-.62-2.44zm25.7-5.28H98.64v-3.66h8.58v-.5q0-1.14-.33-2.1-.33-.96-1.04-1.54-.71-.58-1.91-.58-1.74 0-2.53 1.45-.79 1.45-.79 4.19v1.58q0 1.62.31 2.96.31 1.34 1.2 2.13.89.79 2.59.79 1.44 0 2.79-.39t2.59-.97q.6.6.99 1.5t.51 1.7q-1.48 1.06-3.53 1.66-2.05.6-4.17.6-2.52 0-4.18-.86-1.66-.86-2.63-2.33-.97-1.47-1.37-3.34-.4-1.87-.4-3.87 0-3 .92-5.4.92-2.4 2.84-3.79 1.92-1.39 4.9-1.39 2.62 0 4.43 1.13 1.81 1.13 2.76 3.05.95 1.92.95 4.32 0 1.16-.1 1.95t-.32 1.71zm11.54 4.4h1.28q.18.56.3 1.22.12.66.12 1.32 0 .28-.02.59-.02.31-.1.57-.8.12-1.84.23-1.04.11-2.04.11-2.34 0-3.41-1.19-1.07-1.19-1.07-3.67V8.44l.28-.26h2.02q1.58 0 2.2.73.62.73.62 2.49v20.5q0 1.84 1.66 1.84zm11.72 0h1.28q.18.56.3 1.22.12.66.12 1.32 0 .28-.02.59-.02.31-.1.57-.8.12-1.84.23-1.04.11-2.04.11-2.34 0-3.41-1.19-1.07-1.19-1.07-3.67V8.44l.28-.26h2.02q1.58 0 2.2.73.62.73.62 2.49v20.5q0 1.84 1.66 1.84zm21.66-6.08q0 3.14-1.02 5.51-1.02 2.37-3.01 3.68-1.99 1.31-4.93 1.31-2.96 0-4.95-1.33-1.99-1.33-2.99-3.69-1-2.36-1-5.48 0-3.12 1.01-5.48 1.01-2.36 3-3.68 1.99-1.32 4.93-1.32 2.96 0 4.95 1.33 1.99 1.33 3 3.68t1.01 5.47zm-12.52 0q0 1.76.28 3.25t1.06 2.4q.78.91 2.22.91 1.48 0 2.25-.91t1.05-2.4q.28-1.49.28-3.25 0-1.74-.28-3.24-.28-1.5-1.05-2.41-.77-.91-2.25-.91-1.44 0-2.22.91-.78.91-1.06 2.41t-.28 3.24zm18.32 7.56l-4.02-17.16q.8-.34 1.55-.49.75-.15 1.43-.15 1.16 0 1.7.54t.76 1.64l1.52 7.36q.4 1.9.71 3.62.31 1.72.47 2.82.06.32.32.32l2.76-15.82q.62-.14 1.59-.2.97-.06 1.45-.06.54 0 1.54.06t1.56.2l2.74 15.5q.08.32.32.32.3-1.54.6-3.24.3-1.7.68-3.52l1.96-9.22q.44-.1 1.01-.15.57-.05 1.07-.05.58 0 1.39.08.81.08 1.33.34l.16.3-4.76 19.36q-.78.1-1.87.15-1.09.05-2.01.05-1.5 0-2.32-.45-.82-.45-1.1-2.11l-.9-4.9q-.16-1.02-.38-2.32-.22-1.3-.45-2.74-.23-1.44-.45-2.84h-.2q-.2 1.38-.44 2.8t-.47 2.72q-.23 1.3-.43 2.32l-1.36 7.3q-.84.1-1.96.16t-2.08.06q-1.42 0-2.24-.49-.82-.49-1.18-2.11zM200 26q.04-1.42-.18-2.52t-.85-1.73q-.63-.63-1.87-.63-1.64 0-2.42 1.61t-.78 5.01q0 3.4 1.03 4.83 1.03 1.43 2.93 1.43 1.28 0 2.46-.56t2.16-1.28q.66.38 1.28 1.28t.8 1.7q-1.36 1.36-3.35 2.19-1.99.83-4.17.83-2.16 0-3.75-.78-1.59-.78-2.65-2.19-1.06-1.41-1.58-3.31-.52-1.9-.52-4.14 0-2.84.73-4.85t1.98-3.27q1.25-1.26 2.8-1.85 1.55-.59 3.15-.59 1.76 0 3.16.51 1.4.51 2.38 1.4.98.89 1.49 2.03.51 1.14.51 2.4 0 1.34-.69 2.01-.69.67-1.91.67-.66 0-1.15-.05-.49-.05-.99-.15zm25.08 1.66q0 3.14-1.02 5.51-1.02 2.37-3.01 3.68-1.99 1.31-4.93 1.31-2.96 0-4.95-1.33-1.99-1.33-2.99-3.69-1-2.36-1-5.48 0-3.12 1.01-5.48 1.01-2.36 3-3.68 1.99-1.32 4.93-1.32 2.96 0 4.95 1.33 1.99 1.33 3 3.68t1.01 5.47zm-12.52 0q0 1.76.28 3.25t1.06 2.4q.78.91 2.22.91 1.48 0 2.25-.91t1.05-2.4q.28-1.49.28-3.25 0-1.74-.28-3.24-.28-1.5-1.05-2.41-.77-.91-2.25-.91-1.44 0-2.22.91-.78.91-1.06 2.41t-.28 3.24zM245.1 11.4v20.5q0 1.06.28 1.95.28.89.84 1.37-.16.7-.67 1.5t-1.05 1.18q-2.32-.2-3.41-1.82-1.09-1.62-1.09-3.84V8.44l.26-.26h2.02q1.58 0 2.2.73.62.73.62 2.49zm-17.04 16.5q0-3.5 1.1-5.84t2.89-3.51q1.79-1.17 3.85-1.17 2 0 3.61.81 1.61.81 2.97 1.73l-.74 3.88q-1.16-.92-2.47-1.68-1.31-.76-2.53-.76-1.04 0-1.78.75t-1.15 2.22q-.41 1.47-.41 3.61 0 2.1.4 3.42.4 1.32 1.09 1.93.69.61 1.49.61.82 0 1.79-.46.97-.46 1.85-1.58.88-1.12 1.38-3.06l1.14 3.3q-.28 1.5-1.32 2.89-1.04 1.39-2.62 2.28-1.58.89-3.52.89-2.34 0-3.91-1.3-1.57-1.3-2.34-3.62-.77-2.32-.77-5.34zm37.72 1.44h-13.06v-3.66h8.58v-.5q0-1.14-.33-2.1-.33-.96-1.04-1.54-.71-.58-1.91-.58-1.74 0-2.53 1.45-.79 1.45-.79 4.19v1.58q0 1.62.31 2.96.31 1.34 1.2 2.13.89.79 2.59.79 1.44 0 2.79-.39t2.59-.97q.6.6.99 1.5t.51 1.7q-1.48 1.06-3.53 1.66-2.05.6-4.17.6-2.52 0-4.18-.86-1.66-.86-2.63-2.33-.97-1.47-1.37-3.34-.4-1.87-.4-3.87 0-3 .92-5.4.92-2.4 2.84-3.79 1.92-1.39 4.9-1.39 2.62 0 4.43 1.13 1.81 1.13 2.76 3.05.95 1.92.95 4.32 0 1.16-.1 1.95t-.32 1.71zm17.3-11.6q0 .98-.32 2.4t-.98 2.52q-.46-.16-.92-.22t-.92-.1q-.96 0-1.7.38t-1.3 1.03q-.56.65-1 1.51-.44.86-.78 1.82l-.66-.84q.08-1.54.41-3.09.33-1.55 1.01-2.84.68-1.29 1.85-2.07 1.17-.78 2.91-.78.74 0 1.28.07t1.12.21zm-13.64 2.42q.16-.7.67-1.52.51-.82 1.05-1.2 2.4.3 3.6 2.02 1.2 1.72 1.4 4.42V37.6q-.54.1-1.22.15-.68.05-1.38.05-.68 0-1.37-.05-.69-.05-1.25-.15V24.3q0-1.7-.5-2.72-.5-1.02-1-1.42z" data-horizontal-grow="center" font-size="40" font-weight="600" font-family="Signika" dominant-baseline="hanging"/></svg></svg>