<?xml version="1.0" standalone="no"?><svg xmlns="http://www.w3.org/2000/svg" viewBox="0 0 1440 320" style="transform:rotate(180deg);"><path fill="#6e046f" fill-opacity="1" d="M0,96L21.8,112C43.6,128,87,160,131,186.7C174.5,213,218,235,262,234.7C305.5,235,349,213,393,208C436.4,203,480,213,524,234.7C567.3,256,611,288,655,250.7C698.2,213,742,107,785,101.3C829.1,96,873,192,916,208C960,224,1004,160,1047,133.3C1090.9,107,1135,117,1178,112C1221.8,107,1265,85,1309,85.3C1352.7,85,1396,107,1418,117.3L1440,128L1440,320L1418.2,320C1396.4,320,1353,320,1309,320C1265.5,320,1222,320,1178,320C1134.5,320,1091,320,1047,320C1003.6,320,960,320,916,320C872.7,320,829,320,785,320C741.8,320,698,320,655,320C610.9,320,567,320,524,320C480,320,436,320,393,320C349.1,320,305,320,262,320C218.2,320,175,320,131,320C87.3,320,44,320,22,320L0,320Z" data-darkreader-inline-fill="" style="--darkreader-inline-fill:#007acc;"></path></svg>