<svg xmlns="http://www.w3.org/2000/svg" viewBox="0 0 502 502" fill="#fff"><path d="M497 0H5a5 5 0 00-5 5v492a5 5 0 005 5h492a5 5 0 005-5V5a5 5 0 00-5-5zm-5 492H10V10h482v482z"/><path d="M72.645 449.393c11.473 10.445 26.786 16.367 43.114 16.678 44.87.855 90.054 1.283 135.239 1.283s90.368-.428 135.237-1.283c16.332-.311 31.646-6.234 43.121-16.678 11.632-10.586 18.037-24.618 18.037-39.512v-56.689a5 5 0 10-10 0v56.689c0 24.932-23.035 45.653-51.349 46.192a7119.178 7119.178 0 01-270.094 0c-28.31-.539-51.341-21.26-51.341-46.192V284.625c0-24.925 23.031-45.64 51.342-46.179a7119.178 7119.178 0 01270.094 0c16.384.312 31.373 7.165 41.125 18.802 6.688 7.98 10.223 17.446 10.223 27.376a5 5 0 1010 0c0-12.308-4.343-23.996-12.559-33.799-11.61-13.854-29.324-22.01-48.599-22.377a7126.76 7126.76 0 00-270.475 0c-16.328.311-31.64 6.233-43.115 16.676-11.631 10.584-18.036 24.613-18.036 39.501v125.256c0 14.893 6.405 28.926 18.036 39.512z"/><path d="M123.057 435.083h25.074a5 5 0 005-5V293.312h21.003a5 5 0 005-5v-23.657a5 5 0 00-5-5H97.107a5 5 0 00-5 5v23.709a5 5 0 005 5h20.95v136.719a5 5 0 005 5zm-20.95-151.719v-13.709h67.027v13.657h-21.003a5 5 0 00-5 5v136.771h-15.074V288.364a5 5 0 00-5-5h-20.95z"/><path d="M215.647 435.094h22.195a5 5 0 005-5V307.907a5 5 0 00-5-5h-.012l-22.209.053a5 5 0 00-4.988 5v83.514c-2.492 3.028-5.009 4.939-7.864 5.98-.771.463-1.161.248-1.17-.646-.219-1.074-.237-2.345-.237-3.897-.01-22.761-.087-84.001-.147-85.091a5 5 0 00-4.992-4.727h-22.141a5 5 0 00-5 5v1.019c-.006 20.293-.021 87.601.025 101.741.011 3.77.308 9.41 2.731 14.822 2.705 6.081 7.48 9.85 13.781 10.896 1.386.239 2.783.358 4.187.358 2.876 0 5.785-.499 8.693-1.498 4.307-1.486 8.285-3.713 12.148-6.835v1.498a5 5 0 005 5zm-5.417-19.965c-4.949 5.581-9.714 9.029-14.985 10.848-2.751.943-5.345 1.185-7.959.735-3.019-.502-4.966-2.074-6.317-5.111-1.274-2.846-1.848-6.17-1.863-10.778-.043-13.306-.033-73.801-.026-97.728v-.001h12.167c.042 13.907.102 54.312.114 79.821 0 1.582 0 3.748.439 5.893.689 3.396 2.536 6.087 5.199 7.577 2.668 1.492 5.935 1.656 9.196.465 4.874-1.777 9.114-5.058 12.911-9.962 1.525-1.902 1.525-4.162 1.525-5.375V312.95l12.209-.029v112.175h-12.195v-8.45a5 5 0 00-8.645-3.422l-.583.619c-.514.544-.872.925-1.187 1.286zM282.32 259.641h-22.243a5 5 0 00-5 5v165.428a5 5 0 005 5h22.243a5.002 5.002 0 004.689-3.262c4.845 3.206 10.313 4.851 16.335 4.903.119.002.238.002.356.002 11.448 0 19.729-5.955 23.337-16.8l.002-.005c1.407-4.244 2.07-8.791 2.088-14.32.027-24.993.023-47.687-.014-69.37 0-8.295-1.274-14.874-4.01-20.707-5.211-11.092-16.512-16.274-28.805-13.201-3.176.804-6.176 2.162-8.978 4.061v-41.729a5 5 0 00-5-5zm6.116 58.99c3.128-3.495 6.501-5.663 10.299-6.624 5.915-1.479 13.569-.217 17.313 7.752 2.089 4.454 3.062 9.684 3.062 16.466.037 21.683.041 44.367.014 69.341-.014 4.425-.515 7.981-1.578 11.189-2.253 6.776-6.873 10.008-14.105 9.955-5.983-.052-10.988-2.35-15.325-7.054l-2.153-2.294a5 5 0 00-5.487-1.225 4.998 4.998 0 00-3.158 4.648v4.283h-12.243V269.64h12.243v49.452a5 5 0 009.474 2.23c.391-.782 1.206-2.196 1.644-2.691zM406.86 376.87a5 5 0 005-4.942c.009-.872.243-21.483.065-31.098-.081-5.05-.516-9.392-1.33-13.279-2.728-12.922-10.224-21.743-21.67-25.505-3.27-1.082-6.947-1.754-10.911-1.997-12.987-.835-23.68 3.313-31.737 12.335-6.739 7.53-10.023 16.948-10.041 28.787l-.02 8.24c-.039 15.132-.079 30.78.074 46.186.06 5.164.649 10.175 1.753 14.898 2.775 11.856 9.38 20.212 19.623 24.833 4.756 2.154 9.845 3.212 15.633 3.212 2.632 0 5.408-.219 8.363-.651 13.817-2.029 23.069-9.629 27.497-22.589 3.091-9.026 2.862-26.696 2.826-28.681a5 5 0 00-4.999-4.909h-22.88a5 5 0 00-5 5v15.69c0 2.713-2.202 4.921-4.909 4.921a4.927 4.927 0 01-4.922-4.921v-25.53h37.585zm-32.665 40.45c8.221 0 14.909-6.693 14.909-14.921v-10.69h12.866c-.121 6.337-.648 15.607-2.274 20.352a.008.008 0 00-.002.004c-3.207 9.386-9.399 14.447-19.486 15.929-7.474 1.096-13.324.533-18.424-1.778-7.367-3.324-11.948-9.212-14.005-17.999-.938-4.013-1.439-8.298-1.49-12.727-.153-15.336-.113-30.952-.074-46.054l.02-8.248c.014-9.406 2.394-16.44 7.496-22.14 5.459-6.112 12.363-9.105 21.058-9.105.849 0 1.715.028 2.597.085 3.12.191 5.945.699 8.406 1.513 8.101 2.662 13.013 8.574 15.016 18.066.68 3.251 1.047 6.975 1.118 11.394.123 6.639.042 18.992-.019 25.868h-37.634a5 5 0 00-5 5v30.53c0 8.227 6.694 14.921 14.922 14.921z"/><path d="M364.274 357.943h19.831a5 5 0 005-5v-17.138c0-8.227-6.688-14.921-14.909-14.921-8.228 0-14.922 6.693-14.922 14.921v17.138a5 5 0 005 5zm5-22.138a4.927 4.927 0 014.922-4.921c2.707 0 4.909 2.207 4.909 4.921v12.138h-9.831v-12.138zM277.615 339.225a5.021 5.021 0 00-.283 1.665l.054 56.856v1.807c0 1.07.343 2.112.979 2.972.751 1.015.877 1.16.988 1.286l.081.09c3.161 3.428 6.572 5.484 10.443 6.288 1.178.24 2.321.357 3.42.357 6.266 0 11.071-3.805 12.406-10.163.346-1.622.521-3.217.521-4.736l.015-10.346c.02-13.801.031-20.728-.062-38.686-.017-3.373-1.044-6.657-1.901-8.819a5.005 5.005 0 00-.42-.826c-1.926-3.896-5.587-6.28-10.413-6.75-4.625-.455-8.847 1.066-12.876 4.625-1.889 1.647-2.737 3.769-2.952 4.38zm14.858.948c2.015.197 2.341 1.01 2.517 1.447.069.172.146.338.232.498.612 1.693.95 3.289.956 4.549.093 17.924.083 24.84.062 38.619l-.015 10.355c0 .825-.102 1.719-.305 2.672-.259 1.241-.583 2.787-4.025 2.082-1.559-.324-3.007-1.172-4.509-2.651l-.053-55.531c2.34-2.009 3.911-2.159 5.14-2.04zM306.864 213.445a29.18 29.18 0 005.57-.563c5.567-1.089 10.691-3.592 15.614-7.633l-.003 1.513a4.998 4.998 0 005 5.01h22.878a5 5 0 005-5l.007-123.463a5.001 5.001 0 00-5-5h-22.873a5 5 0 00-5 5l.001 84.427c-.395.467-8.215 8.025-8.689 5.35a16.046 16.046 0 01-.242-2.847v-86.93a5 5 0 00-5-5h-22.705a5 5 0 00-5 5v105.602c.028 3.43.617 7.109 1.703 10.641 2.751 8.945 9.575 13.893 18.739 13.893zM296.421 88.311h12.703v81.93c0 1.594.134 3.149.398 4.607.601 3.391 2.364 6.1 4.967 7.628 2.563 1.505 5.718 1.729 8.881.634 4.89-1.687 9.228-4.979 13.253-10.053 1.479-1.853 1.45-4.003 1.435-5.158l-.003-79.589h12.873l-.007 113.463h-12.868l.016-8.257a5 5 0 00-8.512-3.568 266.43 266.43 0 00-2.324 2.334c-1.554 1.575-3.023 3.063-4.528 4.386-3.945 3.474-7.932 5.568-12.188 6.4-10.232 1.997-12.19-4.365-12.834-6.455-.805-2.618-1.241-5.31-1.262-7.743V88.311zM149.466 137.007c.17.557.259 1.214.259 1.9l-.014 67.837a5.004 5.004 0 005 5.001h24.008a5 5 0 005-5l-.012-67.836c0-.678.092-1.343.26-1.906a206825.35 206825.35 0 0028.946-95.917 5 5 0 00-4.787-6.443h-26.033a5 5 0 00-4.867 3.854s-5.575 23.672-10.51 44.572c-4.936-20.9-10.511-44.573-10.511-44.573a5.001 5.001 0 00-4.867-3.854h-26.033a5.002 5.002 0 00-4.787 6.443s20.001 66.337 28.948 95.922zm-2.087-92.366a60166.897 60166.897 0 0014.465 61.278 5.015 5.015 0 004.879 3.847 5 5 0 004.865-3.847c4.076-17.194 11.823-50.07 14.464-61.278h15.344c-5.239 17.373-19.753 65.494-27.006 89.482a16.932 16.932 0 00-.683 4.786l.011 62.836h-14.006l.013-62.838c0-1.681-.232-3.297-.688-4.8-7.251-23.975-21.764-72.093-27.002-89.466h15.344zM239.462 192.828c7.969 0 14.452-6.481 14.452-14.447V111.68c0-7.969-6.483-14.452-14.452-14.452s-14.451 6.483-14.451 14.452v66.701c0 7.966 6.482 14.447 14.451 14.447zm-4.451-81.148a4.457 4.457 0 014.451-4.452 4.457 4.457 0 014.452 4.452v66.701a4.454 4.454 0 01-4.452 4.447 4.454 4.454 0 01-4.451-4.447V111.68z"/><path d="M201.703 112.975v64.109c0 20.817 16.936 37.754 37.752 37.754 20.82 0 37.759-16.936 37.759-37.754v-64.109c0-20.821-16.939-37.759-37.759-37.759-20.816 0-37.752 16.939-37.752 37.759zm37.752-27.758c15.307 0 27.759 12.452 27.759 27.759v64.109c0 15.304-12.452 27.754-27.759 27.754-15.303 0-27.752-12.45-27.752-27.754v-64.109c0-15.306 12.449-27.759 27.752-27.759zM49 163.996a5 5 0 005-5V46.192a5 5 0 10-10 0v112.804a5 5 0 005 5zM49 210.192a5 5 0 005-5v-17.591a5 5 0 10-10 0v17.591a5 5 0 005 5zM442.392 303.191a5 5 0 00-5 5v22a5 5 0 1010 0v-22a5 5 0 00-5-5z"/></svg>