
<svg version="1.1" id="Capa_1" xmlns="http://www.w3.org/2000/svg" xmlns:xlink="http://www.w3.org/1999/xlink" x="0px" y="0px"
	 viewBox="0 0 384.967 384.967" style="enable-background:new 0 0 384.967 384.967;" xml:space="preserve">
<g>
	<g id="Arrow_Dotted_Right_1_">
		<path d="M107.175,281.571C105.407,285.974,107.849,279.959,107.175,281.571L107.175,281.571z"/>
		<path d="M3.438,200.812l84.08,84.561c5.943,6.232,16.469,4.138,19.658-3.79c0.674-1.612,0.95-3.32,0.902-5.041V108.359
			c0.289-10.671-12.872-16.602-20.476-8.926L3.438,183.621C-1.146,188.264-1.146,196.168,3.438,200.812z M84.209,137.34v109.692
			l-55.279-54.81L84.209,137.34z"/>
		<path d="M156.391,228.277c19.934,0,36.091-16.157,36.091-36.091s-16.157-36.091-36.091-36.091S120.3,172.252,120.3,192.186
			S136.457,228.277,156.391,228.277z M156.391,180.156c6.641,0,12.03,5.39,12.03,12.03c0,6.641-5.39,12.03-12.03,12.03
			s-12.03-5.39-12.03-12.03C144.361,185.545,149.75,180.156,156.391,180.156z"/>
		<path d="M252.633,228.277c19.934,0,36.091-16.157,36.091-36.091s-16.157-36.091-36.091-36.091s-36.091,16.157-36.091,36.091
			S232.699,228.277,252.633,228.277z M252.633,180.156c6.641,0,12.03,5.39,12.03,12.03c0,6.641-5.39,12.03-12.03,12.03
			c-6.641,0-12.03-5.39-12.03-12.03C240.603,185.545,245.993,180.156,252.633,180.156z"/>
		<path d="M348.876,228.277c19.934,0,36.091-16.157,36.091-36.091s-16.157-36.091-36.091-36.091
			c-19.934,0-36.091,16.157-36.091,36.091S328.942,228.277,348.876,228.277z M348.876,180.156c6.641,0,12.03,5.39,12.03,12.03
			c0,6.641-5.39,12.03-12.03,12.03c-6.641,0-12.03-5.39-12.03-12.03C336.845,185.545,342.235,180.156,348.876,180.156z"/>
	</g>
	<g>
	</g>
	<g>
	</g>
	<g>
	</g>
	<g>
	</g>
	<g>
	</g>
	<g>
	</g>
</g>
<g>
</g>
<g>
</g>
<g>
</g>
<g>
</g>
<g>
</g>
<g>
</g>
<g>
</g>
<g>
</g>
<g>
</g>
<g>
</g>
<g>
</g>
<g>
</g>
<g>
</g>
<g>
</g>
<g>
</g>
</svg>
