<svg viewBox="0 0 1069 1069" fillRule="evenodd" clipRule="evenodd" strokeLinejoin="round" strokeMiterlimit="2"><path fill="none" d="M0 0h1066.67v1066.67H0z"/><path d="M434.469 693.912h200.523a186.116 186.116 0 0085.747 109.508 186.168 186.168 0 00141.267 18.598l.106-.029a186.165 186.165 0 00131.64-228.007l-54.48-203.323a186.165 186.165 0 00-228.007-131.64l-.107.029a186.112 186.112 0 00-73.63 39.042c.013-.012-205.608-.012-205.608-.012a186.09 186.09 0 00-73.617-39.031l-.106-.028a186.168 186.168 0 00-228.007 131.64L75.709 593.982a186.168 186.168 0 00131.64 228.007l.107.029a186.169 186.169 0 00141.267-18.598 186.118 186.118 0 0085.746-109.508zm254.788-38.789c-7.111-24.401-29.867-23.713-30.333-23.711-125.182.391-248.387 0-248.387 0-16.192.388-27 11.117-30.332 23.711-2.122 8.02-3.362 12.53-4.992 18.63-2.627 9.835-2.635 9.833-.12.449a123.668 123.668 0 01-151.461 87.445l-.107-.028a123.664 123.664 0 01-87.445-151.461l54.48-203.323a123.669 123.669 0 01151.46-87.446l.107.029a123.654 123.654 0 0155.438 32.007 31.249 31.249 0 0022.097 9.153h230.137a31.247 31.247 0 0022.097-9.153 123.654 123.654 0 0155.438-32.007l.107-.029a123.668 123.668 0 01151.461 87.446l54.48 203.323a123.668 123.668 0 01-87.446 151.461l-.107.028a123.668 123.668 0 01-151.206-86.51l-5.366-20.014zm-254.973 38.789h-.014l-.085.229-.654 1.495c.268-.564.52-1.139.753-1.724zM284.731 460.784h-31.026c-17.247 0-31.25 14.003-31.25 31.25s14.003 31.25 31.25 31.25h31.026v31.026c0 17.247 14.002 31.25 31.25 31.25 17.247 0 31.25-14.003 31.25-31.25v-31.026h31.025c17.248 0 31.25-14.003 31.25-31.25s-14.002-31.25-31.25-31.25h-31.025v-31.026c0-17.247-14.003-31.25-31.25-31.25-17.248 0-31.25 14.003-31.25 31.25v31.026z"/><path d="M720.632 552.486c0-18.253 14.819-33.073 33.073-33.073 18.254 0 33.073 14.82 33.073 33.073 0 18.254-14.819 33.074-33.073 33.074-18.254 0-33.073-14.82-33.073-33.074zm93.525-93.525c18.254 0 33.074 14.819 33.074 33.073 0 18.254-14.82 33.073-33.074 33.073-18.253 0-33.073-14.819-33.073-33.073 0-18.254 14.82-33.073 33.073-33.073zm-120.904 0c18.253 0 33.073 14.819 33.073 33.073 0 18.254-14.82 33.073-33.073 33.073-18.254 0-33.074-14.819-33.074-33.073 0-18.254 14.82-33.073 33.074-33.073zm27.379-27.379c0-18.254 14.819-33.074 33.073-33.074 18.254 0 33.073 14.82 33.073 33.074 0 18.253-14.819 33.073-33.073 33.073-18.254 0-33.073-14.82-33.073-33.073z" fillOpacity=".5"/></svg>