<svg viewBox="0 -24.34 106.116 106.116" fill="#000000">
    <g id="SVGRepo_bgCarrier" strokeWidth="0"></g>
    <g id="SVGRepo_tracerCarrier" strokeLinecap="round" strokeLinejoin="round"></g>
    <g id="SVGRepo_iconCarrier">

        <g id="eye_looking_blue" transform="translate(-49.01 -1010.339)">

            <path id="Path_264"
                d="M155.126,1039.114c0-.021-.011-.049-.011-.066s0-.041,0-.051a3.337,3.337,0,0,0-.157-.793c-1.639-8.15-24.55-27.865-52.78-27.865-27.844,0-50.744,19.187-52.957,27.533A3.819,3.819,0,0,0,49.01,1039c0,.016.006.045.006.063s-.006.033-.006.054a3.762,3.762,0,0,0,.171.866c1.777,8.193,24.847,27.789,53,27.789,27.95,0,50.7-19.329,52.746-27.627A3.678,3.678,0,0,0,155.126,1039.114Z"
                fill="#f4f4f4"></path>
            <path id="Path_265" d="M127.269,1039.052a25.2,25.2,0,1,1-25.2-25.2A25.2,25.2,0,0,1,127.269,1039.052Z"
                fill="#27b7ff"></path>
            <path id="Path_266"
                d="M115.876,1039.052a13.811,13.811,0,1,1-13.81-13.811A13.807,13.807,0,0,1,115.876,1039.052Z"
                fill="#163844"></path>
        </g>
    </g>
</svg>