<?xml version="1.0" encoding="iso-8859-1"?>
<!-- Generator: Adobe Illustrator 19.0.0, SVG Export Plug-In . SVG Version: 6.00 Build 0)  -->
<svg version="1.1" id="Layer_1" xmlns="http://www.w3.org/2000/svg" xmlns:xlink="http://www.w3.org/1999/xlink" x="0px" y="0px"
	 viewBox="0 0 350 350" style="enable-background:new 0 0 350 350;" xml:space="preserve">
<g id="XMLID_16_">
	<path id="XMLID_17_" d="M285,150.145V15c0-8.284-6.716-15-15-15H150c-8.284,0-15,6.716-15,15v15H20c-8.284,0-15,6.716-15,15v200
		c0,8.284,6.716,15,15,15h116.076c7.301,50.816,51.119,90,103.924,90c57.897,0,105-47.103,105-105
		C345,203.197,320.443,167.027,285,150.145z M240,320c-41.355,0-75-33.645-75-75s33.645-75,75-75s75,33.645,75,75
		S281.355,320,240,320z"/>
	<path id="XMLID_20_" d="M270.001,230h-15v-15c0-8.284-6.716-15-15-15c-8.284,0-15,6.716-15,15v15h-15c-8.284,0-15,6.716-15,15
		s6.716,15,15,15h15v15c0,8.284,6.716,15,15,15c8.284,0,15-6.716,15-15v-15h15c8.284,0,15-6.716,15-15S278.285,230,270.001,230z"/>
</g>
<g>
</g>
<g>
</g>
<g>
</g>
<g>
</g>
<g>
</g>
<g>
</g>
<g>
</g>
<g>
</g>
<g>
</g>
<g>
</g>
<g>
</g>
<g>
</g>
<g>
</g>
<g>
</g>
<g>
</g>
</svg>
