<svg xmlns="http://www.w3.org/2000/svg" viewBox="0 0 502 502" width="512" height="512"><path d="M370.994 49.998c-61.509 0-112.296 45.894-119.994 105.306-7.698-59.412-58.485-105.306-119.994-105.306C64.176 49.998 10 104.174 10 171.004s80.283 135.528 116.45 166.574C160.239 366.582 251 452.002 251 452.002s90.761-85.42 124.55-114.424C411.717 306.532 492 237.834 492 171.004S437.824 49.998 370.994 49.998z" fill="#ff1d25"/><path d="M251 462.002a9.976 9.976 0 01-6.854-2.718c-.906-.853-90.981-85.595-124.21-114.119l-.348-.299C80.771 311.548 0 242.216 0 171.004 0 98.767 58.769 39.998 131.006 39.998c52.959 0 99.547 31.914 119.994 78.382 20.446-46.468 67.035-78.382 119.994-78.382C443.231 39.998 502 98.767 502 171.004c0 71.211-80.771 140.543-119.588 173.862l-.348.299c-33.231 28.525-123.304 113.266-124.21 114.119a9.976 9.976 0 01-6.854 2.718zM131.006 59.998C69.797 59.998 20 109.795 20 171.004c0 62.021 78.917 129.761 112.615 158.687l.348.299c28.14 24.155 96.205 87.815 118.037 108.294 21.832-20.479 89.897-84.139 118.037-108.294l.348-.299C403.083 300.765 482 233.025 482 171.004c0-61.209-49.797-111.006-111.006-111.006-55.619 0-102.941 41.525-110.077 96.591a10 10 0 01-19.834 0c-7.135-55.066-54.458-96.591-110.077-96.591z"/><path d="M252.008 412.021a9.966 9.966 0 01-6.823-2.691c-26.934-25.15-75.469-70.218-97.909-89.48l-.304-.261a1749.349 1749.349 0 01-12.652-10.936c-4.157-3.636-4.58-9.954-.943-14.11 3.635-4.158 9.953-4.58 14.11-.943 4.536 3.967 8.773 7.604 12.512 10.813l.304.261c21.578 18.523 65.492 59.187 98.532 90.038 4.037 3.77 4.253 10.097.484 14.134a9.972 9.972 0 01-7.311 3.175z"/><g><path d="M113.283 285.803a9.961 9.961 0 01-6.964-2.825c-6.611-6.417-12.866-12.804-18.592-18.982-3.754-4.05-3.514-10.377.537-14.132 4.05-3.754 10.377-3.514 14.132.537 5.488 5.921 11.495 12.053 17.854 18.227 3.963 3.847 4.057 10.178.21 14.141a9.977 9.977 0 01-7.177 3.034z"/></g></svg>