
<svg version="1.1" id="Layer_1" xmlns="http://www.w3.org/2000/svg" xmlns:xlink="http://www.w3.org/1999/xlink" x="0px" y="0px"
	 viewBox="0 0 512 512" style="enable-background:new 0 0 512 512;" xml:space="preserve" fill="white">
<g>
	<g>
		<path d="M438.852,342.55c-0.509-6.247-3.557-11.721-8.814-15.827c-12.514-9.777-23.676-2.707-31.062,1.972l-1.297,0.819
			c-7.997,5.018-16.127,8.262-24.161,9.643c-11.666,2.006-23.365-0.103-32.094-5.785c-5.169-3.364-9.794-7.381-14.266-11.266
			c-12.314-10.697-25.045-21.758-47.89-18.666c-8.322,1.127-16.26,4.148-23.269,8.821c-7.009-4.673-14.947-7.694-23.269-8.821
			c-22.841-3.094-35.575,7.968-47.89,18.666c-4.472,3.885-9.097,7.903-14.266,11.266c-8.729,5.681-20.431,7.789-32.094,5.785
			c-8.034-1.38-16.165-4.625-24.162-9.643l-1.296-0.819c-7.384-4.679-18.545-11.748-31.063-1.972
			c-5.256,4.106-8.304,9.579-8.815,15.828c-1.13,13.833,9.935,27.866,20.906,39.77c24.109,26.157,58.747,40.395,94.715,40.394
			c13.591,0,27.374-2.033,40.848-6.224c1.616-0.503,3.246-1.044,4.848-1.61c8.198-2.898,15.415-6.495,21.535-10.728
			c6.12,4.233,13.338,7.83,21.536,10.729c1.6,0.565,3.231,1.107,4.846,1.608c49.131,15.282,102.346,1.871,135.564-34.169
			C428.917,370.416,439.982,356.383,438.852,342.55z M406.422,371.698c-14.415,15.639-33.477,26.671-55.127,31.903
			c-21.201,5.122-43.422,4.404-64.259-2.078c-1.426-0.443-2.866-0.922-4.279-1.42c-8.794-3.109-16.102-7.076-21.719-11.792
			L256,384.083l-5.039,4.229c-5.617,4.716-12.925,8.683-21.718,11.791c-1.414,0.499-2.853,0.977-4.281,1.421
			c-20.835,6.483-43.054,7.201-64.258,2.077c-21.649-5.231-40.711-16.263-55.127-31.903c-4.335-4.704-17.531-19.02-16.809-27.872
			c0.103-1.259,0.519-2.937,2.842-4.751c1.298-1.015,2.349-1.574,3.629-1.574c1.987,0,4.526,1.347,9.396,4.433l1.355,0.856
			c9.738,6.111,19.778,10.084,29.837,11.814c15.519,2.664,31.298-0.284,43.298-8.095c6.078-3.956,11.121-8.335,15.996-12.57
			c11.433-9.932,19.696-17.109,35.508-14.967c7.442,1.008,14.472,4.144,20.328,9.07l5.044,4.241l5.044-4.241
			c5.857-4.925,12.887-8.061,20.328-9.07c15.812-2.141,24.073,5.034,35.508,14.967c4.875,4.235,9.917,8.614,15.996,12.569
			c12.001,7.812,27.782,10.761,43.298,8.096c10.059-1.728,20.098-5.703,29.836-11.814l1.356-0.856
			c8.006-5.072,9.71-5.45,13.025-2.86c2.323,1.814,2.739,3.492,2.842,4.751C423.954,352.678,410.758,366.994,406.422,371.698z"/>
	</g>
</g>
<g>
	<g>
		<path d="M383.473,111.634c-43.852,0-79.528,35.676-79.528,79.528s35.676,79.528,79.528,79.528
			c43.852,0,79.528-35.676,79.528-79.528C463.002,147.31,427.326,111.634,383.473,111.634z M383.473,255.018
			c-9.004,0-17.573-1.883-25.349-5.26l53.879-53.879l-11.083-11.082l-56.687,56.687c-14.966-11.697-24.615-29.898-24.615-50.32
			c0-35.21,28.645-63.855,63.855-63.855c9.004,0,17.573,1.883,25.349,5.26l-76.134,76.135l11.083,11.082l78.942-78.943
			c14.966,11.697,24.615,29.898,24.615,50.32C447.328,226.373,418.683,255.018,383.473,255.018z"/>
	</g>
</g>
<g>
	<g>
		
			<rect x="414.754" y="166.033" transform="matrix(0.7071 -0.7071 0.7071 0.7071 0.9339 349.9941)" width="16.387" height="15.673"/>
	</g>
</g>
<g>
	<g>
		<path d="M128.522,111.634c-43.852,0-79.528,35.676-79.528,79.528s35.676,79.529,79.528,79.529s79.528-35.676,79.528-79.528
			C208.051,147.311,172.375,111.634,128.522,111.634z M128.522,255.018c-9.004,0-17.573-1.883-25.349-5.26l53.879-53.879
			l-11.083-11.082l-56.687,56.687c-14.965-11.697-24.615-29.898-24.615-50.32c0-35.21,28.645-63.855,63.855-63.855
			c9.004,0,17.573,1.883,25.349,5.26l-76.134,76.135l11.083,11.082l78.943-78.943c14.965,11.697,24.615,29.898,24.615,50.32
			C192.377,226.373,163.732,255.018,128.522,255.018z"/>
	</g>
</g>
<g>
	<g>
		
			<rect x="159.791" y="166.046" transform="matrix(0.7071 -0.7071 0.7071 0.7071 -73.7522 169.7119)" width="16.387" height="15.673"/>
	</g>
</g>
<g>
	<g>
		<path d="M487.967,167.13h-5.522c-4.244-17.604-13.218-34.29-26.932-48.006c-19.243-19.243-44.826-29.839-72.038-29.839
			c-27.213,0-52.797,10.597-72.038,29.839c-7.445,7.445-13.494,15.765-18.148,24.632c-10.434-8.529-23.511-13.28-37.286-13.28
			c-13.777,0-26.854,4.751-37.289,13.283c-4.654-8.868-10.704-17.189-18.15-24.635c-39.723-39.722-104.355-39.722-144.078,0
			c-13.715,13.715-22.689,30.401-26.933,48.006h-5.519C10.78,167.131,0,177.913,0,191.164s10.78,24.033,24.033,24.033h5.518
			c4.244,17.604,13.218,34.29,26.933,48.006c19.861,19.86,45.95,29.791,72.038,29.791s52.178-9.931,72.038-29.791
			c28.127-28.128,36.31-68.738,24.604-104.156c8.119-8.235,19.135-12.894,30.834-12.894c11.698,0,22.713,4.658,30.831,12.891
			c-11.707,35.42-3.523,76.032,24.603,104.16c19.242,19.242,44.825,29.839,72.038,29.839c27.212,0,52.796-10.597,72.038-29.839
			c13.714-13.715,22.689-30.401,26.932-48.006h5.525c13.252,0,24.033-10.781,24.033-24.033
			C512,177.912,501.22,167.13,487.967,167.13z M27.058,199.522h-3.025c-4.609,0-8.359-3.75-8.359-8.359
			c0-4.609,3.75-8.359,8.359-8.359h3.025C26.603,188.368,26.603,193.958,27.058,199.522z M189.478,252.118
			c-33.609,33.611-88.299,33.61-121.91,0c-33.611-33.611-33.611-88.3,0-121.911C84.374,113.4,106.445,105,128.522,105
			c22.072,0,44.152,8.404,60.955,25.207C223.089,163.818,223.089,218.507,189.478,252.118z M444.429,252.118
			c-16.282,16.282-37.93,25.249-60.955,25.249c-23.026,0-44.675-8.966-60.955-25.249c-33.611-33.611-33.611-88.3,0-121.911
			c16.281-16.282,37.929-25.249,60.955-25.249c23.025,0,44.674,8.967,60.955,25.249
			C478.039,163.818,478.039,218.507,444.429,252.118z M487.967,199.522h-3.029c0.455-5.564,0.455-11.154,0-16.718h3.029
			c4.609,0,8.359,3.75,8.359,8.359C496.327,195.772,492.576,199.522,487.967,199.522z"/>
	</g>
</g>
</svg>
