<svg id="visual" viewBox="0 0 900 600" width="900" height="600" xmlns="http://www.w3.org/2000/svg" xmlns:xlink="http://www.w3.org/1999/xlink" version="1.1"><path d="M0 288L15 291.8C30 295.7 60 303.3 90 304.3C120 305.3 150 299.7 180 292.3C210 285 240 276 270 272.3C300 268.7 330 270.3 360 269.3C390 268.3 420 264.7 450 274.5C480 284.3 510 307.7 540 316.8C570 326 600 321 630 314.7C660 308.3 690 300.7 720 290C750 279.3 780 265.7 810 263.3C840 261 870 270 885 274.5L900 279L900 0L885 0C870 0 840 0 810 0C780 0 750 0 720 0C690 0 660 0 630 0C600 0 570 0 540 0C510 0 480 0 450 0C420 0 390 0 360 0C330 0 300 0 270 0C240 0 210 0 180 0C150 0 120 0 90 0C60 0 30 0 15 0L0 0Z" fill="#6e046f"></path><path d="M0 272L15 262.5C30 253 60 234 90 235.7C120 237.3 150 259.7 180 266.5C210 273.3 240 264.7 270 255.5C300 246.3 330 236.7 360 241.2C390 245.7 420 264.3 450 267.5C480 270.7 510 258.3 540 251C570 243.7 600 241.3 630 239.7C660 238 690 237 720 244.7C750 252.3 780 268.7 810 276.3C840 284 870 283 885 282.5L900 282L900 0L885 0C870 0 840 0 810 0C780 0 750 0 720 0C690 0 660 0 630 0C600 0 570 0 540 0C510 0 480 0 450 0C420 0 390 0 360 0C330 0 300 0 270 0C240 0 210 0 180 0C150 0 120 0 90 0C60 0 30 0 15 0L0 0Z" fill="#78067a"></path><path d="M0 179L15 181.8C30 184.7 60 190.3 90 192C120 193.7 150 191.3 180 196.2C210 201 240 213 270 211.7C300 210.3 330 195.7 360 190.8C390 186 420 191 450 199.2C480 207.3 510 218.7 540 224.3C570 230 600 230 630 224.7C660 219.3 690 208.7 720 199.8C750 191 780 184 810 186.8C840 189.7 870 202.3 885 208.7L900 215L900 0L885 0C870 0 840 0 810 0C780 0 750 0 720 0C690 0 660 0 630 0C600 0 570 0 540 0C510 0 480 0 450 0C420 0 390 0 360 0C330 0 300 0 270 0C240 0 210 0 180 0C150 0 120 0 90 0C60 0 30 0 15 0L0 0Z" fill="#830985"></path><path d="M0 126L15 128.5C30 131 60 136 90 145C120 154 150 167 180 171.7C210 176.3 240 172.7 270 172.2C300 171.7 330 174.3 360 168.3C390 162.3 420 147.7 450 145.7C480 143.7 510 154.3 540 154C570 153.7 600 142.3 630 145.5C660 148.7 690 166.3 720 167.8C750 169.3 780 154.7 810 149C840 143.3 870 146.7 885 148.3L900 150L900 0L885 0C870 0 840 0 810 0C780 0 750 0 720 0C690 0 660 0 630 0C600 0 570 0 540 0C510 0 480 0 450 0C420 0 390 0 360 0C330 0 300 0 270 0C240 0 210 0 180 0C150 0 120 0 90 0C60 0 30 0 15 0L0 0Z" fill="#8d0d91"></path><path d="M0 112L15 110.3C30 108.7 60 105.3 90 102.7C120 100 150 98 180 96.8C210 95.7 240 95.3 270 101.2C300 107 330 119 360 121.5C390 124 420 117 450 113.3C480 109.7 510 109.3 540 113.3C570 117.3 600 125.7 630 126.5C660 127.3 690 120.7 720 114.3C750 108 780 102 810 104C840 106 870 116 885 121L900 126L900 0L885 0C870 0 840 0 810 0C780 0 750 0 720 0C690 0 660 0 630 0C600 0 570 0 540 0C510 0 480 0 450 0C420 0 390 0 360 0C330 0 300 0 270 0C240 0 210 0 180 0C150 0 120 0 90 0C60 0 30 0 15 0L0 0Z" fill="#98109c"></path><path d="M0 60L15 61.8C30 63.7 60 67.3 90 70.3C120 73.3 150 75.7 180 77.5C210 79.3 240 80.7 270 79C300 77.3 330 72.7 360 71C390 69.3 420 70.7 450 72.2C480 73.7 510 75.3 540 75.3C570 75.3 600 73.7 630 71.5C660 69.3 690 66.7 720 63.7C750 60.7 780 57.3 810 57.8C840 58.3 870 62.7 885 64.8L900 67L900 0L885 0C870 0 840 0 810 0C780 0 750 0 720 0C690 0 660 0 630 0C600 0 570 0 540 0C510 0 480 0 450 0C420 0 390 0 360 0C330 0 300 0 270 0C240 0 210 0 180 0C150 0 120 0 90 0C60 0 30 0 15 0L0 0Z" fill="#a313a8"></path></svg>