<svg class="prefix__variation-svg prefix__fade-enter-done" viewBox="-77.66 124.08 730.32 324.58" xmlns="http://www.w3.org/2000/svg" xmlns:xlink="http://www.w3.org/1999/xlink"><image height="122.281" width="230" y="194.08" x="172.506" preserveAspectRatio="xMinYMin" href="https://fiverr-res.cloudinary.com/image/upload/f_png,q_auto,t_makers_project_variation_preview/v1/secured-attachments/makers_project_variation/preview_file/0f75c321c3b3087551b2fa6c6500e87f-1619051353/5f23159e696f6c00120f1818.svg?__cld_token__=exp=1673293063~hmac=4a30cfe3440831c13c83def3ffb2518a153e476ac6de27f47cb2970a3230a2f4" style="position:absolute"/><svg data-layer-type="text" y="345.54" viewBox=".18 11.87 590.32 33.12" x="-7.66" height="33.12" width="590.32" style="position:absolute"><path d="M16.84 44.53h-5.98V17.39H.18v-5.06h27.33v5.06H16.84v27.14zm45.81 0v-32.2h5.98v32.2h-5.98zM46 12.33v32.2h-5.98v-32.2H46zm17.11 13.29v5.11H45.49v-5.11h17.62zm27.69 5.02v-4.93h16v4.93h-16zm.46-13.3v22.17h18.17v5.02H85.28v-32.2h23.5v5.01H91.26zm38.54 27.19h-5.7v-32.2h4.92l14.07 23.5h-2.57l13.84-23.5h4.93l.04 32.2h-5.66l-.04-23.32h1.19l-11.77 19.64h-2.67l-11.96-19.64h1.38v23.32zm51.75-13.89v-4.93h16v4.93h-16zm.46-13.3v22.17h18.17v5.02h-24.15v-32.2h23.5v5.01h-17.52zm55.65 27.19h-22.81v-32.2h5.98v27.14h16.83v5.06zm35.56 0H250.4v-32.2h5.98v27.14h16.84v5.06zm27.22.46q-3.77 0-6.94-1.24-3.18-1.25-5.52-3.48-2.35-2.23-3.64-5.24-1.28-3.01-1.28-6.6t1.28-6.6q1.29-3.02 3.64-5.25 2.34-2.23 5.52-3.47 3.17-1.24 6.9-1.24 3.77 0 6.92 1.24t5.5 3.47q2.34 2.23 3.63 5.25 1.29 3.01 1.29 6.6t-1.29 6.62q-1.29 3.04-3.63 5.25-2.35 2.2-5.5 3.45-3.15 1.24-6.88 1.24zm-.04-5.25q2.44 0 4.51-.82 2.07-.83 3.58-2.37 1.52-1.54 2.37-3.59.85-2.05.85-4.53 0-2.49-.85-4.53-.85-2.05-2.37-3.59-1.51-1.54-3.58-2.37-2.07-.83-4.51-.83t-4.49.83q-2.04.83-3.59 2.37-1.54 1.54-2.39 3.59-.85 2.04-.85 4.53 0 2.44.85 4.51t2.37 3.61q1.52 1.54 3.59 2.37 2.07.82 4.51.82zm44.66 4.79h-6.39l-10.68-32.2h6.21l9.53 29.12h-3.09l9.89-29.12h5.52l9.62 29.12h-2.99l9.75-29.12h5.7l-10.67 32.2h-6.35l-8.78-26.27h1.65l-8.92 26.27zm60.53.46q-3.68 0-6.83-1.22t-5.47-3.45q-2.33-2.23-3.61-5.27-1.29-3.03-1.29-6.62 0-3.59 1.29-6.63 1.28-3.03 3.63-5.26 2.35-2.23 5.47-3.45 3.13-1.22 6.86-1.22 3.95 0 7.22 1.35 3.27 1.36 5.52 4.03l-3.86 3.63q-1.75-1.88-3.91-2.83-2.17-.94-4.7-.94-2.53 0-4.62.83-2.09.83-3.63 2.35-1.54 1.51-2.39 3.58-.86 2.07-.86 4.56 0 2.48.86 4.55.85 2.07 2.39 3.59t3.63 2.35q2.09.82 4.62.82 2.53 0 4.7-.94 2.16-.94 3.91-2.87l3.86 3.68q-2.25 2.62-5.52 4-3.27 1.38-7.27 1.38zm40.94 0q-3.77 0-6.95-1.24-3.17-1.25-5.52-3.48-2.34-2.23-3.63-5.24-1.29-3.01-1.29-6.6t1.29-6.6q1.29-3.02 3.63-5.25 2.35-2.23 5.52-3.47 3.18-1.24 6.9-1.24 3.77 0 6.93 1.24 3.15 1.24 5.49 3.47 2.35 2.23 3.64 5.25 1.28 3.01 1.28 6.6t-1.28 6.62q-1.29 3.04-3.64 5.25-2.34 2.2-5.49 3.45-3.16 1.24-6.88 1.24zm-.05-5.25q2.44 0 4.51-.82 2.07-.83 3.59-2.37t2.37-3.59q.85-2.05.85-4.53 0-2.49-.85-4.53-.85-2.05-2.37-3.59t-3.59-2.37q-2.07-.83-4.51-.83t-4.48.83q-2.05.83-3.59 2.37t-2.39 3.59q-.85 2.04-.85 4.53 0 2.44.85 4.51t2.37 3.61q1.51 1.54 3.58 2.37 2.07.82 4.51.82zm45.77 4.79h-14.08v-32.2h14.08q5.24 0 9.2 2.02 3.95 2.03 6.16 5.61 2.21 3.59 2.21 8.47 0 4.83-2.21 8.44-2.21 3.61-6.16 5.63-3.96 2.03-9.2 2.03zm-8.1-27.14v22.08h7.82q3.64 0 6.28-1.38 2.65-1.38 4.1-3.87 1.44-2.48 1.44-5.79 0-3.36-1.44-5.82-1.45-2.46-4.1-3.84-2.64-1.38-6.28-1.38h-7.82zm45.54 13.25v-4.93h16.01v4.93h-16.01zm.46-13.3v22.17h18.17v5.02h-24.15v-32.2h23.5v5.01h-17.52zm38.82 27.19h-5.98v-32.2h13.25q4.27 0 7.33 1.38 3.06 1.38 4.72 3.95 1.65 2.58 1.65 6.12t-1.65 6.1q-1.66 2.55-4.72 3.91-3.06 1.35-7.33 1.35h-9.94l2.67-2.71v12.1zm21.53 0h-6.44l-8.15-11.69h6.4l8.19 11.69zm-21.53-30.09v18.63l-2.67-2.85h9.66q3.96 0 5.96-1.7t2-4.74q0-3.08-2-4.74-2-1.65-5.96-1.65h-9.66l2.67-2.95z" data-horizontal-grow="center" font-size="46" font-weight="600" font-family="Montserrat" dominant-baseline="hanging" letter-spacing="8"/></svg></svg>