<svg class="prefix__variation-svg prefix__fade-enter-done" viewBox="52.765 79 494.863 399.823" xmlns="http://www.w3.org/2000/svg" xmlns:xlink="http://www.w3.org/1999/xlink"><image height="184.656" width="230" y="195.176" x="185.19" preserveAspectRatio="xMinYMin" href="https://fiverr-res.cloudinary.com/image/upload/f_png,q_auto,t_makers_project_variation_preview/v1/secured-attachments/makers_project_variation/preview_file/547a06fd36deaef3a18ca8dc96626d19-1634983535/60add60bad3233000e97696c.svg?__cld_token__=exp=1673292273~hmac=a08f7daf335a246bee4912f9d525e775db1663af0b6400acfafae95db1f9ab7f" style="position:absolute"/><svg data-layer-type="text" y="354" viewBox="-113.51 -54.753 221.992 54.823" x="191.009" height="54.823" width="221.992" style="position:absolute"><g data-horizontal-grow="center" style="text-transform:uppercase;--darkreader-inline-fill:#b4ada3" fill="#aeabaa" font-size="18" font-weight="400" font-family="Francois One" dominant-baseline="hanging" letter-spacing=".278em"><path d="M-111.771-43.184l-1.74-1.58 11.076-7.96 2.89 2.41-6.847 11.872-2.205-1.856 1.588-2.475-2.382-2.166-2.38 1.755zm9.281-7.13l-5.086 4.106 1.665 1.514 3.421-5.62zM-86.866-23.82q-1.97-1.226-1.658-3.505.308-2.294 1.936-4.908.872-1.401 2.045-2.473 1.174-1.072 2.526-1.408 1.343-.342 2.6.44.959.597 1.32 1.646.351 1.043.144 2.246-.2 1.194-.85 2.238l-2.238-1.25q.428-.688.743-1.706.32-1.025-.367-1.453-.713-.444-1.707.528-.985.977-1.983 2.581-1.237 1.987-1.676 3.374-.445 1.396.421 1.935.611.38 1.329-.186.712-.558 1.439-1.554l1.794 1.375q-.687 1.104-1.642 1.805-.952.716-2.036.83-1.087.1-2.14-.555zM-69.368-14.633l.466-6.592-.92-.44-2.504 5.244-2.468-.935 5.816-12.183 2.935 1.28q2.103 1.003 2.885 2.407.785 1.395-.037 3.118-.543 1.137-1.334 1.657-.8.516-1.873.602l-.183 3.17-.144 3.157-2.639-.485zm.386-8.791l.812.387q.839.401 1.49.29.646-.123 1.112-1.097.72-1.508-.779-2.223l-1.119-.534-1.516 3.177zM-51.778-7.887l-6.409-2.244 4.46-12.742 6.475 2.267-.905 1.919-3.765-1.318-1.064 3.039 2.68.938-.769 2.136-2.661-.932-1.253 3.577 4.106 1.438-.895 1.922zM-41.099-4.715l-2.288-.534 5.793-12.347 3.698.697-.195 13.704-2.83-.547.181-2.935-3.136-.731-1.223 2.693zm4.63-10.75l-2.44 6.065 2.192.51.249-6.575zM-20.533-1.128l-2.628-.1 1.395-11.415-2.74-.334.454-2.07 7.862.96-.474 2.068-2.502-.306-1.367 11.197zM-6.3-.15l-2.656.135.43-13.383 2.656-.135L-6.3-.15zM8.69-.385l-2.894.177-4.002-13.17 3.127-.302 2.346 9.194 1.304-9.307 2.529-.265L8.69-.385zM27.818-2.788l-6.695 1.132-2.253-13.31 6.764-1.145.135 2.117-3.934.666.537 3.175 2.8-.474.36 2.241-2.78.47.632 3.738 4.289-.726.145 2.116zM51.626-9.19q-1.534.551-2.905.077-1.362-.478-2.378-1.739l1.757-1.736.319.268q.794.671 1.414.98.625.317 1.302.074.442-.16.639-.708.186-.545.004-1.053-.173-.48-.547-.781-.374-.302-.838-.411l-2.685-.523q-1.165-.198-2.037-.82-.871-.622-1.243-1.657-.396-1.101-.19-2.153.201-1.04.923-1.84.716-.789 1.836-1.19 1.308-.47 2.45-.159 1.147.322 2.045 1.433l-1.76 1.695q-.113-.108-.508-.497-.39-.402-.774-.498-.398-.101-.85.06-.564.204-.728.666-.172.466.027 1.021.146.405.5.65.347.257.73.321l2.485.468q2.732.475 3.608 2.53.432 1.204.227 2.319t-.945 1.955q-.74.839-1.878 1.248zM68.301-16.649l-2.262 1.34-5.012-10.35-2.484 1.203-.74-1.987 7.129-3.451.721 1.994-2.268 1.099 4.916 10.152zM82.228-24.017q-1.942 1.213-3.774.034-1.824-1.184-3.482-3.839-1.763-2.824-1.877-4.876-.113-2.05 1.744-3.21 3.563-2.225 7.196 3.594 1.626 2.604 1.9 4.838.278 2.22-1.707 3.459zm-1.097-1.814q.814-.509.407-1.728-.4-1.225-1.745-3.38-1.08-1.73-2.044-2.707-.964-.978-1.787-.464-.823.513-.364 1.795.463 1.29 1.538 3.012 1.356 2.172 2.273 3.073.916.902 1.722.399zM94.015-31.893l-8.442-10.675 1.325-1.049q1.6-1.265 2.647-1.876 1.055-.617 2.33-.504 1.274.127 2.477 1.65 1.092 1.38 1.045 2.577-.048 1.198-.776 2.13-.72.928-1.89 1.852l3.226 4.078-1.942 1.817zm-2.603-7.58l.353-.28q.824-.65 1.028-1.36.197-.717-.516-1.62-.701-.885-1.38-.858-.682.041-1.63.792l-.299.236 2.444 3.09zM108.33-44.818l-1.676 1.894-1.824-1.923 1.828-1.734 1.672 1.763z"/></g></svg><svg data-layer-type="text" y="149" viewBox="-177.319 -24.392 354.863 70.381" x="122.765" height="70.381" width="354.863" style="position:absolute"><g data-horizontal-grow="center" style="text-transform:uppercase;--darkreader-inline-fill:#f26739" fill="#f15a29" font-size="32" font-weight="900" font-family="Noto Sans JP" dominant-baseline="hanging"><path d="M-159.994 42.826l4.989-2.818-9.38-16.604 5.624-3.177-2.346-4.153-16.212 9.159 2.347 4.153 5.598-3.163zM-143.872 33.984l5.194-2.419-4.132-8.875 7.108-3.31 4.132 8.876 5.167-2.406-10.062-21.612-5.168 2.406 3.837 8.24-7.107 3.31-3.837-8.241-5.195 2.418zM-118.965 22.982l14.48-5.414-1.68-4.496-9.114 3.407-1.772-4.74 7.465-2.79-1.68-4.496-7.466 2.79-1.544-4.13 8.786-3.285-1.67-4.468-14.154 5.292zM-97.529 15.012l4.929-1.386-2.209-7.856c-.641-2.281-2.036-5.577-2.939-7.754l.116-.032 3.391 4.967 5.474 7.499 3.013-.848.726-9.241.373-6.026.154-.043c.325 2.339.853 5.878 1.494 8.16l2.21 7.855 5.015-1.41-6.454-22.95-5.968 1.678-.726 10.904c-.06 1.45-.02 2.997-.091 4.513l-.154.043c-.823-1.264-1.605-2.603-2.44-3.801l-6.418-8.895-5.95 1.673zM-67.796 7.252l15.18-2.927-.909-4.713-9.554 1.842-.957-4.969 7.825-1.508-.908-4.714-7.826 1.51-.835-4.331 9.21-1.776-.902-4.684-14.837 2.86zM-45.809 3.305l14.898-1.83-.585-4.764-9.211 1.131-2.322-18.898-5.687.7zM-24.754.98L-9.77.106l-.28-4.792-9.264.54-1.108-19.007-5.72.333zM5.187.492C11.677.597 16.172-4 16.298-11.809c.126-7.78-4.221-12.3-10.71-12.406-6.5-.105-10.99 4.243-11.117 12.052C-5.656-4.354-1.312.387 5.187.492zm.08-4.93c-3.14-.05-5.011-3.02-4.937-7.63.075-4.61 2.039-7.298 5.178-7.247 3.13.05 5.036 2.802 4.96 7.411-.074 4.61-2.071 7.517-5.2 7.467zM25.613.864l7.026.789L35.863-8.42c.55-1.77 1.053-3.646 1.57-5.389l.13.015c.019 1.803.123 3.747.307 5.599l.97 10.544 7.155.803 6.764-23.23-5.377-.604-2.773 10.637c-.553 2.413-1.153 4.892-1.727 7.404l-.159-.018c-.191-2.598-.323-5.189-.53-7.657l-1.23-11.086-4.8-.54-3.638 10.54a341.428 341.428 0 00-2.234 7.348l-.129-.015c-.032-2.58-.073-5.09-.112-7.61l-.287-10.98-5.784-.65zM65.807 7.051c3.05.613 5.882-.032 8.321-1.918L71.884 1.02c-1.338.976-2.998 1.621-4.88 1.243-3.294-.662-4.89-3.788-3.956-8.435.914-4.549 3.937-6.746 6.946-6.142 1.667.335 2.731 1.335 3.712 2.644l3.641-2.992c-1.279-1.96-3.436-3.862-6.485-4.475-5.922-1.19-12.034 2.222-13.596 9.997-1.59 7.912 2.61 12.999 8.541 14.191zM87.32 12.605c6.243 1.772 11.77-1.513 13.903-9.026 2.125-7.484-.912-12.972-7.155-14.745-6.253-1.775-11.712 1.27-13.845 8.783-2.133 7.513.844 13.213 7.096 14.988zm1.346-4.743c-3.02-.857-4.065-4.21-2.806-8.645 1.259-4.434 3.849-6.527 6.87-5.67 3.01.856 4.144 4.005 2.885 8.44-1.26 4.434-3.938 6.73-6.95 5.875zM104.701 17.268l6.709 2.53c6.493 2.45 12.304.645 15.23-7.111 2.926-7.757-.322-12.745-7.115-15.307l-6.41-2.418zm6.989-2.29l5.17-13.708.721.272c3.593 1.355 5.587 3.775 3.586 9.08-1.998 5.295-5.164 5.982-8.757 4.627zM128.661 26.712l14.013 6.531 2.028-4.35-8.82-4.111 2.138-4.586 7.224 3.367 2.028-4.35-7.224-3.368 1.863-3.997 8.502 3.963 2.015-4.324-13.695-6.383zM149.083 36.11l5 2.8 4.094-7.312 2.4 1.344-.265 9.456 5.584 3.127-.03-10.836c2.718.204 5.234-.954 6.94-4 2.814-5.025-.008-8.622-4.45-11.11l-7.625-4.27zm11.302-8.456l3.127-5.584 2.234 1.251c2.373 1.329 3.294 2.693 2.2 4.647-1.095 1.955-2.954 2.266-5.327.937z"/></g></svg></svg>