<svg class="prefix__variation-svg prefix__fade-enter-done" viewBox="31.791 54 511.419 434.012" xmlns="http://www.w3.org/2000/svg" xmlns:xlink="http://www.w3.org/1999/xlink"><image height="204.012" width="230" y="214" x="172.5" preserveAspectRatio="xMinYMin" href="https://fiverr-res.cloudinary.com/image/upload/f_png,q_auto,t_makers_project_variation_preview/v1/secured-attachments/makers_project_variation/preview_file/c09192dfad60ee3c3a0c5be44aa35fd8-1672063364/63a9a4aa4a61d73e93d7e6cb.svg?__cld_token__=exp=1673292855~hmac=ea4add510cd126e43a2b9e44a4f12a5ceecd8a3536b3b70d9ef7187694b1da2c" style="position:absolute"/><svg data-layer-type="text" y="182" viewBox="-.23 4.18 119.502 16.38" x="227.749" height="16.38" width="119.502" style="position:absolute"><path d="M.59 16.85H.5q-.37 0-.55-.07-.18-.08-.18-.22 0-.05.02-.13.03-.07.07-.14L5.35 4.46q.05-.1.15-.17.1-.06.25-.09.15-.02.33-.02h.53q.18 0 .33.02.15.03.25.09.1.07.12.17l3.02 11.85q.02.05.02.1v.08q0 .14-.16.25-.16.11-.63.11h-.15q-.27 0-.46-.06-.2-.07-.24-.23L6.3 6.88q-.07-.26-.09-.53-.02-.27-.02-.52h-.03q-.08.25-.17.52-.1.27-.21.53l-4.41 9.68q-.07.16-.29.23-.22.06-.49.06zm8.03-3.28H2.16v-1.33h6.46v1.33zm11.5 3.35q-1.9 0-2.87-.93-.96-.92-.96-2.78 0-1.42.32-2.52.33-1.1.94-1.85.61-.76 1.51-1.15.9-.4 2.05-.4.49 0 .95.08.46.08.83.21.37.12.59.27.23.14.23.25 0 .11-.06.27-.05.16-.12.33-.08.17-.17.28-.09.11-.16.11-.11 0-.4-.13-.3-.12-.77-.25-.47-.12-1.13-.12-.61 0-1.09.18-.48.18-.85.55-.37.36-.61.91t-.36 1.29q-.12.74-.12 1.66 0 1.26.58 1.85.58.59 1.84.59.64 0 1.17-.17.52-.17.85-.33.33-.16.41-.16.12 0 .2.16.08.16.14.37.05.21.05.35 0 .22-.42.47-.42.25-1.1.43-.67.18-1.47.18zm5.87-.07h-.07q-.36 0-.53-.11-.17-.11-.15-.27l.7-6.37q.05-.49.08-.91.03-.42.03-.71 0-.25-.01-.42-.01-.16-.01-.28 0-.11.11-.17.1-.07.28-.11.17-.05.34-.07.17-.01.29-.01.17 0 .27.15.09.15.13.47.04.31 0 .82.31-.51.71-.85.41-.34.93-.53t1.11-.19q.18 0 .31.05.13.06.19.18.06.11.06.35 0 .16-.04.35-.05.19-.12.34-.07.15-.15.25-.08.1-.17.1-.11 0-.33-.07-.21-.07-.59-.07-.49 0-.99.26-.51.26-.9.94l-.7 6.46q-.02.2-.22.31-.2.11-.56.11zm9.07.07q-1.99 0-2.99-.94-1-.93-1-2.79 0-1.2.28-2.27t.86-1.88q.59-.81 1.5-1.28.92-.47 2.2-.47.9 0 1.5.24.61.25.97.61.36.37.51.79.15.41.15.75 0 .94-.4 1.58-.41.64-1.11 1.02-.7.37-1.57.54-.86.16-1.78.16-.65 0-1.1-.06-.45-.07-.75-.14l.34-.63q-.04.22-.04.46-.01.24-.01.6 0 1.21.63 1.81.63.6 1.89.6.77 0 1.35-.21.57-.22.92-.42.35-.21.43-.21.12 0 .2.16.08.16.14.37.05.21.05.35 0 .25-.45.55-.45.3-1.17.5-.72.21-1.55.21zM34 11.68q.16 0 .56-.02.4-.01.89-.09.5-.09.96-.28.45-.2.76-.55.31-.35.31-.91t-.44-.9q-.45-.34-1.18-.34-.85 0-1.51.36-.65.36-1.07 1.04-.41.68-.56 1.64.33.03.64.04.32.01.64.01zm9.42 5.24q-.44 0-.96-.17t-.99-.59q-.47-.43-.76-1.19-.3-.77-.3-1.94 0-1.26.31-2.3.3-1.05.89-1.82.58-.77 1.39-1.2.81-.42 1.82-.42.56 0 1 .16.44.16.76.39.33.22.53.42.12-.39.22-.58.1-.19.23-.25.12-.07.36-.07h.1q.27 0 .37.13.1.12.07.43l-.71 6.97q-.03.37.09.57.11.2.38.2.25 0 .43-.06.17-.07.24-.07.03 0 .07.03.04.03.04.12v.08q0 .08-.02.22-.02.15-.06.35-.03.21-.24.35-.21.13-.44.19-.23.05-.4.05-.59 0-.95-.22-.36-.23-.52-.66-.16-.43-.15-1.06-.55 1.04-1.28 1.49-.73.45-1.52.45zm.34-1.31q.39 0 .88-.27t.96-.93q.48-.66.84-1.85l.27-2.35q.04-.26.06-.47.03-.22.07-.43-.17-.15-.45-.31-.29-.16-.7-.28-.4-.12-.94-.12-.7 0-1.23.37-.52.37-.86.98-.34.62-.51 1.39-.17.77-.17 1.58 0 1.03.24 1.62.24.58.65.82.4.25.89.25zm9.3 1.31q-.72 0-1.17-.26-.45-.26-.63-.76-.19-.49-.12-1.18l.63-6.03h-.92q-.34 0-.29-.54l.02-.21q.04-.29.13-.42.09-.12.27-.12h.97l.39-1.89q.04-.2.19-.3.16-.1.39-.1h.14q.36 0 .5.1.13.1.1.3l-.22 1.89h1.53q.36 0 .31.54l-.02.21q-.02.29-.12.42-.1.12-.29.12h-1.53l-.62 5.85q-.07.65.12.89.19.23.77.23.25 0 .42-.04.17-.03.3-.06.12-.03.19-.03.04 0 .08.03.03.03.03.12v.1q0 .08-.02.2-.01.13-.05.33-.04.23-.23.37-.2.13-.52.19-.31.05-.73.05zm5.33 0q-.43 0-.78-.2-.35-.2-.53-.65-.18-.45-.11-1.22l.7-7.09q.04-.22.23-.31t.53-.09h.07q.38 0 .54.1.16.1.14.3l-.7 7.13q-.03.41.07.59.09.18.36.18.26 0 .43-.06.17-.07.24-.07.04 0 .07.03.04.03.04.12v.08q0 .08-.02.22-.02.15-.05.35-.04.21-.25.35-.2.13-.47.19-.27.05-.51.05zm.18-10.82q-.43 0-.6-.11-.17-.1-.15-.28l.1-1.08q.02-.18.22-.29.2-.11.63-.11t.59.1q.17.1.15.3l-.11 1.08q-.02.18-.22.28-.19.11-.61.11zm6 10.75h-.63q-.27 0-.49-.07-.22-.08-.27-.31l-1.91-8.46q-.02-.05-.03-.17-.02-.12-.02-.17 0-.15.21-.23.22-.08.62-.08h.1q.27 0 .47.07.2.06.22.22l1.51 7.99h.07l3.21-7.99q.07-.16.28-.22.2-.07.49-.07h.18q.36 0 .5.07.15.06.15.18 0 .08-.03.15-.03.07-.06.16l-3.71 8.55q-.09.23-.34.31-.25.07-.52.07zm9.3.07q-2 0-2.99-.94-1-.93-1-2.79 0-1.2.28-2.27.27-1.07.86-1.88.58-.81 1.5-1.28t2.2-.47q.9 0 1.5.24.6.25.96.61.36.37.52.79.15.41.15.75 0 .94-.41 1.58-.4.64-1.1 1.02-.7.37-1.57.54-.86.16-1.78.16-.65 0-1.1-.06-.45-.07-.75-.14l.34-.63q-.04.22-.05.46-.01.24-.01.6 0 1.21.63 1.81.63.6 1.89.6.78 0 1.35-.21.58-.22.93-.42.35-.21.42-.21.13 0 .21.16.08.16.14.37.05.21.05.35 0 .25-.45.55-.45.3-1.17.5-.72.21-1.55.21zm-1.06-5.24q.16 0 .56-.02.39-.01.89-.09.49-.09.95-.28.46-.2.77-.55.3-.35.3-.91t-.44-.9q-.44-.34-1.18-.34-.84 0-1.5.36t-1.07 1.04q-.41.68-.56 1.64.33.03.64.04.32.01.64.01zM86 16.92q-.52 0-.98-.09-.46-.09-.8-.23-.34-.15-.54-.34-.2-.19-.2-.37 0-.21.04-.41.04-.2.1-.33.06-.14.15-.14.13 0 .39.16.26.15.69.3.43.15 1.06.15.83 0 1.39-.39.56-.4.56-1.06 0-.51-.23-.79-.22-.28-.59-.46t-.8-.32q-.38-.14-.79-.34-.4-.2-.74-.51-.34-.3-.55-.73-.21-.44-.21-1.03 0-.86.44-1.47.44-.6 1.18-.91.74-.32 1.6-.32.35 0 .74.05.4.04.75.15.35.11.57.26.23.15.23.37 0 .16-.12.37-.11.2-.26.37-.14.16-.25.16-.13 0-.5-.22-.36-.21-1.12-.21-.83 0-1.31.32-.47.32-.47.9 0 .45.27.74t.68.48q.42.18.83.36.41.17.8.36.39.2.7.48.32.28.51.69.19.42.19 1.03 0 .83-.43 1.5-.42.68-1.18 1.07-.75.4-1.8.4zm8 0q-.72 0-1.17-.26-.45-.26-.64-.76-.19-.49-.12-1.18l.63-6.03h-.92q-.34 0-.29-.54l.02-.21q.04-.29.13-.42.09-.12.27-.12h.97l.4-1.89q.03-.2.18-.3.16-.1.39-.1H94q.36 0 .49.1.14.1.1.3l-.22 1.89h1.53q.36 0 .31.54l-.02.21q-.02.29-.12.42-.09.12-.29.12h-1.53l-.61 5.85q-.08.65.11.89.19.23.77.23.25 0 .42-.04.17-.03.3-.06.12-.03.2-.03.03 0 .07.03.03.03.03.12v.1q0 .08-.01.2-.02.13-.06.33-.03.23-.23.37-.2.13-.52.19-.31.05-.72.05zm7.21 0q-1.87 0-2.89-1.06-1.01-1.06-1.01-2.99 0-.88.16-1.7t.49-1.53q.34-.71.88-1.23.54-.53 1.29-.82.76-.3 1.75-.3 1.82 0 2.81 1.07t.99 3.02q0 1.09-.19 1.99-.19.89-.57 1.55-.38.67-.92 1.11-.54.44-1.24.67-.7.22-1.55.22zm.09-1.3q.56 0 1.01-.17.45-.17.79-.5.35-.33.57-.84.23-.5.33-1.18.11-.67.11-1.52 0-1.38-.62-2.1-.62-.72-1.81-.72-.57 0-1.03.19-.46.18-.8.54-.33.35-.55.86-.23.51-.34 1.18-.1.66-.1 1.46 0 1.36.63 2.08t1.81.72zm6.65 4.94h-.08q-.36 0-.53-.11-.17-.11-.15-.27l1.04-10.08q.04-.33.07-.62.02-.3.03-.55.01-.25.01-.45 0-.25-.01-.42-.01-.16-.01-.28 0-.11.11-.17.11-.07.28-.11.17-.05.34-.07.17-.01.3-.01.25 0 .32.28.08.29.08.65 0 .42-.06.87-.05.45-.14.81l-.04-.33q.42-.88.94-1.4.52-.52 1.12-.77.61-.24 1.24-.24.46 0 1.02.17t1.06.59q.51.41.82 1.15.32.74.32 1.89 0 1.28-.32 2.34-.31 1.06-.91 1.84-.59.79-1.43 1.22-.83.43-1.86.43-.59 0-1.05-.16-.46-.16-.8-.39-.33-.22-.53-.4l-.43 4.19q-.03.4-.75.4zm3.47-4.94q.9 0 1.49-.37.6-.38.94-1.02.34-.64.48-1.42.13-.79.13-1.61 0-.99-.28-1.56-.28-.57-.74-.8-.47-.24-1.01-.24-.61 0-1.12.32-.5.31-.92.9-.41.58-.77 1.41l-.27 2.77q-.02.13-.05.36l-.08.45q.22.18.77.5.55.31 1.43.31zm6.91 1.23h-.25q-.76 0-.7-.4l.12-1.19q.02-.19.21-.29.19-.1.59-.1h.25q.41 0 .57.1.17.1.15.29l-.13 1.19q-.02.18-.2.29-.19.11-.61.11z" data-horizontal-grow="center" fill="#284389" font-size="18" font-weight="400" font-style="italic" font-family="Asap" dominant-baseline="hanging"/></svg><svg data-layer-type="text" y="124" viewBox="-186.536 -34.186 371.419 57.399" x="101.791" height="57.399" width="371.419" style="position:absolute"><g data-horizontal-grow="center" style="text-transform:capitalize;--darkreader-inline-fill:#85aedb" fill="#284389" font-size="48" font-weight="600" font-family="Cairo" dominant-baseline="hanging"><path d="M-164.66 19.767l-4.475 1.106-6.957-28.143-9.465 2.34-.98-3.96 23.3-5.76.978 3.96-9.358 2.314 6.957 28.143zM-145.362 15.358l-4.369.898-6.903-33.567 4.37-.898 2.3 11.185q.765-.545 1.848-1.135 1.084-.59 2.338-1.145 1.254-.554 2.43-.795 2.448-.504 4.156-.191 1.708.312 2.883 1.51 1.178 1.207 1.986 3.349.805 2.13 1.444 5.236l2.562 12.46-4.417.908-2.504-12.176q-.6-2.919-1.29-4.584-.682-1.677-1.81-2.251-1.12-.577-3.098-.17-1.078.222-2.195.646-1.108.421-2.064.935-.947.51-1.545.93l3.878 18.855zM-113.59 9.837q-3.651.604-5.976-.4-2.335-1.003-3.727-3.54-1.394-2.546-2.068-6.621-.736-4.45.064-7.4.798-2.96 2.866-4.609 2.058-1.658 5.235-2.183 4.873-.806 7.795 1.418 2.92 2.213 3.883 8.034l.257 3.028-15.342 2.537q.612 3.395 2.133 4.928 1.508 1.524 4.735.99 1.371-.226 2.997-.566 1.615-.348 3.209-.702 1.601-.366 2.721-.643l.637 3.3q-1.153.384-2.776.865-1.622.49-3.378.903-1.756.412-3.266.661zm-7.553-13.002l11.179-1.848q-.666-4.025-2.236-5.428-1.568-1.393-4.41-.923-1.844.305-3.01 1.227-1.165.923-1.563 2.62-.398 1.698.04 4.352zM-91.42 5.93l-4.432.508-2.732-23.895 4.43-.506.192 1.669q.71-.565 1.778-1.17 1.059-.604 2.31-1.11 1.25-.505 2.442-.641 2.335-.267 3.832.146 1.495.402 2.547 1.59.844-.63 2.14-1.351 1.295-.732 2.822-1.29 1.535-.568 3.055-.741 2.484-.284 4.158.178 1.663.465 2.737 1.76 1.066 1.308 1.677 3.483.61 2.175.982 5.423l1.44 12.588-4.392.503-1.406-12.3q-.339-2.961-.869-4.692-.539-1.72-1.605-2.423-1.076-.693-3.073-.464-1.153.132-2.288.503-1.145.372-2.105.865-.95.49-1.538.9.469 1.104.792 2.879.324 1.775.537 3.633l1.402 12.26-4.442.507-1.39-12.16q-.349-3.05-.861-4.804-.513-1.753-1.61-2.453-1.095-.69-3.042-.467-1.103.126-2.199.493-1.085.366-1.976.85-.89.484-1.468.893L-91.42 5.93zM-44.57 1.916q-3.693.236-5.906-.995-2.223-1.23-3.356-3.894-1.132-2.673-1.396-6.794-.288-4.501.802-7.357 1.09-2.865 3.312-4.3 2.213-1.444 5.426-1.65 4.93-.315 7.615 2.189 2.685 2.494 3.061 8.382l-.046 3.039-15.518.992q.27 3.44 1.63 5.117 1.35 1.667 4.613 1.458 1.387-.088 3.039-.264 1.641-.185 3.262-.38 1.63-.204 2.772-.367l.305 3.347q-1.186.267-2.849.583-1.662.327-3.451.562-1.789.235-3.316.332zm-6.217-13.69l11.307-.724q-.26-4.072-1.683-5.624-1.421-1.543-4.295-1.359-1.866.12-3.118.921-1.251.802-1.817 2.451-.566 1.65-.394 4.334zM-22.948.375l-4.417.16-1.239-34.248 4.417-.16 1.24 34.248zM-10.68.078L-15.1.16l-.635-34.264 4.42-.082.634 34.264zM6.959.515Q2.929.475.633-.919-1.653-2.312-2.585-5.15q-.931-2.84-.887-7.21.042-4.17 1.099-6.849 1.057-2.68 3.4-3.996 2.343-1.326 6.183-1.288 3.89.04 6.176 1.412 2.287 1.363 3.3 4.064 1.003 2.7.96 6.87-.043 4.37-1.012 7.19-.958 2.82-3.282 4.167Q11.04.556 6.96.515zm.038-3.79q2.54.026 3.849-.871 1.3-.907 1.76-2.893.45-1.985.48-5.155.032-3.12-.48-4.975-.51-1.845-1.792-2.678-1.292-.833-3.642-.857-2.31-.023-3.638.784-1.328.806-1.867 2.641-.548 1.845-.58 4.964-.031 3.17.379 5.165.41 1.994 1.67 2.926 1.271.923 3.861.95zM35.893.911l-7.038-.41-3.973-24.322 4.602.269 3.038 20.42.819.048 6.275-19.348 4.503.263 4.027 19.947.769.045 5.437-19.927 4.463.26-6.72 23.699-7.137-.416-3.523-17.945L35.893.911zM73.195 4.316q-3.86-.398-5.927-1.888Q65.2.938 64.586-1.981q-.614-2.908-.141-7.494.457-4.436 1.725-6.98 1.279-2.552 3.65-3.513 2.361-.963 5.992-.588.865.089 2.067.333 1.2.245 2.455.565 1.242.33 2.133.562l-.514 3.617q-.805-.184-1.89-.386-1.094-.214-2.091-.387-.988-.172-1.664-.242-2.577-.266-4.062.395-1.497.67-2.226 2.374-.73 1.714-1.04 4.718-.335 3.253-.037 5.234.297 1.991 1.604 2.97 1.296.979 4.012 1.259.676.07 1.709.096 1.032.036 2.165.062 1.134.017 1.945.05l-.225 3.646q-.97.041-2.26.079-1.28.039-2.537.03-1.245-.008-2.16-.103zM96.193 7.17q-3.99-.558-6.09-2.234Q88.017 3.26 87.458.325q-.56-2.936.045-7.264.577-4.13 1.97-6.651 1.392-2.522 3.885-3.526 2.494-1.015 6.297-.484 3.853.539 5.944 2.194 2.092 1.645 2.75 4.453.648 2.807.07 6.937-.604 4.328-1.926 7-1.313 2.675-3.79 3.712-2.468 1.038-6.509.474zm.525-3.754q2.515.352 3.929-.37 1.405-.732 2.116-2.642.701-1.912 1.14-5.051.432-3.09.163-4.996-.27-1.895-1.435-2.886-1.174-.992-3.501-1.317-2.288-.32-3.709.31-1.42.63-2.19 2.38-.781 1.758-1.213 4.848-.438 3.14-.288 5.17.15 2.03 1.281 3.117 1.142 1.079 3.707 1.437zM121.501 11.267q-1.456-.263-2.725-.837-1.26-.562-2.183-1.532-.92-.978-1.451-2.487-.541-1.51-.555-3.686-.026-2.17.512-5.151.749-4.153 2.241-6.74 1.483-2.588 3.908-3.583 2.427-1.006 6.068-.35.846.153 1.872.44 1.017.275 1.985.602.969.317 1.512.516l1.83-10.156 4.45.802-6.08 33.726-4.35-.784.223-1.525q-.786.306-2.023.57-1.246.264-2.62.331-1.384.066-2.614-.156zm1.497-3.683q1.132.204 2.31.152 1.19-.06 2.27-.251 1.081-.191 1.743-.367l2.7-14.978q-.495-.181-1.403-.446-.907-.265-1.856-.528-.946-.272-1.753-.418-2.224-.4-3.673.365-1.459.763-2.35 2.604-.889 1.831-1.4 4.666-.477 2.647-.392 4.319.093 1.683.61 2.7.528 1.02 1.363 1.517.837.486 1.831.665zM149.54 16.73q-3.613-.796-5.398-2.593-1.794-1.798-2.144-4.671-.347-2.882.542-6.916.971-4.404 2.81-6.845 1.841-2.451 4.375-3.213 2.526-.775 5.67-.081 4.824 1.064 6.71 4.214 1.888 3.14.618 8.901l-.887 2.908-15.185-3.349q-.695 3.38.147 5.368.834 1.976 4.027 2.68 1.358.3 2.994.588 1.628.278 3.24.54 1.623.256 2.765.416l-.636 3.3q-1.212-.072-2.898-.229-1.688-.147-3.472-.417-1.783-.27-3.277-.6zm-2.177-14.877l11.064 2.44q.88-3.985-.057-5.87-.938-1.876-3.75-2.497-1.826-.402-3.25.02-1.425.424-2.426 1.852-1.001 1.428-1.58 4.055zM170.736 20.956l-4.323-1.098 5.924-23.31 4.322 1.1-.768 3.023q.986-.389 2.472-.754 1.476-.368 3.196-.601 1.721-.234 3.324-.126l-1.101 4.333q-1.555-.096-3.243.011-1.691.117-3.167.362-1.475.244-2.427.497l-4.21 16.563z"/></g></svg></svg>