
<svg version="1.1" id="Layer_1" xmlns="http://www.w3.org/2000/svg" xmlns:xlink="http://www.w3.org/1999/xlink" x="0px" y="0px"
	 viewBox="0 0 512.003 512.003" style="enable-background:new 0 0 512.003 512.003;" xml:space="preserve" fill="white">
<g>
	<g>
		<path d="M507.894,82.93c-3.026-1.757-6.832-1.412-9.494,0.861c-4.446,3.797-9.227,7.176-14.261,10.105
			c6.528-12.903,10.533-26.958,11.756-41.632c0.286-3.428-1.71-6.812-4.853-8.212c-3.137-1.397-6.981-0.641-9.346,1.852
			c-11.091,11.686-24.912,20.433-40.117,25.425c-20.18-24.153-47.742-36.863-80.259-36.863
			c-62.747,0-113.796,51.049-113.796,113.796c0,2.532,0.086,5.081,0.256,7.628c-9.14,1.141-18.352,1.719-27.484,1.719
			c-35.834,0-71.404-8.792-102.864-25.426c-4.026-2.128-9.016-0.589-11.144,3.436c-2.129,4.026-0.59,9.016,3.436,11.144
			c33.826,17.885,72.062,27.338,110.573,27.338c12.576,0,25.293-1.018,37.8-3.025c4.43-0.71,7.479-4.833,6.861-9.278
			c-0.625-4.489-0.941-9.043-0.941-13.535c0-53.653,43.65-97.304,97.304-97.304c67.216,0,97.303,63.227,97.303,125.89
			c0,27.098-2.949,53.014-8.765,77.031c-1.044,4.312,1.634,8.785,5.921,9.915c4.407,1.161,9.037-1.611,10.109-6.034
			c6.123-25.287,9.229-52.509,9.229-80.913c0-6.867-0.334-13.627-0.97-20.251c19.537-16.767,32.928-39.838,37.711-64.995
			C512.508,88.162,510.921,84.687,507.894,82.93z M460.071,101.367c-2.53-5.655-5.363-11.03-8.489-16.089
			c8.241-3.13,16.088-7.215,23.377-12.157C471.634,83.24,466.613,92.746,460.071,101.367z M471.194,136.607
			c-1.209-6.004-2.706-11.835-4.454-17.481c7.634-2.201,15.038-5.201,22.055-8.948C484.426,119.849,478.476,128.798,471.194,136.607
			z"/>
	</g>
</g>
<g>
	<g>
		<path d="M450.628,281.161c-4.264-1.602-9.018,0.555-10.62,4.818C394.64,406.691,276.692,451.026,214.151,458.192
			c-69.043,7.911-135.966-1.377-181.383-24.365c43.734-7.357,85.472-24.457,121.904-50.092c5.211-3.667,4.304-11.904-1.571-14.355
			c-29.503-12.307-56.071-31.002-77.688-54.548h39.333c4.185,0,7.792-3.268,8.205-7.431c0.413-4.164-2.48-8.077-6.584-8.9
			c-0.769-0.154-72.251-15.344-93.5-88.427l35.72,16.074c3.529,1.59,7.81,0.441,10.071-2.698c2.332-3.236,1.971-7.813-0.844-10.641
			c-0.621-0.623-58.207-59.606-34.041-129.539c12.867,16.416,27.81,31.04,44.569,43.602c3.645,2.731,8.813,1.992,11.544-1.651
			c2.731-3.644,1.992-8.812-1.651-11.544C68.944,99.216,52.236,81.817,38.574,61.965c-3.513-5.107-11.483-4.509-14.202,1.053
			c-17.421,35.651-17.41,74.937,0.03,113.613c3.559,7.892,7.489,14.987,11.337,21.15l-21.212-9.546
			c-5.909-2.66-12.603,2.53-11.511,8.909c8.724,51.045,38.156,80.291,61.309,95.838c2.896,1.944,5.762,3.726,8.57,5.359H57.623
			c-6.729,0-10.65,8.012-6.497,13.325c21.97,28.102,50.067,50.939,81.887,66.679c-37.842,23.778-80.955,38.264-125.563,42.079
			c-7.464,0.638-10.201,10.565-4.088,14.928c38.276,27.324,96.471,42.188,161.569,42.186c16.649,0,33.765-0.974,51.098-2.96
			c43.234-4.953,90.51-22.386,129.707-47.828c51.04-33.128,88.977-79.8,109.711-134.967
			C457.048,287.517,454.89,282.763,450.628,281.161z"/>
	</g>
</g>
<g>
	<g>
		<path d="M361.318,87.241c-14.247,0-25.838,11.591-25.838,25.838c0,14.247,11.591,25.838,25.838,25.838
			s25.838-11.591,25.838-25.838C387.156,98.831,375.565,87.241,361.318,87.241z M361.318,122.424c-5.153,0-9.346-4.192-9.346-9.346
			c0-5.153,4.192-9.346,9.346-9.346s9.346,4.192,9.346,9.346C370.664,118.232,366.472,122.424,361.318,122.424z"/>
	</g>
</g>
<g>
</g>
<g>
</g>
<g>
</g>
<g>
</g>
<g>
</g>
<g>
</g>
<g>
</g>
<g>
</g>
<g>
</g>
<g>
</g>
<g>
</g>
<g>
</g>
<g>
</g>
<g>
</g>
<g>
</g>
</svg>
