
<svg version="1.1" id="Layer_1" xmlns="http://www.w3.org/2000/svg" xmlns:xlink="http://www.w3.org/1999/xlink" x="0px" y="0px"
	 viewBox="0 0 502 502" style="enable-background:new 0 0 502 502;" xml:space="preserve" fill="white">
<g>
	<g>
		<g>
			<path d="M497,0H5C2.238,0,0,2.239,0,5v492c0,2.761,2.238,5,5,5h492c2.762,0,5-2.239,5-5V5C502,2.239,499.762,0,497,0z M492,492
				H10V10h482V492z"/>
			<path d="M72.645,449.393c11.473,10.445,26.786,16.367,43.114,16.678c44.87,0.855,90.054,1.283,135.239,1.283
				c45.185,0,90.368-0.428,135.237-1.283c16.332-0.311,31.646-6.234,43.121-16.678c11.632-10.586,18.037-24.618,18.037-39.512
				v-56.689c0-2.761-2.238-5-5-5c-2.762,0-5,2.239-5,5v56.689c0,24.932-23.035,45.653-51.349,46.192
				c-89.607,1.708-180.48,1.708-270.094,0c-28.31-0.539-51.341-21.26-51.341-46.192V284.625c0-24.925,23.031-45.64,51.342-46.179
				c89.613-1.708,180.486-1.708,270.094,0c16.384,0.312,31.373,7.165,41.125,18.802c6.688,7.98,10.223,17.446,10.223,27.376
				c0,2.761,2.238,5,5,5c2.762,0,5-2.239,5-5c0-12.308-4.343-23.996-12.559-33.799c-11.61-13.854-29.324-22.01-48.599-22.377
				c-89.734-1.711-180.736-1.711-270.475,0c-16.328,0.311-31.64,6.233-43.115,16.676c-11.631,10.584-18.036,24.613-18.036,39.501
				v125.256C54.609,424.774,61.014,438.807,72.645,449.393z"/>
			<path d="M123.057,435.083h25.074c2.762,0,5-2.239,5-5V293.312h21.003c2.762,0,5-2.239,5-5v-23.657c0-2.761-2.238-5-5-5H97.107
				c-2.762,0-5,2.239-5,5v23.709c0,2.761,2.238,5,5,5h20.95v136.719C118.057,432.844,120.295,435.083,123.057,435.083z
				 M102.107,283.364v-13.709h67.027v13.657h-21.003c-2.762,0-5,2.239-5,5v136.771h-15.074V288.364c0-2.761-2.238-5-5-5H102.107z"/>
			<path d="M215.647,435.094h22.195c2.762,0,5-2.239,5-5V307.907c0-1.329-0.529-2.602-1.469-3.54
				c-0.937-0.935-2.207-1.46-3.531-1.46c-0.004,0-0.008,0-0.012,0l-22.209,0.053c-2.757,0.006-4.988,2.243-4.988,5v83.514
				c-2.492,3.028-5.009,4.939-7.864,5.98c-0.771,0.463-1.161,0.248-1.17-0.646c-0.219-1.074-0.237-2.345-0.237-3.897
				c-0.01-22.761-0.087-84.001-0.147-85.091c-0.144-2.651-2.337-4.727-4.992-4.727h-22.141c-2.762,0-5,2.239-5,5v1.019
				c-0.006,20.293-0.021,87.601,0.025,101.741c0.011,3.77,0.308,9.41,2.731,14.822c2.705,6.081,7.48,9.85,13.781,10.896
				c1.386,0.239,2.783,0.358,4.187,0.358c2.876,0,5.785-0.499,8.693-1.498c4.307-1.486,8.285-3.713,12.148-6.835v1.498
				C210.647,432.855,212.885,435.094,215.647,435.094z M210.23,415.129c-4.949,5.581-9.714,9.029-14.985,10.848
				c-2.751,0.943-5.345,1.185-7.959,0.735c-3.019-0.502-4.966-2.074-6.317-5.111c-1.274-2.846-1.848-6.17-1.863-10.778
				c-0.043-13.306-0.033-73.801-0.026-97.728v-0.001h12.167c0.042,13.907,0.102,54.312,0.114,79.821c0,1.582,0,3.748,0.439,5.893
				c0.689,3.396,2.536,6.087,5.199,7.577c2.668,1.492,5.935,1.656,9.196,0.465c4.874-1.777,9.114-5.058,12.911-9.962
				c1.525-1.902,1.525-4.162,1.525-5.375V312.95l12.209-0.029v112.175h-12.195v-8.45c0-2.051-1.253-3.895-3.16-4.649
				c-1.906-0.755-4.081-0.268-5.485,1.227l-0.583,0.619C210.903,414.387,210.545,414.768,210.23,415.129z"/>
			<path d="M282.32,259.641h-22.243c-2.762,0-5,2.239-5,5v165.428c0,2.761,2.238,5,5,5h22.243c2.15,0,3.983-1.358,4.689-3.262
				c4.845,3.206,10.313,4.851,16.335,4.903c0.119,0.002,0.238,0.002,0.356,0.002c11.448,0,19.729-5.955,23.337-16.8
				c0.001-0.002,0.001-0.003,0.002-0.005c1.407-4.244,2.07-8.791,2.088-14.32c0.027-24.993,0.023-47.687-0.014-69.37
				c0-8.295-1.274-14.874-4.01-20.707c-5.211-11.092-16.512-16.274-28.805-13.201c-3.176,0.804-6.176,2.162-8.978,4.061v-41.729
				C287.32,261.88,285.082,259.641,282.32,259.641z M288.436,318.631c3.128-3.495,6.501-5.663,10.299-6.624
				c5.915-1.479,13.569-0.217,17.313,7.752c2.089,4.454,3.062,9.684,3.062,16.466c0.037,21.683,0.041,44.367,0.014,69.341
				c-0.014,4.425-0.515,7.981-1.578,11.189c-2.253,6.776-6.873,10.008-14.105,9.955c-5.983-0.052-10.988-2.35-15.325-7.054
				l-2.153-2.294c-0.964-1.026-2.291-1.576-3.645-1.576c-0.618,0-1.243,0.114-1.842,0.351c-1.906,0.754-3.158,2.597-3.158,4.648
				v4.283h-12.243V269.64h12.243v49.452c0,2.32,1.595,4.335,3.854,4.867c2.261,0.53,4.586-0.561,5.62-2.637
				C287.183,320.54,287.998,319.126,288.436,318.631z"/>
			<path d="M406.86,376.87c2.739,0,4.968-2.203,5-4.942c0.009-0.872,0.243-21.483,0.065-31.098c-0.081-5.05-0.516-9.392-1.33-13.279
				c-2.728-12.922-10.224-21.743-21.67-25.505c-3.27-1.082-6.947-1.754-10.911-1.997c-12.987-0.835-23.68,3.313-31.737,12.335
				c-6.739,7.53-10.023,16.948-10.041,28.787l-0.02,8.24c-0.039,15.132-0.079,30.78,0.074,46.186
				c0.06,5.164,0.649,10.175,1.753,14.898c2.775,11.856,9.38,20.212,19.623,24.833c4.756,2.154,9.845,3.212,15.633,3.212
				c2.632,0,5.408-0.219,8.363-0.651c13.817-2.029,23.069-9.629,27.497-22.589c3.091-9.026,2.862-26.696,2.826-28.681
				c-0.05-2.725-2.273-4.909-4.999-4.909h-22.88c-2.762,0-5,2.239-5,5v15.69c0,2.713-2.202,4.921-4.909,4.921
				c-2.714,0-4.922-2.207-4.922-4.921v-25.53H406.86z M374.195,417.32c8.221,0,14.909-6.693,14.909-14.921v-10.69h12.866
				c-0.121,6.337-0.648,15.607-2.274,20.352c-0.001,0.001-0.002,0.003-0.002,0.004c-3.207,9.386-9.399,14.447-19.486,15.929
				c-7.474,1.096-13.324,0.533-18.424-1.778c-7.367-3.324-11.948-9.212-14.005-17.999c-0.938-4.013-1.439-8.298-1.49-12.727
				c-0.153-15.336-0.113-30.952-0.074-46.054l0.02-8.248c0.014-9.406,2.394-16.44,7.496-22.14
				c5.459-6.112,12.363-9.105,21.058-9.105c0.849,0,1.715,0.028,2.597,0.085c3.12,0.191,5.945,0.699,8.406,1.513
				c8.101,2.662,13.013,8.574,15.016,18.066c0.68,3.251,1.047,6.975,1.118,11.394c0.123,6.639,0.042,18.992-0.019,25.868h-37.634
				c-2.762,0-5,2.239-5,5v30.53C359.273,410.626,365.967,417.32,374.195,417.32z"/>
			<path d="M364.274,357.943h19.831c2.762,0,5-2.238,5-5v-17.138c0-8.227-6.688-14.921-14.909-14.921
				c-8.228,0-14.922,6.693-14.922,14.921v17.138C359.274,355.704,361.512,357.943,364.274,357.943z M369.274,335.805
				c0-2.713,2.208-4.921,4.922-4.921c2.707,0,4.909,2.207,4.909,4.921v12.138h-9.831V335.805z"/>
			<path d="M277.615,339.225c-0.187,0.535-0.284,1.098-0.283,1.665l0.054,56.856v1.807c0,1.07,0.343,2.112,0.979,2.972
				c0.751,1.015,0.877,1.16,0.988,1.286c0.026,0.03,0.054,0.06,0.081,0.09c3.161,3.428,6.572,5.484,10.443,6.288
				c1.178,0.24,2.321,0.357,3.42,0.357c6.266,0,11.071-3.805,12.406-10.163c0.346-1.622,0.521-3.217,0.521-4.736l0.015-10.346
				c0.02-13.801,0.031-20.728-0.062-38.686c-0.017-3.373-1.044-6.657-1.901-8.819c-0.116-0.292-0.257-0.568-0.42-0.826
				c-1.926-3.896-5.587-6.28-10.413-6.75c-4.625-0.455-8.847,1.066-12.876,4.625C278.678,336.492,277.83,338.614,277.615,339.225z
				 M292.473,340.173c2.015,0.197,2.341,1.01,2.517,1.447c0.069,0.172,0.146,0.338,0.232,0.498c0.612,1.693,0.95,3.289,0.956,4.549
				c0.093,17.924,0.083,24.84,0.062,38.619l-0.015,10.355c0,0.825-0.102,1.719-0.305,2.672c-0.259,1.241-0.583,2.787-4.025,2.082
				c-1.559-0.324-3.007-1.172-4.509-2.651l-0.053-55.531C289.673,340.204,291.244,340.054,292.473,340.173z"/>
			<path d="M306.864,213.445c1.772,0,3.634-0.186,5.57-0.563c5.567-1.089,10.691-3.592,15.614-7.633l-0.003,1.513
				c-0.003,1.328,0.523,2.602,1.461,3.542s2.211,1.468,3.539,1.468h22.878c2.762,0,5-2.239,5-5l0.007-123.463
				c0-1.326-0.527-2.598-1.465-3.536c-0.937-0.937-2.209-1.464-3.535-1.464h-22.873c-2.762,0-5,2.239-5,5l0.001,84.427
				c-0.395,0.467-8.215,8.025-8.689,5.35c-0.161-0.889-0.242-1.847-0.242-2.847v-86.93c0-2.761-2.238-5-5-5h-22.705
				c-2.762,0-5,2.239-5,5v105.602c0.028,3.43,0.617,7.109,1.703,10.641C290.876,208.497,297.7,213.445,306.864,213.445z
				 M296.421,88.311h12.703v81.93c0,1.594,0.134,3.149,0.398,4.607c0.601,3.391,2.364,6.1,4.967,7.628
				c2.563,1.505,5.718,1.729,8.881,0.634c4.89-1.687,9.228-4.979,13.253-10.053c1.479-1.853,1.45-4.003,1.435-5.158l-0.003-79.589
				h12.873l-0.007,113.463h-12.868l0.016-8.257c0.004-2.018-1.206-3.841-3.067-4.621c-1.86-0.78-4.008-0.365-5.445,1.053
				c-0.804,0.795-1.574,1.574-2.324,2.334c-1.554,1.575-3.023,3.063-4.528,4.386c-3.945,3.474-7.932,5.568-12.188,6.4
				c-10.232,1.997-12.19-4.365-12.834-6.455c-0.805-2.618-1.241-5.31-1.262-7.743V88.311z"/>
			<path d="M149.466,137.007c0.17,0.557,0.259,1.214,0.259,1.9l-0.014,67.837c0,1.326,0.527,2.598,1.464,3.536
				c0.937,0.938,2.21,1.465,3.536,1.465h24.008c1.326,0,2.597-0.527,3.536-1.464c0.938-0.938,1.464-2.21,1.464-3.536l-0.012-67.836
				c0-0.678,0.092-1.343,0.26-1.906c8.943-29.581,28.946-95.917,28.946-95.917c0.457-1.514,0.17-3.155-0.773-4.425
				c-0.944-1.269-2.432-2.018-4.014-2.018h-26.033c-2.32,0-4.335,1.596-4.867,3.854c0,0-5.575,23.672-10.51,44.572
				c-4.936-20.9-10.511-44.573-10.511-44.573c-0.532-2.258-2.548-3.854-4.867-3.854h-26.033c-1.582,0-3.071,0.749-4.014,2.018
				c-0.943,1.269-1.23,2.911-0.773,4.425C120.518,41.085,140.519,107.422,149.466,137.007z M147.379,44.641
				c2.641,11.209,10.389,44.085,14.465,61.278c0.534,2.255,2.562,3.847,4.879,3.847c2.317,0,4.331-1.592,4.865-3.847
				c4.076-17.194,11.823-50.07,14.464-61.278h15.344c-5.239,17.373-19.753,65.494-27.006,89.482
				c-0.447,1.495-0.683,3.15-0.683,4.786l0.011,62.836h-14.006l0.013-62.838c0-1.681-0.232-3.297-0.688-4.8
				c-7.251-23.975-21.764-72.093-27.002-89.466H147.379z"/>
			<path d="M239.462,192.828c7.969,0,14.452-6.481,14.452-14.447V111.68c0-7.969-6.483-14.452-14.452-14.452
				c-7.969,0-14.451,6.483-14.451,14.452v66.701C225.011,186.347,231.493,192.828,239.462,192.828z M235.011,111.68
				c0-2.455,1.997-4.452,4.451-4.452c2.455,0,4.452,1.997,4.452,4.452v66.701c0,2.452-1.997,4.447-4.452,4.447
				c-2.454,0-4.451-1.995-4.451-4.447V111.68z"/>
			<path d="M201.703,112.975v64.109c0,20.817,16.936,37.754,37.752,37.754c20.82,0,37.759-16.936,37.759-37.754v-64.109
				c0-20.821-16.939-37.759-37.759-37.759C218.639,75.216,201.703,92.155,201.703,112.975z M239.455,85.217
				c15.307,0,27.759,12.452,27.759,27.759v64.109c0,15.304-12.452,27.754-27.759,27.754c-15.303,0-27.752-12.45-27.752-27.754
				v-64.109C211.703,97.67,224.152,85.217,239.455,85.217z"/>
			<path d="M49,163.996c2.762,0,5-2.239,5-5V46.192c0-2.761-2.238-5-5-5s-5,2.239-5,5v112.804C44,161.757,46.238,163.996,49,163.996
				z"/>
			<path d="M49,210.192c2.762,0,5-2.239,5-5v-17.591c0-2.762-2.238-5-5-5s-5,2.239-5,5v17.591C44,207.953,46.238,210.192,49,210.192
				z"/>
			<path d="M442.392,303.191c-2.762,0-5,2.239-5,5v22c0,2.761,2.238,5,5,5c2.761,0,5-2.238,5-5v-22
				C447.392,305.43,445.154,303.191,442.392,303.191z"/>
		</g>
	</g>
</g>

</svg>
