<svg viewBox="0 0 490 490"><path d="M10 372.5h405a9.996 9.996 0 007.071-2.929l65-65c1.912-1.913 2.904-4.47 2.905-7.071H490v-245c0-5.522-4.477-10-10-10H10c-5.523 0-10 4.478-10 10v310c0 5.522 4.477 10 10 10zm415-34.143V307.5h30.858L425 338.357zM20 62.5h450v225h-55c-5.523 0-10 4.478-10 10v55H20v-290z"/><path d="M350 92.5H250c-5.523 0-10 4.478-10 10v15h-25c-5.523 0-10 4.478-10 10v75h-80v-35h55c5.523 0 10-4.478 10-10v-60c0-5.522-4.477-10-10-10H60c-5.523 0-10 4.478-10 10v60c0 5.522 4.477 10 10 10h45v45c0 5.522 4.477 10 10 10h90v70c0 5.522 4.477 10 10 10h25v10c0 5.522 4.477 10 10 10h100c5.523 0 10-4.478 10-10v-50c0-5.522-4.477-10-10-10H250c-5.523 0-10 4.478-10 10v20h-15v-60h15v10c0 5.522 4.477 10 10 10h100c5.523 0 10-4.478 10-10v-50c0-5.522-4.477-10-10-10H250c-5.523 0-10 4.478-10 10v20h-15v-65h15v15c0 5.522 4.477 10 10 10h100c5.523 0 10-4.478 10-10v-50c0-5.522-4.477-10-10-10zm-280 55v-40h100v40H70zm190 125h80v30h-80v-30zm0-80h80v30h-80v-30zm80-50h-80v-30h80v30zM50 247.5h75v20H50zM50 277.5h75v20H50zM50 307.5h130v20H50z"/><path d="M135 247.5h20v20h-20zM380 92.5h25v20h-25zM420 92.5h25v20h-25zM380 122.5h25v20h-25zM420 122.5h25v20h-25zM380 152.5h25v20h-25zM420 152.5h25v20h-25zM380 182.5h25v20h-25zM420 182.5h25v20h-25zM483.162 408.013l-60-20a9.983 9.983 0 00-3.162-.498v-.015H10c-5.523 0-10 4.478-10 10v40c0 5.522 4.477 10 10 10h410.001a9.995 9.995 0 003.161-.513l60-20a10.001 10.001 0 000-18.974zM60 427.5H20v-20h40v20zm350 0H80v-20h330v20zm20-3.874v-12.252l18.377 6.126L430 423.626z"/></svg>