<svg version="1.1" id="Capa_1" xmlns="http://www.w3.org/2000/svg" xmlns:xlink="http://www.w3.org/1999/xlink" x="0px" y="0px"
	 viewBox="0 0 60 60" style="enable-background:new 0 0 60 60;" xml:space="preserve" fill="white">
<g>
	<g>
		<path d="M59,14h-3v-4c0-0.6-0.4-1-1-1h-6v2h5v3h-5v2h6h3v42H2V2h24v8v4H8v2h19h5v-2h-4v-3h4V9h-4V1c0-0.6-0.4-1-1-1H1
			C0.4,0,0,0.4,0,1v58c0,0.6,0.4,1,1,1h58c0.6,0,1-0.4,1-1V15C60,14.4,59.6,14,59,14z"/>
		<path d="M35,3.4V42h2V3.4l1.3,1.3l1.4-1.4l-3-3c-0.4-0.4-1-0.4-1.4,0l-3,3l1.4,1.4L35,3.4z"/>
		<path d="M45,42c0.3,0,0.5-0.1,0.7-0.3l3-3l-1.4-1.4L46,38.6V0h-2v38.6l-1.3-1.3l-1.4,1.4l3,3C44.5,41.9,44.7,42,45,42z"/>
		<rect x="8" y="52" width="4" height="2"/>
		<rect x="16" y="52" width="4" height="2"/>
		<rect x="24" y="52" width="4" height="2"/>
		<rect x="32" y="52" width="4" height="2"/>
		<rect x="40" y="52" width="4" height="2"/>
		<rect x="48" y="52" width="4" height="2"/>
		<rect x="8" y="20" width="4" height="2"/>
		<rect x="16" y="20" width="4" height="2"/>
		<rect x="24" y="20" width="4" height="2"/>
		<rect x="48" y="20" width="4" height="2"/>
	</g>
</g>
</svg>
