<svg width="24" height="24" fill="none" xmlns="http://www.w3.org/2000/svg"><path fill-rule="evenodd" clip-rule="evenodd" d="M7.393 2.551a.5.5 0 00-.667.223c-.176.347-.237.77-.245 1.177-.009.416.037.861.111 1.282.075.423.179.833.292 1.181.053.161.11.317.17.46-.972.921-1.522 2.464-1.058 3.961.523 1.694 2.271 3.144 5.673 3.66a.5.5 0 10.15-.99c-3.202-.484-4.503-1.784-4.868-2.965-.376-1.216.165-2.502 1.026-3.138a.5.5 0 00.12-.677c-.062-.095-.16-.308-.262-.621a7.804 7.804 0 01-.258-1.044 5.795 5.795 0 01-.097-1.089 3.14 3.14 0 01.015-.247c.353.184.72.387 1.068.603.538.334.996.679 1.282 1.003a.5.5 0 00.596.119c.935-.46 2.126-.699 3.272-.699 1.155 0 2.188.242 2.838.668a.5.5 0 00.722-.196c.138-.279.504-.61 1.006-.956.297-.205.59-.382.856-.542l.011.078c.036.278.035.628.009 1.012-.047.69-.17 1.421-.255 1.938l-.028.167a.5.5 0 00.038.289c.486 1.063.801 2.288.422 3.39-.368 1.07-1.452 2.192-4.16 2.92a.5.5 0 00-.186.87c.762.617 2.05 2.153 2.95 3.927.226.446.125.839-.146 1.122-.288.3-.787.487-1.346.388-1.01-.178-2.148-.325-3.175-.325-1.238 0-2.853.213-4.224.44-.55.09-1.01-.106-1.26-.394-.234-.271-.313-.652-.06-1.082.51-.871 1.127-1.635 1.753-2.046a.5.5 0 00.128-.716 2.59 2.59 0 00-1.172-.853c-.637-.232-1.471-.26-2.483.195-.483.217-.88.246-1.194.181a1.46 1.46 0 01-.79-.457c-.439-.479-.563-1.16-.395-1.584a.5.5 0 00-.93-.368c-.333.843-.06 1.92.587 2.627a2.46 2.46 0 001.328.762c.548.112 1.158.041 1.804-.249.792-.356 1.357-.303 1.73-.167.133.048.247.109.344.173-.608.536-1.144 1.263-1.573 1.996-.473.806-.343 1.653.167 2.242.495.572 1.313.869 2.179.726 1.364-.225 2.91-.426 4.06-.426.945 0 2.018.136 3.002.31.868.154 1.71-.126 2.241-.68.548-.572.746-1.42.317-2.267-.738-1.454-1.729-2.778-2.552-3.635 2.323-.784 3.537-1.953 4.002-3.304.485-1.413.094-2.873-.395-3.99a.882.882 0 00.003-.017c.085-.512.216-1.293.266-2.035a6.416 6.416 0 00-.014-1.206c-.044-.348-.146-.753-.417-1.028a.5.5 0 00-.623-.07c-.093.058-.215.131-.354.215-.303.18-.686.41-1.033.65-.358.246-.75.55-1.04.896-.832-.404-1.893-.589-2.958-.589-1.142 0-2.35.212-3.38.65a7.937 7.937 0 00-1.243-.922 20.102 20.102 0 00-1.697-.927z" fill="#fff"/></svg>