<svg class="prefix__variation-svg prefix__fade-enter-done" viewBox="79.87 55.26 423.51 421.093" xmlns="http://www.w3.org/2000/svg" xmlns:xlink="http://www.w3.org/1999/xlink"><image height="192.133" width="230" y="125.26" x="172.5" preserveAspectRatio="xMinYMin" href="https://fiverr-res.cloudinary.com/image/upload/f_png,q_auto,t_makers_project_variation_preview/v1/secured-attachments/makers_project_variation/preview_file/29ef22597ab2596c03b9eadb5200da2d-1653660632/6290d616f1d8f12ec350e1cd.svg?__cld_token__=exp=1673292268~hmac=6b96d1fa98850d2cbff57ed82c4929112738488ece40623500bfe55120ff199a" style="position:absolute"/><svg data-layer-type="text" y="394.263" viewBox=".11 9.03 88.12 12.09" x="243.44" height="12.09" width="88.12" style="position:absolute"><path d="M9.65 18.2H6.1v-.25q.15 0 .31-.02.16-.03.29-.09.13-.06.22-.17.08-.11.08-.29t-.1-.5q-.11-.31-.24-.65-.13-.33-.26-.62t-.19-.41H2.73q-.03.07-.11.23-.07.16-.17.37-.09.2-.19.43-.1.23-.18.45-.08.22-.14.41-.05.18-.05.29 0 .17.11.28.12.11.29.17.16.06.34.09.17.02.31.03v.25H.11v-.25q.31-.02.53-.15.22-.13.39-.33.17-.21.29-.48.13-.26.26-.57l3.17-7.39h.23l3.12 7.44q.14.31.25.57.12.26.29.45.17.2.4.32.24.12.61.14v.25zm-3.62-3.49L4.5 11.06l-1.56 3.65h3.09zm13.6 1.1l.21.09q-.08.47-.29.92-.21.45-.54.8-.33.35-.77.57-.43.21-.94.21-.66 0-1.15-.28-.49-.29-.81-.75-.32-.46-.48-1.04-.16-.57-.16-1.15 0-.63.21-1.22.2-.58.58-1.03.37-.45.91-.71.54-.27 1.2-.27.3 0 .67.1.36.09.67.27.31.19.52.46.21.27.21.63 0 .3-.17.43t-.45.13q-.3 0-.44-.11-.14-.12-.21-.3-.06-.17-.08-.38-.03-.21-.11-.38-.09-.18-.27-.3-.19-.12-.56-.12-.43 0-.74.21-.3.21-.49.53-.18.33-.26.72-.09.39-.09.76 0 .45.11.93.1.48.34.89.24.4.61.66.38.26.9.26.37 0 .66-.12.29-.13.52-.34.22-.21.39-.48.17-.28.3-.59zm5.28-3.12q0 .25-.18.43-.18.19-.43.19-.17 0-.29-.08-.12-.07-.23-.16-.11-.08-.21-.15-.09-.08-.21-.08-.19 0-.43.3t-.45.72v2.94q0 .58.22.86.22.29.85.29v.25h-3.14v-.25q.34 0 .53-.06.19-.05.29-.18.09-.13.11-.35.03-.21.03-.53v-2.62q0-.31-.02-.56-.01-.26-.06-.44-.06-.18-.17-.27-.11-.1-.3-.1t-.41.09l-.07-.24 1.87-.74h.27v1.37q.12-.21.27-.44.16-.24.36-.45.2-.2.43-.34.23-.14.51-.14.16 0 .31.05.16.05.28.15.12.09.19.23.08.14.08.31zm5.45 3.16l.2.14q-.07.47-.28.91-.2.43-.53.77-.32.33-.75.53t-.93.2q-.65 0-1.14-.27-.5-.27-.84-.72-.33-.45-.5-1.01-.16-.57-.16-1.17 0-.66.17-1.25t.52-1.04q.34-.45.88-.72.53-.27 1.24-.27.54 0 .97.19.44.18.73.51.3.33.46.78.16.46.16.99h-4.19q0 .5.13 1 .13.51.4.93.28.42.69.69.42.27.99.27.35 0 .63-.11t.49-.31q.22-.2.38-.47.15-.27.28-.57zm-3.99-1.81h2.8q0-.29-.07-.59-.08-.29-.24-.52-.16-.22-.41-.36-.25-.14-.59-.14-.34 0-.61.13-.26.14-.45.36-.19.23-.3.52-.11.3-.13.6zm10.6 2.91v.37q-.13.17-.28.35-.15.18-.33.33-.18.14-.4.23-.21.1-.43.1t-.35-.09q-.14-.09-.22-.24-.08-.14-.11-.32-.03-.17-.03-.36-.22.18-.44.35-.22.18-.45.33-.24.14-.5.23-.25.1-.55.1-.34 0-.61-.12-.27-.12-.45-.33-.19-.21-.28-.5-.1-.29-.1-.62 0-.37.17-.68.17-.3.45-.56.28-.25.64-.46.36-.21.74-.37t.74-.28q.36-.13.64-.22v-.25q0-.31-.04-.59-.04-.29-.16-.51-.12-.23-.34-.36-.22-.13-.59-.13-.31 0-.48.08-.18.09-.27.24-.1.15-.12.36-.03.21-.03.45 0 .3-.11.47-.12.17-.45.17-.31 0-.43-.18t-.12-.46q0-.41.22-.7t.54-.48q.33-.18.72-.26.39-.09.73-.09.57 0 .96.11t.63.36q.24.25.34.65.1.39.1.96v2.34q0 .15.01.3v.27q.01.13.03.22.01.12.08.22.06.1.21.1.07 0 .17-.06.11-.07.21-.16.11-.09.2-.17l.14-.14zm-2.15-.07v-2.32q-.33.13-.73.3-.39.18-.74.41-.34.23-.57.53-.23.29-.23.65 0 .21.07.4.06.19.18.35.12.16.3.26.17.09.4.09.17 0 .35-.06.17-.06.34-.16.18-.1.34-.22.16-.12.29-.23zm5.69.21h.25q-.07.25-.21.49-.14.24-.34.42-.19.18-.44.29-.25.11-.52.11-.36 0-.59-.13-.23-.14-.37-.36-.14-.23-.19-.52-.05-.29-.05-.59v-4.21h-.96v-.21q.34-.13.63-.37.28-.25.52-.56.23-.31.41-.66.18-.34.31-.66h.2v2.01h1.43v.45h-1.43v4.05q0 .15.03.32.02.18.08.33.06.16.18.26t.3.1q.3 0 .48-.16.17-.15.28-.4zm2.92-7.03q0 .28-.2.49-.19.2-.47.2-.28 0-.48-.19-.2-.2-.2-.5 0-.28.2-.47.2-.19.48-.19.27 0 .47.2.2.19.2.46zm.81 8.14h-2.98v-.25q.3 0 .49-.05.18-.04.28-.15.1-.12.14-.31.04-.19.04-.48v-3.24q0-.15-.02-.31-.01-.16-.06-.29-.05-.13-.14-.21-.09-.09-.25-.09-.11 0-.23.03-.12.03-.25.08l-.08-.24 1.83-.74h.29v5.01q0 .29.04.48.03.19.14.31.1.11.28.15.18.05.48.05v.25zm6.97-6.06v.24q-.22.01-.36.07-.14.06-.23.16-.1.1-.17.24-.07.15-.15.33l-2.14 5.22h-.27l-2.18-5.15q-.09-.22-.19-.37-.09-.14-.21-.24-.12-.1-.28-.16-.16-.06-.38-.1v-.24h2.86v.24q-.14 0-.27.01t-.23.06q-.09.04-.16.14-.06.09-.06.27 0 .15.05.28.04.13.09.25l1.41 3.35 1.42-3.49q.06-.12.1-.26.04-.15.04-.3 0-.1-.05-.17-.06-.06-.16-.09-.09-.03-.22-.04-.12-.01-.25-.01v-.24h1.99zm5.55 3.71l.2.14q-.07.47-.27.91-.21.43-.54.77-.32.33-.75.53-.42.2-.93.2-.65 0-1.14-.27-.5-.27-.83-.72-.34-.45-.5-1.01-.17-.57-.17-1.17 0-.66.17-1.25t.52-1.04q.35-.45.88-.72.53-.27 1.24-.27.55 0 .98.19.43.18.73.51t.45.78q.16.46.16.99h-4.19q0 .5.13 1 .13.51.41.93.27.42.69.69.41.27.98.27.36 0 .63-.11.28-.11.49-.31.22-.2.38-.47.16-.27.28-.57zm-3.99-1.81h2.8q0-.29-.07-.59-.08-.29-.24-.52-.16-.22-.41-.36-.24-.14-.59-.14-.34 0-.6.13-.27.14-.46.36-.18.23-.29.52-.11.3-.14.6zm13.9 2.63q0 .4-.19.71-.18.32-.47.55-.29.23-.66.35-.36.12-.72.12-.21 0-.44-.06-.22-.07-.43-.15-.22-.08-.4-.14-.19-.07-.35-.07-.05 0-.08.04-.04.04-.07.09-.03.05-.05.1-.02.05-.04.08h-.23v-2.16h.23q.07.36.22.69.15.34.38.6.24.25.55.41.31.15.71.15.2 0 .39-.05.19-.06.33-.18.15-.11.23-.28.09-.16.09-.38 0-.43-.23-.71-.23-.29-.59-.51-.35-.22-.75-.41-.41-.2-.76-.45-.35-.25-.58-.59-.23-.34-.23-.84 0-.42.16-.73.17-.3.44-.5t.63-.3q.36-.1.73-.1.17 0 .34.04.17.03.33.08.17.05.33.09.16.03.33.03.11 0 .17-.07.07-.07.11-.17h.24v2.08h-.24q-.07-.33-.2-.63-.12-.3-.32-.54-.19-.24-.47-.38-.27-.15-.64-.15-.2 0-.4.04-.21.03-.38.12t-.28.25q-.11.16-.11.41 0 .44.25.71.25.28.62.49.38.2.81.39.44.18.81.43.37.24.62.59.26.36.26.91zm4 .42h.26q-.07.25-.21.49-.14.24-.34.42t-.45.29q-.24.11-.51.11-.36 0-.59-.13-.23-.14-.37-.36-.14-.23-.2-.52-.05-.29-.05-.59v-4.21h-.96v-.21q.35-.13.63-.37.29-.25.52-.56.23-.31.41-.66.18-.34.32-.66h.2v2.01h1.42v.45h-1.42v4.05q0 .15.02.32.02.18.08.33.07.16.18.26.12.1.31.1.3 0 .47-.16.18-.15.28-.4zm6.58-2.03q0 .65-.21 1.26t-.59 1.07q-.39.46-.94.74-.56.27-1.25.27-.66 0-1.19-.26-.53-.26-.91-.71-.37-.44-.58-1.01-.2-.57-.2-1.19 0-.64.2-1.23.21-.59.6-1.04.38-.46.93-.73.54-.28 1.22-.28.66 0 1.2.24.54.25.92.67.38.42.59.99.21.56.21 1.21zm-1.24.51q0-.29-.04-.64-.03-.35-.12-.7-.09-.36-.23-.69-.14-.33-.35-.59-.21-.26-.5-.41-.29-.16-.66-.16-.45 0-.74.23-.29.22-.46.56-.16.34-.22.74-.07.41-.07.77 0 .29.04.64.04.35.13.71t.23.7q.15.34.36.6.21.27.5.42.28.16.65.16.48 0 .77-.22.29-.23.44-.57.16-.35.22-.76.05-.42.05-.79zm8.04-.63q0 .62-.18 1.24-.17.62-.52 1.11-.35.49-.88.8-.52.31-1.22.31-.4 0-.76-.14-.37-.14-.67-.42v1.86q0 .33.03.55.03.22.13.35.1.13.3.19.2.07.56.08v.25h-3.2v-.25q.37-.01.58-.07.21-.06.31-.19.11-.13.13-.36.03-.23.03-.59v-5.74q0-.24-.01-.44-.02-.2-.07-.34-.04-.13-.14-.21-.1-.07-.27-.07-.24 0-.45.1l-.07-.23 1.89-.76h.25v1.42q.16-.27.35-.53.2-.26.44-.46t.53-.32q.28-.13.62-.13.59 0 1.03.28.43.28.71.71.28.43.41.96.14.53.14 1.04zm-1.06.63q0-.42-.08-.91-.07-.48-.27-.91-.19-.42-.53-.7-.34-.28-.87-.28-.37 0-.72.3t-.7.72v2.27q0 .38.05.72.04.35.19.62t.43.42q.27.16.75.16t.82-.22q.34-.23.54-.58t.29-.78q.1-.42.1-.83zm5.24 2.05q0 .34-.22.56-.22.22-.56.22-.16 0-.29-.06-.14-.06-.24-.16-.1-.11-.16-.25t-.06-.31q0-.16.06-.29.06-.14.16-.24.1-.1.24-.16.13-.06.29-.06.17 0 .31.06.14.06.24.16.11.1.17.24.06.13.06.29z" data-horizontal-grow="center" font-size="18" font-weight="400" font-family="Scheherazade" dominant-baseline="hanging"/></svg><svg data-layer-type="text" y="346.377" viewBox=".57 6.73 283.51 29.66" x="149.87" height="29.66" width="283.51" style="position:absolute"><path d="M16.67 11.2h-3.1l-.23 4.24v14.18q0 1.99.11 2.79l.16 1.34 3.36.31-.23 2.1-2.21-.08q-2.53-.07-3.83-.07-1.3 0-2.75.07l-1.22.08-.19-1.99 2.94-.34q.04-.35.21-1.32.17-.98.17-1.74V14.3q0-.46-.15-1.67-.15-1.2-.23-1.43H6.5q-1.8.08-2.56.19-.69.99-.77 1.36-.07.36-.38 2l-2.22-.19.27-5.46.38-.42q3.71.38 4.7.38h11.32q.99 0 4.7-.38l.38.42.27 5.46-2.22.19q-.3-1.64-.46-2.14-.15-.49-.72-1.22-.73-.11-2.52-.19zm7.26-2.41l.19-2.06q2.98.38 3.96.38.97 0 1.66-.08l.61-.07.23.23-.15 2.4q-.12 1.34-.12 3.86v5.97q1.99-2.64 5.64-2.64 3.65 0 4.97 2.16 1.32 2.16 1.32 6.48v4.2q0 2.03.11 2.83l.16 1.38 3.01.23-.22 2.1-1.69-.08q-2.06-.07-3.49-.07-1.44 0-2.66.07l-1.03.08-.19-1.95 2.52-.38q.04-.35.21-1.32.17-.98.17-1.74v-6.65q0-2.22-.97-3.54-.98-1.32-3.02-1.32-2.05 0-3.37 1.51-1.32 1.51-1.47 3.69v5.16q0 2.03.12 2.83l.15 1.38 2.98.23-.23 2.1-1.83-.08q-2.14-.07-3.46-.07-1.32 0-2.54.07l-1 .08-.19-1.95 2.52-.38q.04-.35.21-1.32.18-.98.18-1.74V12.31q0-.58-.18-1.55-.17-.97-.21-1.51l-2.9-.46zm38.34 23.55l1.07 1.76q-2.75 2.29-6.88 2.29t-6.41-2.64q-2.27-2.64-2.27-7.11 0-4.47 2.12-7.15 2.12-2.67 6.21-2.67 7.34 0 7.34 8.87l-.65 1.26H51.37q.08 2.83 1.44 4.89 1.35 2.06 3.76 2.06 3.1 0 5.7-1.56zm-2.37-7.95v-.31l.04-.46q0-2.21-.98-3.51-.97-1.3-3-1.3-3.94 0-4.55 6.19 7.23-.61 8.49-.61zM80 30.77v-6.65q0-4.86-3.63-4.86-1.91 0-3.25 1.95t-1.34 4.32v4.09q0 2.03.12 2.83l.15 1.38 2.87.23-.23 2.1-1.64-.08q-2.07-.07-3.46-.07-1.4 0-2.62.07l-1 .08-.19-1.95 2.53-.38q.03-.35.21-1.32.17-.98.17-1.74v-8.41q0-.23-.19-1.3t-.35-1.99l-2.75-.45.19-1.95 1.19.11q.72.12 1.93.12 1.2 0 1.47-.04l.46-.08.23.23.49 3.02q1.92-3.25 5.93-3.25t5.16 3.67q.69-1.45 2.18-2.56 1.49-1.11 3.82-1.11 3.52 0 4.74 2.16 1.22 2.16 1.22 6.48v4.2q0 2.03.12 2.83l.15 1.38 3.02.23-.23 2.1-1.68-.08q-2.06-.07-3.48-.07-1.41 0-2.56.07l-.99.08-.19-1.95 2.37-.38q.03-.35.21-1.32.17-.98.17-1.74v-6.65q0-4.86-3.63-4.86-1.88 0-3.2 1.86-1.31 1.85-1.39 4.18v4.32q0 2.03.11 2.83l.16 1.38 2.86.23-.23 2.1-1.6-.08q-2.07-.07-3.44-.07-1.38 0-2.52.07l-1 .08-.19-1.95 2.37-.38q.04-.35.21-1.32.17-.98.17-1.74zm34.44 1.57l1.07 1.76q-2.75 2.29-6.88 2.29t-6.4-2.64q-2.27-2.64-2.27-7.11 0-4.47 2.12-7.15 2.12-2.67 6.21-2.67 7.34 0 7.34 8.87l-.65 1.26h-11.43q.08 2.83 1.43 4.89 1.36 2.06 3.77 2.06 3.09 0 5.69-1.56zm-2.37-7.95v-.31l.04-.46q0-2.21-.97-3.51-.98-1.3-3-1.3-3.94 0-4.55 6.19 7.22-.61 8.48-.61zm5.32-15.6l.19-2.06q2.98.38 3.99.38 1.01 0 1.7-.08l.61-.07.23.23-.15 2.4q-.11 1.34-.11 3.86v16.17q0 2.03.11 2.83l.15 1.38 2.99.23-.23 2.1-1.84-.08q-2.22-.07-3.52-.07-1.3 0-2.75.07l-1.22.08-.19-1.87 2.94-.46q.04-.35.21-1.32.17-.98.17-1.74V12.31q0-.58-.17-1.55-.17-.97-.21-1.51l-2.9-.46zm11.27 0l.19-2.06q2.98.38 4 .38 1.01 0 1.7-.08l.61-.07.23.23-.15 2.4q-.12 1.34-.12 3.86v16.17q0 2.03.12 2.83l.15 1.38 2.98.23-.23 2.1-1.83-.08q-2.22-.07-3.52-.07-1.3 0-2.75.07l-1.22.08-.2-1.87 2.95-.46q.04-.35.21-1.32.17-.98.17-1.74V12.31q0-.58-.17-1.55-.17-.97-.21-1.51l-2.91-.46zm20.83 7.99q4.29 0 6.52 2.64 2.24 2.64 2.24 7.15t-2.28 7.16q-2.27 2.66-6.51 2.66-4.25 0-6.52-2.66-2.28-2.65-2.28-7.15 0-4.49 2.28-7.14 2.27-2.66 6.55-2.66zm3.94 15.29q1.22-2.14 1.22-5.47 0-3.32-1.22-5.48-1.22-2.16-3.97-2.16-2.76 0-3.98 2.16-1.22 2.16-1.22 5.48 0 3.33 1.22 5.47 1.22 2.14 3.98 2.14 2.75 0 3.97-2.14zm5.58-13.23l.19-2.06q2.41.34 3.98.34 1.57 0 2.29-.11l1.34-.15.19 2.1-2.18.27 1.03 3.44 3.25 9.32 4.78-14.87h1.53l5.24 14.87 2.98-9.4q.19-1.03.84-3.36l-2.45-.39.19-2.06q2.68.34 4.09.34 1.42 0 2.03-.11l1.11-.11.15 2.06-1.99.27q-1.83 3.97-1.91 4.58l-4.09 12.2h-2.56l-4.78-12.39-4.16 12.39h-2.56l-2.45-6.27q-2.48-6.35-2.66-6.92-.17-.57-1.62-3.63l-1.8-.35zm35.7 7.74q0 3.2 1.26 5.26 1.27 2.06 3.96 2.06 2.7 0 5.33-1.37l1.07 1.8q-.72.61-1.75 1.03-1.99 1.03-4.71 1.03-4.24 0-6.49-2.64-2.26-2.64-2.26-7.15t2.26-7.16q2.25-2.66 6.53-2.66 1.38 0 2.33.23 1.23.31 3.67 1.11l-.38 4.78-2.22-.12v-1.37q0-.31-.26-1.3-1.38-1.15-3.14-1.15-2.67 0-3.94 2.22-1.26 2.21-1.26 5.4zm23.7-9.8q4.28 0 6.52 2.64 2.24 2.64 2.24 7.15t-2.28 7.16q-2.27 2.66-6.52 2.66-4.24 0-6.51-2.66-2.28-2.65-2.28-7.15 0-4.49 2.28-7.14 2.27-2.66 6.55-2.66zm3.94 15.29q1.22-2.14 1.22-5.47 0-3.32-1.22-5.48-1.22-2.16-3.98-2.16-2.75 0-3.97 2.16-1.22 2.16-1.22 5.48 0 3.33 1.22 5.47 1.22 2.14 3.97 2.14 2.76 0 3.98-2.14zm16.93-23.28l.19-2.06q3.33.38 4.36.38 1.03 0 1.72-.08l.61-.07.23.23-.15 2.4q-.12 1.34-.12 3.86v17.32q0 .88.39 3.06l2.63.19-.22 2.14-1.27-.08q-1.75-.07-3.7-.07l-.5-3.1q-.42 1.07-1.99 2.28-1.57 1.2-3.55 1.2-3.83 0-5.76-2.77-1.93-2.77-1.93-7.07 0-4.3 2.07-7.04 2.06-2.73 5.96-2.73 2.1 0 4.78.92v-5.39q0-.58-.17-1.55-.18-.97-.21-1.51l-3.37-.46zm-1.11 25.15q2.37 0 3.62-1.58 1.24-1.59 1.24-4.27v-7.64q-2.14-1.34-4.55-1.34-2.41 0-3.57 2.16-1.17 2.16-1.17 5.33 0 1.92.36 3.46.37 1.55 1.42 2.72 1.05 1.16 2.65 1.16zm27.98-1.6l1.07 1.76q-2.75 2.29-6.88 2.29-4.12 0-6.4-2.64-2.27-2.64-2.27-7.11 0-4.47 2.12-7.15 2.12-2.67 6.21-2.67 7.34 0 7.34 8.87l-.65 1.26h-11.43q.08 2.83 1.43 4.89 1.36 2.06 3.77 2.06 3.1 0 5.69-1.56zm-2.37-7.95v-.31l.04-.46q0-2.21-.97-3.51-.98-1.3-3-1.3-3.94 0-4.55 6.19 7.22-.61 8.48-.61zm11.89.76v4.47q0 2.03.12 2.83l.15 1.38 3.78.3-.23 2.03-2.1-.08q-2.44-.07-3.88-.07-1.43 0-2.65.07l-1 .08-.19-1.95 2.52-.38q.04-.35.21-1.32.18-.98.18-1.74v-8.41q0-.23-.2-1.3-.19-1.07-.34-1.99l-2.75-.45.19-1.95 1.18.11q.73.12 1.94.12 1.2 0 1.47-.04l.46-.08.22.23.58 3.36q2.18-3.59 6.15-3.59 1.07 0 1.84.19l.76.19-.38 6.31-2.18-.12-.04-2.02q0-.31-.53-1.91-2.68 0-3.92 1.43-1.24 1.43-1.36 4.3z" data-horizontal-grow="center" font-size="38.224" font-weight="400" font-family="Andada" dominant-baseline="hanging"/></svg></svg>