<svg class="prefix__variation-svg prefix__fade-enter-done" viewBox="25.82 118.7 523.36 293.64" xmlns="http://www.w3.org/2000/svg" xmlns:xlink="http://www.w3.org/1999/xlink"><img height="101.165" width="125" y="188.7" x="225.003" preserveAspectRatio="xMinYMin" src="logo1.png" style="position:absolute"/><svg data-layer-type="text" y="335.15" viewBox=".1 2.7 109.88 7.19" x="232.56" height="7.19" width="109.88" style="position:absolute"><path d="M3.89 9.79l-.46-1.63H1.21L.75 9.79H.1l2.05-7h.33l2.06 7h-.65zM2.3 4.34l-.92 3.22h1.88l-.92-3.22-.02-.26-.02.26zm15.28 3.83q0 .36-.14.67-.13.32-.37.55-.23.23-.54.37-.32.13-.67.13h-.5q-.36 0-.67-.13-.32-.14-.55-.37-.23-.23-.37-.55-.13-.31-.13-.67V4.41q0-.35.13-.66.14-.32.37-.55.23-.24.55-.37.31-.13.67-.13h.5q.35 0 .67.13.31.13.54.37.24.23.37.55.14.31.14.66v.29l-.63.09v-.38q0-.23-.09-.43-.09-.21-.24-.36t-.35-.24q-.21-.08-.44-.08h-.44q-.23 0-.44.08-.2.09-.35.24-.16.15-.25.36-.08.2-.08.43v3.76q0 .24.08.44.09.2.25.36.15.15.35.24.21.09.44.09h.44q.23 0 .44-.09.2-.09.35-.24.15-.16.24-.36.09-.2.09-.44v-.38l.63.11v.27zM26 9.79h-.73l-1.9-2.98h-.86v2.98h-.63v-7h2.22q.35 0 .67.14.31.13.54.37.24.23.37.55.14.31.14.67v.56q0 .36-.14.67-.13.32-.37.55-.23.24-.54.37-.32.14-.67.14L26 9.79zm-.81-4.71v-.56q0-.24-.09-.44t-.24-.36q-.15-.15-.35-.24-.21-.09-.44-.09h-1.56v2.82h1.56q.23 0 .44-.09.2-.09.35-.24.15-.16.24-.36.09-.2.09-.44zm8.95 4.71H30.2v-7h3.94v.6h-3.31V6h2.68v.6h-2.68v2.59h3.31v.6zm7.29 0l-.46-1.63h-2.22l-.46 1.63h-.65l2.05-7h.33l2.06 7h-.65zm-1.59-5.45l-.92 3.22h1.88l-.92-3.22-.02-.26-.02.26zm9.21-.95h-1.67v6.4h-.63v-6.4h-1.67v-.6h3.97v.6zm4.63 6.4h-.63v-7h.63v7zm4.55-7l1.55 5.47.02.26.02-.26 1.55-5.47h.65l-2.06 7h-.33l-2.05-7h.65zm11.63 7h-3.94v-7h3.94v.6h-3.31V6h2.68v.6h-2.68v2.59h3.31v.6zM83.2 7.96v.21q0 .36-.14.67-.15.32-.39.55-.24.23-.56.37-.32.13-.68.13h-.5q-.36 0-.68-.13-.32-.14-.56-.37-.24-.23-.38-.55-.15-.31-.15-.67V7.9l.63-.11v.38q0 .24.1.44.09.2.25.36.16.15.38.24.21.09.44.09h.44q.24 0 .45-.09.21-.09.37-.24.16-.16.26-.36.09-.2.09-.44v-.21q0-.36-.14-.6t-.38-.4q-.23-.17-.53-.29-.29-.12-.6-.23-.32-.12-.61-.26-.3-.14-.53-.36-.24-.21-.38-.52-.14-.3-.14-.75v-.14q0-.35.13-.66.14-.32.37-.55.24-.24.55-.37.32-.13.67-.13h.45q.36 0 .67.13.31.13.55.37.23.23.37.55.13.31.13.66v.18l-.63.11v-.29q0-.23-.09-.43-.08-.21-.24-.36-.15-.15-.35-.24-.2-.08-.44-.08h-.39q-.23 0-.43.08-.21.09-.36.24t-.24.36q-.09.2-.09.43v.14q0 .33.14.56.14.23.38.4.23.16.53.28.29.12.6.24.32.13.61.28.3.15.53.36.24.22.38.53.14.31.14.76zm7.72-4.57h-1.67v6.4h-.63v-6.4h-1.67v-.6h3.97v.6zm7.84 4.78q0 .36-.13.67-.14.32-.37.55-.24.23-.55.37-.31.13-.67.13h-.5q-.35 0-.67-.13-.31-.14-.55-.37-.23-.23-.37-.55-.13-.31-.13-.67V4.41q0-.35.13-.66.14-.32.37-.55.24-.24.55-.37.32-.13.67-.13h.5q.36 0 .67.13.31.13.55.37.23.23.37.55.13.31.13.66v3.76zm-.63 0V4.41q0-.23-.09-.43-.08-.21-.24-.36-.15-.15-.35-.24-.2-.08-.44-.08h-.44q-.23 0-.43.08-.21.09-.36.24t-.24.36q-.09.2-.09.43v3.76q0 .24.09.44t.24.36q.15.15.36.24.2.09.43.09h.44q.24 0 .44-.09t.35-.24q.16-.16.24-.36.09-.2.09-.44zm9.08-2.78q0 .35-.14.66-.13.32-.37.55-.23.24-.55.37-.31.13-.67.13h-1.59v2.69h-.63v-7h2.22q.36 0 .67.14.32.13.55.37.24.23.37.55.14.31.14.67v.87zm-.63 0v-.87q0-.24-.09-.44t-.24-.36q-.16-.15-.36-.24-.2-.09-.44-.09h-1.56V6.5h1.56q.24 0 .44-.08.2-.09.36-.24.15-.15.24-.36.09-.2.09-.43zm3.4 4.4h-.76v-.75h.76v.75z" data-horizontal-grow="center" fill="#f5f5f5" font-size="10" font-weight="400" font-family="Abel" dominant-baseline="hanging" letter-spacing="3"/></svg><svg data-layer-type="text" y="299.85" viewBox=".63 5.7 383.36 23.7" x="95.82" height="23.7" width="383.36" style="position:absolute"><path d="M23.28 6l.3 5.73h-1.23q-.09-1.29-.42-2.16-.33-.87-.95-1.37-.61-.49-1.54-.7-.93-.21-2.22-.21-1.11 0-1.79.04-.67.05-1.03.17-.36.12-.47.29-.1.16-.1.43v16.05q0 .96.13 1.65.14.69.54 1.12.41.44 1.17.66.77.23 2.03.26v1.14H6.36v-1.14q1.26-.03 2.04-.26.78-.22 1.18-.66.41-.43.55-1.12.13-.69.13-1.65V8.22q0-.27-.11-.43-.1-.17-.42-.29-.31-.12-.88-.17-.57-.04-1.53-.04-1.17 0-2.18.09-1 .09-1.74.52-.73.44-1.18 1.34-.45.9-.48 2.49H.63V6h22.65zm25.91 4.77v13.56q0 1.14.12 1.84.12.71.46 1.08.35.38 1 .53.64.15 1.69.18v1.14h-9.72v-1.14q1.05-.03 1.7-.18.64-.15 1-.51t.48-1.02q.12-.66.12-1.71v-6.51H33.89v6.3q0 1.14.12 1.84.12.71.47 1.08.34.38.99.53.64.15 1.69.18v1.14h-9.72v-1.14q1.05-.03 1.69-.18.65-.15 1.01-.51t.48-1.02q.12-.66.12-1.71V10.56q0-1.05-.11-1.7-.1-.64-.42-1.02-.31-.37-.91-.51-.6-.13-1.56-.19V6h9.12v1.14q-.96.03-1.55.18-.58.15-.9.54-.31.39-.42 1.08-.1.69-.1 1.83v5.76h12.15v-5.97q0-1.05-.1-1.7-.11-.64-.42-1.02-.32-.37-.92-.51-.6-.13-1.56-.19V6h9.12v1.14q-.96.03-1.55.18-.58.15-.89.54-.32.39-.42 1.08-.11.69-.11 1.83zM63.64 7.8v8.61q1.62 0 2.72-.2 1.09-.19 1.73-.61.65-.42.94-1.08.28-.66.28-1.56h1.05v8.19h-1.05q0-.9-.25-1.56-.26-.66-.9-1.1-.65-.43-1.74-.65-1.1-.23-2.78-.23v6.78q0 .99.24 1.63.24.65.82 1.05.59.41 1.55.57.96.17 2.37.17 1.59 0 2.7-.23 1.11-.22 1.86-.76t1.2-1.43q.45-.88.75-2.2h1.14l-.45 5.91H57.19v-1.14q1.05-.03 1.7-.18.64-.15 1-.51t.48-1.02q.12-.66.12-1.71V10.56q0-1.05-.1-1.7-.11-.64-.42-1.02-.32-.37-.92-.51-.6-.13-1.56-.19V6h17.34l.27 5.28h-1.05q-.18-1.2-.58-1.97-.41-.76-1.11-1.21-.71-.45-1.79-.63t-2.61-.18h-3.81q-.51 0-.51.51zM96 23.73h.12L103.92 6h6.72v1.14q-.96.03-1.55.24-.58.21-.89.7-.32.5-.42 1.37-.11.87-.11 2.22v11.76q0 1.5.12 2.37.12.87.46 1.35.35.48 1 .63.64.15 1.69.18v1.14h-9.72v-1.14q1.05-.03 1.7-.2.64-.16 1-.61.36-.45.48-1.28.12-.82.12-2.23V9.72h-.3L95.46 29.4h-.66L86.19 9.72h-.12v13.71q0 1.5.12 2.37.12.87.47 1.35.34.48.99.63.64.15 1.69.18v1.14h-8.37v-1.14q1.05-.03 1.7-.2.64-.16 1-.61.36-.45.48-1.28.12-.82.12-2.23V11.46q0-1.26-.1-2.08-.11-.83-.42-1.31-.32-.48-.92-.68-.6-.19-1.56-.25V6h7.17L96 23.73zM122.12 7.8v8.61q1.62 0 2.71-.2 1.1-.19 1.74-.61.65-.42.93-1.08.29-.66.29-1.56h1.05v8.19h-1.05q0-.9-.26-1.56-.25-.66-.9-1.1-.64-.43-1.74-.65-1.09-.23-2.77-.23v6.78q0 .99.24 1.63.24.65.82 1.05.59.41 1.55.57.96.17 2.37.17 1.59 0 2.7-.23 1.11-.22 1.86-.76t1.2-1.43q.45-.88.75-2.2h1.14l-.45 5.91h-18.63v-1.14q1.05-.03 1.69-.18.65-.15 1.01-.51t.48-1.02q.12-.66.12-1.71V10.56q0-1.05-.11-1.7-.1-.64-.42-1.02-.31-.37-.91-.51-.6-.13-1.56-.19V6h17.34l.27 5.28h-1.05q-.18-1.2-.59-1.97-.4-.76-1.11-1.21-.7-.45-1.78-.63t-2.61-.18h-3.81q-.51 0-.51.51zm37.16 15.39l-.45 5.91h-19.38v-1.14q1.05-.03 1.69-.18.65-.15 1.01-.51t.48-1.02q.12-.66.12-1.71V10.56q0-1.05-.11-1.7-.1-.64-.42-1.02-.31-.37-.91-.51-.6-.13-1.56-.19V6h9.12v1.14q-.96.03-1.55.18-.58.15-.9.54-.31.39-.42 1.08-.1.69-.1 1.83V23.7q0 1.26.26 2.05.25.8.87 1.23.61.44 1.63.6 1.02.17 2.58.17 1.71 0 2.88-.2 1.17-.19 1.96-.69.8-.49 1.26-1.38.47-.88.8-2.29h1.14zm23.81 0l-.45 5.91h-19.38v-1.14q1.05-.03 1.69-.18.65-.15 1.01-.51t.48-1.02q.12-.66.12-1.71V10.56q0-1.05-.11-1.7-.1-.64-.42-1.02-.31-.37-.91-.51-.6-.13-1.56-.19V6h9.12v1.14q-.96.03-1.55.18-.58.15-.9.54-.31.39-.42 1.08-.1.69-.1 1.83V23.7q0 1.26.26 2.05.25.8.87 1.23.61.44 1.63.6 1.02.17 2.58.17 1.71 0 2.88-.2 1.17-.19 1.96-.69.8-.49 1.27-1.38.46-.88.79-2.29h1.14zM199.73 5.7q2.64 0 4.92.93t3.96 2.55q1.68 1.62 2.64 3.81.96 2.19.96 4.74 0 2.43-.98 4.56-.97 2.13-2.65 3.7-1.68 1.58-3.96 2.49-2.28.92-4.89.92t-4.89-.92q-2.28-.91-3.96-2.49-1.68-1.57-2.66-3.7-.97-2.13-.97-4.56 0-2.55.96-4.74.96-2.19 2.64-3.81 1.68-1.62 3.96-2.55 2.28-.93 4.92-.93zm0 22.05q1.98 0 3.55-.69 1.58-.69 2.7-1.98 1.13-1.29 1.73-3.13.6-1.85.6-4.13 0-2.4-.6-4.34-.6-1.93-1.71-3.3-1.11-1.36-2.7-2.1-1.59-.73-3.57-.73-1.98 0-3.57.73-1.59.74-2.7 2.1-1.11 1.37-1.71 3.3-.6 1.94-.6 4.34 0 2.28.6 4.13.6 1.84 1.71 3.13 1.11 1.29 2.7 1.98t3.57.69zm36.32-16.65l4.02 13.47 4.68-13.02q.42-1.17.6-1.86.18-.69.18-1.2 0-.78-.5-1.07-.49-.28-1.75-.28V6h7.29v1.14q-1.38 0-2.09.57-.7.57-1.18 1.86l-7.53 19.83h-1.05l-5.76-17.07-6.39 17.07h-1.05l-6.24-17.22q-.54-1.44-.98-2.42-.43-.97-.93-1.54-.49-.57-1.12-.81-.63-.24-1.53-.24V6h9.78v1.17q-1.53 0-2.15.27-.61.27-.61 1.05 0 .39.12.9t.36 1.2l4.56 13.89 3.69-10.38q.42-1.17.82-2.18.41-1 .65-1.81-.42-.87-.77-1.44-.34-.57-.69-.9-.34-.33-.72-.47-.37-.13-.79-.13V6h9.18v1.17q-.87 0-1.41.06-.54.06-.83.19-.28.14-.39.38-.1.24-.1.57 0 .45.16 1.09.17.65.47 1.64zm35.66-3.24l.54-1.86h.84l.27 6.9h-1.11q-.66-2.64-2.55-4.14-1.89-1.5-4.56-1.5-1.83 0-3.27.72t-2.43 2.07q-.99 1.35-1.51 3.3-.53 1.95-.53 4.41 0 4.83 2.01 7.42 2.01 2.6 5.82 2.6 5.79 0 7.44-6.15h1.23v7.47h-1.05l-.69-2.37q-3.15 2.67-7.62 2.67-2.55 0-4.6-.81-2.06-.81-3.51-2.3-1.46-1.48-2.26-3.61-.79-2.13-.79-4.74 0-2.73.84-4.98.84-2.25 2.35-3.87 1.52-1.62 3.63-2.51 2.12-.88 4.67-.88 1.8 0 3.39.51t3.45 1.65zm20.12-2.16q2.64 0 4.92.93t3.96 2.55q1.68 1.62 2.64 3.81.96 2.19.96 4.74 0 2.43-.98 4.56-.97 2.13-2.65 3.7-1.68 1.58-3.96 2.49-2.28.92-4.89.92t-4.89-.92q-2.28-.91-3.96-2.49-1.68-1.57-2.66-3.7-.97-2.13-.97-4.56 0-2.55.96-4.74.96-2.19 2.64-3.81 1.68-1.62 3.96-2.55 2.28-.93 4.92-.93zm0 22.05q1.98 0 3.55-.69 1.58-.69 2.7-1.98 1.13-1.29 1.73-3.13.6-1.85.6-4.13 0-2.4-.6-4.34-.6-1.93-1.71-3.3-1.11-1.36-2.7-2.1-1.59-.73-3.57-.73-1.98 0-3.57.73-1.59.74-2.7 2.1-1.11 1.37-1.71 3.3-.6 1.94-.6 4.34 0 2.28.6 4.13.6 1.84 1.71 3.13 1.11 1.29 2.7 1.98t3.57.69zm28.67 1.35h-11.73v-1.14q1.14-.03 1.85-.17.7-.13 1.09-.51.39-.37.53-1.02.13-.64.13-1.72V10.56q0-1.05-.11-1.7-.1-.64-.42-1.02-.31-.37-.91-.51-.6-.13-1.56-.19V6h10.53q2.7 0 4.99.9 2.3.9 3.97 2.49 1.66 1.59 2.59 3.78.93 2.19.93 4.77 0 2.46-.87 4.51-.87 2.06-2.45 3.53-1.57 1.47-3.76 2.29-2.19.83-4.8.83zm-.66-21.63h-3.81q-.51 0-.51.51v16.23q0 3.42 4.47 3.42 4.11 0 6.3-2.45 2.19-2.44 2.19-7.18 0-2.49-.6-4.44-.6-1.95-1.73-3.3-1.12-1.35-2.71-2.07-1.59-.72-3.6-.72zm23.72.33v8.61q1.62 0 2.71-.2 1.1-.19 1.74-.61.65-.42.93-1.08.29-.66.29-1.56h1.05v8.19h-1.05q0-.9-.26-1.56-.25-.66-.9-1.1-.64-.43-1.74-.65-1.09-.23-2.77-.23v6.78q0 .99.24 1.63.24.65.83 1.05.58.41 1.54.57.96.17 2.37.17 1.59 0 2.7-.23 1.11-.22 1.86-.76t1.2-1.43q.45-.88.75-2.2h1.14l-.45 5.91h-18.63v-1.14q1.05-.03 1.7-.18.64-.15 1-.51t.48-1.02q.12-.66.12-1.71V10.56q0-1.05-.1-1.7-.11-.64-.43-1.02-.31-.37-.91-.51-.6-.13-1.56-.19V6h17.34l.27 5.28h-1.05q-.18-1.2-.59-1.97-.4-.76-1.11-1.21-.7-.45-1.78-.63t-2.61-.18h-3.81q-.51 0-.51.51zm35.72 3.99q0 2.4-1.44 3.99-1.44 1.59-4.59 2.13l6.63 7.98q.81.99 1.78 1.42.98.44 2.33.65v1.14h-5.79l-7.35-9.42q-.39-.51-.74-.81-.34-.3-.72-.47-.37-.16-.87-.2-.49-.05-1.18-.05v6.24q0 1.11.13 1.81.14.71.57 1.1.44.39 1.26.52.83.14 2.18.14v1.14h-10.59v-1.14q1.05-.03 1.69-.18.65-.15 1.01-.51t.48-1.02q.12-.66.12-1.71V10.56q0-1.05-.11-1.7-.1-.64-.42-1.02-.31-.37-.91-.51-.6-.13-1.56-.19V6h9.42q4.14 0 6.4 1.53 2.27 1.53 2.27 4.26zm-11.94-3.87v8.73h2.13q3 0 4.45-1.1 1.46-1.09 1.46-3.61 0-2.43-1.16-3.48-1.15-1.05-3.61-1.05h-2.76q-.51 0-.51.51z" data-horizontal-grow="center" fill="#f5f5f5" font-size="30" font-weight="400" font-family="Libre Baskerville" dominant-baseline="hanging" letter-spacing="2"/></svg></svg>