<svg height="800" width="800" xmlns="http://www.w3.org/2000/svg" viewBox="0 0 512.001 512.001"><path d="M299.558 340.272v77.233c0 46.554 37.74 84.294 84.294 84.294 46.554 0 84.294-37.74 84.294-84.294v-77.233H299.558z" fill="#fff"/><path d="M468.146 263.038c0-46.554-37.74-84.294-84.294-84.294-46.554 0-84.294 37.74-84.294 84.294v77.233h168.589l-.001-77.233z" fill="#ff757c"/><path d="M123.113 89.456L68.5 144.069c-32.919 32.919-32.919 86.292 0 119.21 32.919 32.919 86.292 32.919 119.21 0l54.612-54.612L123.113 89.456z" fill="#fff"/><path d="M296.934 154.056c32.919-32.919 32.919-86.292 0-119.21-32.919-32.919-86.292-32.919-119.21 0l-54.612 54.612 119.21 119.21 54.612-54.612z" fill="#ff757c"/><g fill="#603813"><path d="M478.346 263.039c0-52.105-42.391-94.495-94.495-94.495s-94.495 42.39-94.495 94.495v154.467c0 52.104 42.39 94.495 94.495 94.495 52.105 0 94.495-42.39 94.495-94.495V263.039zm-168.588 0c0-40.855 33.238-74.094 74.094-74.094s74.094 33.239 74.094 74.094v67.033H309.758v-67.033zm148.187 154.466c0 40.855-33.239 74.094-74.094 74.094s-74.094-33.238-74.094-74.094v-67.033h148.189l-.001 67.033zM304.148 161.268c36.843-36.844 36.843-96.792 0-133.635-36.845-36.844-96.793-36.844-133.636 0L61.288 136.856c-36.844 36.844-36.844 96.793 0 133.636 18.421 18.421 42.62 27.632 66.818 27.632s48.395-9.211 66.818-27.632l109.224-109.224zm-123.651 94.799c-28.889 28.89-75.896 28.89-104.784 0-28.89-28.89-28.89-75.896 0-104.784l47.399-47.4 104.785 104.785-47.4 47.399zm61.826-61.825L137.538 89.456l47.4-47.399c28.89-28.89 75.896-28.889 104.784 0 28.89 28.89 28.89 75.896 0 104.784l-47.399 47.401z"/><path d="M438.56 436.519c5.634 0 10.2-4.567 10.2-10.2v-2.04c0-5.634-4.567-10.2-10.2-10.2s-10.2 4.567-10.2 10.2v2.04c0 5.634 4.567 10.2 10.2 10.2zM438.56 402.859c5.634 0 10.2-4.567 10.2-10.2v-21.42c0-5.634-4.567-10.2-10.2-10.2s-10.2 4.567-10.2 10.2v21.42c0 5.633 4.567 10.2 10.2 10.2z"/></g></svg>