
<svg version="1.1" id="Layer_1" xmlns="http://www.w3.org/2000/svg" xmlns:xlink="http://www.w3.org/1999/xlink" x="0px" y="0px"
	 viewBox="0 0 512 512" style="enable-background:new 0 0 512 512;" xml:space="preserve">
<g>
	<g>
		<path d="M437.019,74.981C388.667,26.628,324.379,0,256,0S123.333,26.628,74.981,74.981C26.628,123.333,0,187.621,0,256
			s26.628,132.667,74.981,181.019C123.333,485.372,187.621,512,256,512s132.667-26.628,181.019-74.981S512,324.379,512,256
			S485.372,123.333,437.019,74.981z M256,495.832C123.756,495.832,16.168,388.244,16.168,256S123.756,16.168,256,16.168
			S495.832,123.756,495.832,256S388.244,495.832,256,495.832z"/>
	</g>
</g>
<g>
	<g>
		<path d="M351.439,368.197c-2.859-3.431-7.957-3.893-11.386-1.036c-21.997,18.331-51.848,28.426-84.053,28.426
			s-62.057-10.096-84.053-28.426c-3.43-2.856-8.526-2.395-11.386,1.035c-2.859,3.43-2.395,8.527,1.035,11.386
			c24.897,20.748,58.423,32.174,94.404,32.174s69.507-11.426,94.404-32.173C353.834,376.724,354.298,371.627,351.439,368.197z"/>
	</g>
</g>
<g>
	<g>
		<path d="M468.884,234.442c0-34.176-27.803-61.979-61.979-61.979c-16.932,0-33.183,7.059-44.801,19.173
			c-27.526-17.51-61.328-28.388-98.021-29.79v-50.925l17.626-5.876c5.038,18.272,22.602,31.404,42.84,29.508
			c19.499-1.826,35.068-17.794,36.443-37.331c1.66-23.596-17.068-43.328-40.319-43.328c-20.258,0-37.08,14.981-39.977,34.446
			l-27.253,9.085c-3.301,1.101-5.527,4.19-5.527,7.669v56.751c-36.694,1.4-70.495,12.279-98.023,29.791
			c-11.616-12.115-27.86-19.174-44.798-19.174c-34.176,0-61.979,27.803-61.979,61.979c0,25.056,15.304,47.605,37.992,57.155
			c-0.882,5.997-1.343,12.103-1.343,18.297c0,81.724,79.059,148.211,176.236,148.211c49.571,0,94.424-17.305,126.476-45.103
			c3.495-3.03,3.675-8.396,0.404-11.666l-0.101-0.101c-2.955-2.955-7.689-3.128-10.846-0.391
			c-29.18,25.299-70.361,41.094-115.933,41.094c-88.261,0-160.067-59.234-160.067-132.042S167.739,177.853,256,177.853
			s160.067,59.234,160.067,132.042c0,22.907-7.109,44.47-19.602,63.268c-2.085,3.137-1.617,7.319,1.047,9.982
			c0.039,0.039,0.077,0.077,0.115,0.115c3.58,3.58,9.516,2.942,12.317-1.274c14.194-21.352,22.291-45.941,22.291-72.092
			c0-6.195-0.461-12.3-1.343-18.297C453.58,282.048,468.884,259.499,468.884,234.442z M320.674,70.063
			c13.373,0,24.253,10.879,24.253,24.253s-10.879,24.253-24.253,24.253c-13.373,0-24.253-10.879-24.253-24.253
			S307.3,70.063,320.674,70.063z M84.592,275.408c-15.229-7.656-25.308-23.483-25.308-40.965c0-25.26,20.55-45.811,45.81-45.811
			c11.895,0,22.975,4.455,31.404,12.436C111.265,220.678,92.844,246.398,84.592,275.408z M427.408,275.408
			c-8.252-29.008-26.671-54.728-51.905-74.339c8.43-7.981,19.513-12.437,31.402-12.437c25.26,0,45.81,20.55,45.81,45.811
			C452.716,251.924,442.636,267.751,427.408,275.408z"/>
	</g>
</g>
<g>
	<g>
		<path d="M180.547,237.137c-22.289,0-40.421,18.132-40.421,40.421c0,22.289,18.132,40.421,40.421,40.421
			s40.421-18.132,40.421-40.421S202.836,237.137,180.547,237.137z M180.547,301.811c-13.373,0-24.253-10.879-24.253-24.253
			c0-13.373,10.879-24.253,24.253-24.253c13.373,0,24.253,10.879,24.253,24.253C204.8,290.931,193.921,301.811,180.547,301.811z"/>
	</g>
</g>
<g>
	<g>
		<path d="M331.453,237.137c-22.289,0-40.421,18.132-40.421,40.421c0,22.289,18.132,40.421,40.421,40.421
			s40.421-18.132,40.421-40.421C371.874,255.269,353.741,237.137,331.453,237.137z M331.453,301.811
			c-13.373,0-24.253-10.879-24.253-24.253c0-13.373,10.879-24.253,24.253-24.253s24.253,10.879,24.253,24.253
			C355.705,290.931,344.826,301.811,331.453,301.811z"/>
	</g>
</g>
<g>
</g>
<g>
</g>
<g>
</g>
<g>
</g>
<g>
</g>
<g>
</g>
<g>
</g>
<g>
</g>
<g>
</g>
<g>
</g>
<g>
</g>
<g>
</g>
<g>
</g>
<g>
</g>
<g>
</g>
</svg>
