<?xml version="1.0" encoding="utf-8"?>

<!DOCTYPE svg PUBLIC "-//W3C//DTD SVG 1.1//EN" "http://www.w3.org/Graphics/SVG/1.1/DTD/svg11.dtd">
<svg version="1.1" xmlns="http://www.w3.org/2000/svg" xmlns:xlink="http://www.w3.org/1999/xlink" x="0px" y="0px" width="100px"
	 height="100px" viewBox="0 0 100 100" enable-background="new 0 0 100 100" xml:space="preserve">

<g id="Search">
	<path fill="none" stroke="rgb(200, 23, 206)" stroke-width="5" stroke-linecap="round" stroke-linejoin="round" stroke-miterlimit="10" d="
		M26.999,50c0-6.403,2.595-12.2,6.791-16.396c4.196-4.196,9.993-6.792,16.396-6.792c6.402,0,12.197,2.594,16.393,6.788
		c4.198,4.196,6.795,9.995,6.795,16.399c0,12.806-10.381,23.188-23.188,23.188S26.999,62.806,26.999,50z"/>
	<path fill="none" stroke="rgb(200, 23, 206)" stroke-width="5" stroke-linecap="round" stroke-linejoin="round" stroke-miterlimit="10" d="
		M40.311,51.668c-1.634-1.634-2.451-3.775-2.451-5.917c0-2.141,0.817-4.283,2.451-5.917c1.633-1.633,3.774-2.45,5.915-2.451
		c2.142,0,4.284,0.817,5.918,2.451c3.268,3.268,3.268,8.566,0,11.834C48.877,54.936,43.579,54.936,40.311,51.668z"/>
	
		<line fill="none" stroke="rgb(200, 23, 206)" stroke-width="5" stroke-linecap="round" stroke-linejoin="round" stroke-miterlimit="10" x1="52.145" y1="51.668" x2="66.727" y2="66.251"/>
</g>
</svg>
