<svg xmlns="http://www.w3.org/2000/svg" viewBox="0 0 512.003 512.003" fill="#fff"><path d="M507.894 82.93a8.245 8.245 0 00-9.494.861 97.345 97.345 0 01-14.261 10.105c6.528-12.903 10.533-26.958 11.756-41.632.286-3.428-1.71-6.812-4.853-8.212-3.137-1.397-6.981-.641-9.346 1.852-11.091 11.686-24.912 20.433-40.117 25.425-20.18-24.153-47.742-36.863-80.259-36.863-62.747 0-113.796 51.049-113.796 113.796 0 2.532.086 5.081.256 7.628a222.28 222.28 0 01-27.484 1.719c-35.834 0-71.404-8.792-102.864-25.426a8.246 8.246 0 10-7.708 14.58c33.826 17.885 72.062 27.338 110.573 27.338a239.31 239.31 0 0037.8-3.025 8.246 8.246 0 006.861-9.278 98.498 98.498 0 01-.941-13.535c0-53.653 43.65-97.304 97.304-97.304 67.216 0 97.303 63.227 97.303 125.89 0 27.098-2.949 53.014-8.765 77.031-1.044 4.312 1.634 8.785 5.921 9.915 4.407 1.161 9.037-1.611 10.109-6.034 6.123-25.287 9.229-52.509 9.229-80.913 0-6.867-.334-13.627-.97-20.251 19.537-16.767 32.928-39.838 37.711-64.995a8.255 8.255 0 00-3.965-8.672zm-47.823 18.437c-2.53-5.655-5.363-11.03-8.489-16.089a113.448 113.448 0 0023.377-12.157c-3.325 10.119-8.346 19.625-14.888 28.246zm11.123 35.24a177.723 177.723 0 00-4.454-17.481 113.754 113.754 0 0022.055-8.948 97.88 97.88 0 01-17.601 26.429z"/><path d="M450.628 281.161a8.246 8.246 0 00-10.62 4.818C394.64 406.691 276.692 451.026 214.151 458.192c-69.043 7.911-135.966-1.377-181.383-24.365a297.87 297.87 0 00121.904-50.092c5.211-3.667 4.304-11.904-1.571-14.355-29.503-12.307-56.071-31.002-77.688-54.548h39.333c4.185 0 7.792-3.268 8.205-7.431.413-4.164-2.48-8.077-6.584-8.9-.769-.154-72.251-15.344-93.5-88.427l35.72 16.074c3.529 1.59 7.81.441 10.071-2.698 2.332-3.236 1.971-7.813-.844-10.641-.621-.623-58.207-59.606-34.041-129.539a237.64 237.64 0 0044.569 43.602 8.247 8.247 0 009.893-13.195 221.3 221.3 0 01-49.661-51.712c-3.513-5.107-11.483-4.509-14.202 1.053-17.421 35.651-17.41 74.937.03 113.613 3.559 7.892 7.489 14.987 11.337 21.15l-21.212-9.546c-5.909-2.66-12.603 2.53-11.511 8.909 8.724 51.045 38.156 80.291 61.309 95.838a156.901 156.901 0 008.57 5.359H57.623c-6.729 0-10.65 8.012-6.497 13.325 21.97 28.102 50.067 50.939 81.887 66.679-37.842 23.778-80.955 38.264-125.563 42.079-7.464.638-10.201 10.565-4.088 14.928 38.276 27.324 96.471 42.188 161.569 42.186 16.649 0 33.765-.974 51.098-2.96 43.234-4.953 90.51-22.386 129.707-47.828 51.04-33.128 88.977-79.8 109.711-134.967a8.25 8.25 0 00-4.819-10.622zm-89.31-193.92c-14.247 0-25.838 11.591-25.838 25.838 0 14.247 11.591 25.838 25.838 25.838s25.838-11.591 25.838-25.838c0-14.248-11.591-25.838-25.838-25.838zm0 35.183c-5.153 0-9.346-4.192-9.346-9.346 0-5.153 4.192-9.346 9.346-9.346s9.346 4.192 9.346 9.346-4.192 9.346-9.346 9.346z"/></svg>