<?xml version="1.0" standalone="no"?><svg xmlns="http://www.w3.org/2000/svg" viewBox="0 0 1440 320" style="transform:rotate(180deg);"><path fill="#6e046f" fill-opacity="0.9" d="M0,256L40,256C80,256,160,256,240,224C320,192,400,128,480,101.3C560,75,640,85,720,101.3C800,117,880,139,960,128C1040,117,1120,75,1200,58.7C1280,43,1360,53,1400,58.7L1440,64L1440,320L1400,320C1360,320,1280,320,1200,320C1120,320,1040,320,960,320C880,320,800,320,720,320C640,320,560,320,480,320C400,320,320,320,240,320C160,320,80,320,40,320L0,320Z" data-darkreader-inline-fill="" style="--darkreader-inline-fill:#007acc;"></path></svg>