<svg id="visual" viewBox="0 0 960 540" width="960" height="540" xmlns="http://www.w3.org/2000/svg" xmlns:xlink="http://www.w3.org/1999/xlink" version="1.1"><g transform="translate(458.0673389634438 270.50670813281084)"><path d="M147.8 -192.3C190.6 -172.4 223.7 -127.9 235.2 -79.5C246.6 -31.1 236.5 21.2 210.2 57.9C184 94.5 141.6 115.5 103.9 140.8C66.1 166 33.1 195.5 -5.9 203.6C-44.9 211.8 -89.7 198.5 -124.9 172.4C-160.1 146.4 -185.6 107.5 -193.3 66.8C-201 26.2 -190.8 -16.3 -178.7 -59.4C-166.5 -102.5 -152.3 -146.3 -122.2 -170.4C-92.1 -194.4 -46 -198.7 3.2 -203.2C52.5 -207.6 105 -212.2 147.8 -192.3" fill="#a313a8"></path></g></svg>